<?xml version="1.0" encoding="UTF-8" standalone="no"?>
<!-- Created with Inkscape (http://www.inkscape.org/) -->

<svg
   width="66.265625mm"
   height="65.523445mm"
   viewBox="0 0 66.265625 65.523445"
   version="1.1"
   id="svg5"
   xmlns:inkscape="http://www.inkscape.org/namespaces/inkscape"
   xmlns:sodipodi="http://sodipodi.sourceforge.net/DTD/sodipodi-0.dtd"
   xmlns="http://www.w3.org/2000/svg"
   xmlns:svg="http://www.w3.org/2000/svg">
  <sodipodi:namedview
     id="namedview7"
     pagecolor="#ffffff"
     bordercolor="#000000"
     borderopacity="0.25"
     inkscape:showpageshadow="2"
     inkscape:pageopacity="0.0"
     inkscape:pagecheckerboard="0"
     inkscape:deskcolor="#d1d1d1"
     inkscape:document-units="mm"
     showgrid="false"
     showguides="true">
    <sodipodi:guide
       position="54.882201,40.847391"
       orientation="1,0"
       id="guide1135"
       inkscape:locked="false" />
    <sodipodi:guide
       position="11.150559,41.588601"
       orientation="1,0"
       id="guide1137"
       inkscape:locked="false" />
  </sodipodi:namedview>
  <defs
     id="defs2" />
  <g
     inkscape:label="Layer 1"
     inkscape:groupmode="layer"
     id="layer1"
     transform="translate(-26.404297,-37.585936)">
    <path
       style="color:#000000;fill:#000000;-inkscape-stroke:none"
       d="m 34.458984,37.585937 c -4.43874,0 -8.054687,3.615948 -8.054687,8.054688 v 49.416016 c 0,4.43874 3.615947,8.052739 8.054687,8.052739 h 50.15625 c 4.43874,0 8.054688,-3.613999 8.054688,-8.052739 V 45.640625 c 0,-4.43874 -3.615948,-8.054687 -8.054688,-8.054688 z m 0,2.65625 h 50.15625 c 3.013462,0 5.398438,2.384977 5.398438,5.398438 v 49.416016 c 0,3.013461 -2.384976,5.396489 -5.398438,5.396489 h -50.15625 c -3.013461,0 -5.398437,-2.383028 -5.398437,-5.396489 V 45.640625 c 0,-3.013461 2.384976,-5.398438 5.398437,-5.398438 z"
       id="rect111"
       inkscape:export-filename="burgerMenu.svg"
       inkscape:export-xdpi="20"
       inkscape:export-ydpi="20" />
    <g
       id="rect1106">
      <path
         style="color:#000000;fill:#000000;stroke-width:1.16037;-inkscape-stroke:none"
         d="m 38.218658,50.695759 h 42.527569 v 5.219786 H 38.218658 Z"
         id="path1224" />
      <path
         style="color:#000000;fill:#000000;-inkscape-stroke:none"
         d="m 37.638672,50.115234 v 0.580078 5.800782 h 43.6875 v -6.38086 z m 1.160156,1.160157 h 41.367188 v 4.060546 H 38.798828 Z"
         id="path1226" />
    </g>
    <g
       id="rect1106-5">
      <path
         style="color:#000000;fill:#000000;stroke-width:1.16037;-inkscape-stroke:none"
         d="M 38.156891,61.752216 H 80.68446 v 5.219787 H 38.156891 Z"
         id="path1230" />
      <path
         style="color:#000000;fill:#000000;-inkscape-stroke:none"
         d="m 37.576172,61.171875 v 0.580078 5.800781 h 43.6875 v -6.380859 z m 1.160156,1.160156 h 41.367188 v 4.060547 H 38.736328 Z"
         id="path1232" />
    </g>
    <g
       id="rect1106-3">
      <path
         style="color:#000000;fill:#000000;stroke-width:1.16037;-inkscape-stroke:none"
         d="m 38.156895,72.62336 h 42.527569 v 5.219786 H 38.156895 Z"
         id="path1236" />
      <path
         style="color:#000000;fill:#000000;-inkscape-stroke:none"
         d="m 37.576172,72.042969 v 0.580078 5.800781 h 43.689453 v -6.380859 z m 1.160156,1.160156 h 41.367188 v 4.060547 H 38.736328 Z"
         id="path1238" />
    </g>
    <g
       id="rect1106-56">
      <path
         style="color:#000000;fill:#000000;stroke-width:1.16037;-inkscape-stroke:none"
         d="m 38.033356,83.618034 h 42.527569 v 5.219787 H 38.033356 Z"
         id="path1242" />
      <path
         style="color:#000000;fill:#000000;-inkscape-stroke:none"
         d="m 37.453125,83.037109 v 0.580078 5.800782 h 43.6875 v -6.38086 z m 1.160156,1.160157 h 41.367188 v 4.060546 H 38.613281 Z"
         id="path1244" />
    </g>
  </g>
</svg>
