<?xml version="1.0" encoding="UTF-8" standalone="no"?>
<!-- Created with Inkscape (http://www.inkscape.org/) -->

<svg
   width="1920"
   height="850"
   viewBox="0 0 508 224.89583"
   version="1.1"
   id="svg4856"
   xmlns="http://www.w3.org/2000/svg"
   xmlns:svg="http://www.w3.org/2000/svg">
  <defs
     id="defs4853" />
  <g
     id="layer1">
    <g
       id="g3218"
       transform="matrix(2.8484121,0,0,2.8484121,-55.357258,-152.92656)">
      <path
         id="path121"
         style="clip-rule:evenodd;fill:#373435;fill-rule:nonzero;stroke-width:0.0665077;image-rendering:optimizeQuality;shape-rendering:geometricPrecision;text-rendering:geometricPrecision"
         class="fil1"
         d="m 20.647835,57.059566 v 44.693394 h 5.919536 V 81.9335 h 0.0057 v -0.51108 c -1.85e-4,-0.0031 -3.24e-4,-0.0062 -5.17e-4,-0.0093 -0.0017,-0.02633 -0.0036,-0.0527 -0.0047,-0.07906 -0.0012,-0.02636 -0.0027,-0.05268 -0.0031,-0.07906 -5.94e-4,-0.02816 -0.0014,-0.05658 -0.001,-0.08475 2e-4,-0.02976 2.55e-4,-0.05913 0.0016,-0.08888 0.0012,-0.02727 0.0026,-0.05491 0.0041,-0.08217 0.001,-0.01996 0.0023,-0.03996 0.0036,-0.05994 v -4.12688 h -0.0057 V 61.98123 h 14.16606 c 3.258854,0 5.7195,0.73175 7.24917,2.061889 1.529662,1.330146 2.261361,3.125712 2.261361,5.253943 0,1.396654 -0.399259,2.726823 -1.197343,3.990454 -0.798093,1.197131 -1.928525,2.128249 -3.458187,2.660303 -1.529669,0.598561 -3.591169,0.864547 -6.317961,0.864547 h -2.151806 v 5.419307 c 0.755447,0.219883 1.545681,0.585285 2.287198,1.098641 0.864597,0.532061 1.861959,1.529428 2.992583,2.992582 1.130622,1.396654 2.593907,3.458714 4.256587,6.119007 l 5.919536,9.311057 H 59.95448 L 52.239189,89.582129 c -1.529669,-2.394262 -3.192324,-4.389873 -4.855001,-5.919535 -0.864593,-0.731585 -2.061851,-1.529784 -3.591512,-2.261361 4.256462,-0.598562 7.448806,-1.928524 9.51053,-4.123263 1.995215,-2.194731 3.059762,-4.855231 3.059762,-8.04757 0,-2.46077 -0.598781,-4.655179 -1.862419,-6.716903 -1.197123,-1.995215 -2.859939,-3.458503 -4.921663,-4.256588 -2.128231,-0.798084 -5.121158,-1.197343 -9.111589,-1.197343 z" />
      <path
         class="fil1"
         d="m 83.364854,84.793354 v -5.187602 h 18.954696 v 16.560423 c -2.926335,2.261262 -5.919183,4.056975 -8.978538,5.187605 -3.125863,1.19714 -6.251726,1.7292 -9.510604,1.7292 -4.389509,0 -8.379973,-0.93111 -11.971389,-2.79333 -3.591417,-1.862213 -6.318234,-4.589029 -8.113942,-8.113939 -1.862216,-3.591417 -2.726817,-7.58188 -2.726817,-11.971389 0,-4.323002 0.864601,-8.379973 2.726817,-12.170913 1.795708,-3.724432 4.389509,-6.517757 7.781403,-8.379973 3.458401,-1.795708 7.382357,-2.726816 11.838374,-2.726816 3.192371,0 6.11871,0.532062 8.779019,1.596185 2.593801,0.997616 4.655541,2.460786 6.11871,4.323002 1.46317,1.862216 2.593797,4.323002 3.391897,7.315849 l -5.387128,1.46317 c -0.665077,-2.261263 -1.46317,-4.056971 -2.460786,-5.320618 -0.997616,-1.330154 -2.394278,-2.394278 -4.256494,-3.125863 -1.862216,-0.798092 -3.923955,-1.197139 -6.185218,-1.197139 -2.660309,0 -4.988079,0.399047 -6.983311,1.263647 -1.995231,0.798093 -3.524909,1.862216 -4.788555,3.258878 -1.197139,1.330155 -2.128247,2.793325 -2.793325,4.38951 -1.130631,2.793324 -1.662693,5.786172 -1.662693,8.978542 0,4.056971 0.665078,7.382357 1.995232,10.042666 1.396662,2.726816 3.391894,4.722048 5.985695,5.985695 2.660309,1.330154 5.387125,1.995231 8.379973,1.995231 2.527293,0 5.054586,-0.532061 7.448864,-1.529677 2.460786,-0.997616 4.323002,-2.06174 5.586649,-3.192371 v -8.379973 z"
         id="path125"
         style="clip-rule:evenodd;fill:#373435;fill-rule:nonzero;stroke-width:0.0665077;image-rendering:optimizeQuality;shape-rendering:geometricPrecision;text-rendering:geometricPrecision" />
      <path
         class="fil1"
         d="m 110.23397,101.42028 0.8646,-44.693183 h 6.45125 l 34.51751,44.693183 h -6.71728 l -10.10917,-13.56757 -0.53207,-0.731585 -2.39427,-3.258879 -0.66508,-0.798092 -9.17807,-12.370436 c -2.79332,-3.79094 -4.45601,-6.11871 -6.11871,-8.579496 0.13302,3.258878 0.19953,4.988079 0.13302,7.847911 l -0.0665,13.102021 v 0.8646 c 0,1.662693 0,1.529678 0,3.125863 v 0.798093 l 0.0665,13.56757 z"
         id="path131"
         style="clip-rule:evenodd;fill:#373435;fill-rule:nonzero;stroke-width:0.0665077;image-rendering:optimizeQuality;shape-rendering:geometricPrecision;text-rendering:geometricPrecision" />
      <g
         id="_1857153628560"
         transform="matrix(0.06650772,0,0,0.06650772,-67.807193,-34.787526)"
         style="clip-rule:evenodd;fill-rule:evenodd;image-rendering:optimizeQuality;shape-rendering:geometricPrecision;text-rendering:geometricPrecision">
   <path
   class="fil3"
   d="m 3632,1654 76,124 c 10,9 29,50 38,65 10,7 13,11 13,23 16,-3 30,-12 42,-21 9,-7 24,-28 30,-31 27,-53 12,-90 1,-141 -40,-51 -5,-53 -86,-43 -19,2 -106,11 -114,24 z"
   id="path135"
   style="fill:#ffb901" />

   <path
   class="fil4"
   d="m 3470,1688 c -28,19 -208,66 -206,97 9,0 11,1 20,-2 14,-3 15,-6 25,4 l 12,-3 v 6 h 2 l -12,47 c 5,9 19,17 28,23 l -2,2 c 11,11 13,4 17,15 l 40,-102 c -7,-18 48,-25 61,-28 14,-4 60,-21 71,-17 l -2,12 4,-13 c 6,16 -11,57 -15,76 23,-4 32,8 39,-13 l 12,12 3,-1 -2,41 c 10,-13 6,-53 24,-56 -4,-10 -4,-14 1,-23 l 6,5 4,-3 17,20 c 4,-10 -27,-35 10,-39 l 5,16 h 3 l 3,-13 c 17,11 12,39 37,45 l -83,-136 c -35,-1 -98,29 -122,28 z"
   id="path137"
   style="fill:#01a3da" />

   <path
   class="fil5"
   d="m 3513,1805 c -12,29 -3,45 -38,53 l -87,32 c 2,18 14,35 21,51 l 58,-21 2,7 4,5 c -3,15 -11,34 -10,48 l 8,8 -4,2 c 13,7 48,15 52,29 l 13,-45 7,6 c -4,-11 -10,-28 1,-37 l 5,-4 c 8,8 28,60 32,72 l -3,2 c 7,18 8,15 25,9 6,-3 26,-13 29,-9 4,-12 -29,-66 -36,-80 -20,-41 -30,-43 -27,-89 l 2,-41 -3,1 -12,-12 c -7,21 -16,9 -39,13 z"
   id="path139"
   style="fill:#08c6e8" />

   <path
   class="fil5"
   d="m 3617,1787 c 12,26 34,52 45,81 l -4,5 c 17,25 13,17 11,45 3,30 -18,70 -5,97 l -5,3 c 12,6 41,13 45,25 l 12,-45 c -1,-9 -3,-19 5,-24 l 2,-1 c 16,19 26,35 37,57 l -3,4 c 17,6 37,-18 52,-13 1,-18 -115,-194 -134,-225 -25,-6 -20,-34 -37,-45 l -3,13 h -3 l -5,-16 c -37,4 -6,29 -10,39 z"
   id="path141"
   style="fill:#08c6e8" />

   <path
   class="fil5"
   d="m 3284,1468 c -2,16 4,20 9,35 l -4,5 4,13 -30,-16 c -8,-1 -13,-3 -19,-10 -3,4 -13,32 -15,39 l 16,10 35,22 -6,1 c -9,2 -24,6 -33,5 l 4,6 -20,6 v -1 l 14,37 c 15,14 98,-22 116,-14 8,-15 16,5 34,-6 2,-1 17,-16 18,-18 l -8,-10 c -22,-13 -23,-5 -36,-30 -6,-10 -20,-32 -23,-41 -7,-6 -10,-12 -12,-21 l 5,-2 c -15,-6 -20,-15 -14,-31 -17,23 -4,13 -35,21 z"
   id="path143"
   style="fill:#08c6e8" />

   <path
   class="fil5"
   d="m 3400,1429 -6,7 2,8 c -8,0 -18,-8 -26,-11 -8,2 -14,-5 -25,-4 -7,7 -9,10 -9,21 l 12,11 h -6 l 99,47 c 9,6 27,33 32,43 14,-6 8,-4 17,-14 7,-9 7,-3 19,-3 l -8,-15 -25,-43 -38,-65 c -10,-9 -9,-16 -25,-11 -8,10 -8,3 -19,10 z"
   id="path145"
   style="fill:#08c6e8" />

   <path
   class="fil6"
   d="m 3270,1701 c -7,8 -1,4 -9,4 l 28,17 c -11,5 -24,7 -36,5 l -27,13 8,4 -1,-5 c 9,10 10,5 17,20 3,6 10,21 14,26 -2,-31 178,-78 206,-97 -21,3 -100,29 -111,13 l -30,-14 v 11 c -5,9 -21,10 -31,12 -18,3 -12,-1 -28,-9 z"
   id="path147"
   style="fill:#89e4f8" />

   <path
   class="fil7"
   d="m 3604,1610 c 0,1 28,43 28,44 8,-13 95,-22 114,-24 81,-10 46,-8 86,43 -2,-13 -10,-19 -1,-22 -8,-17 -35,-40 -14,-50 -13,-8 -8,9 -17,15 l -14,-18 18,-13 c -32,13 -17,-2 -43,-14 l -4,4 c 18,34 -41,22 -71,34 -18,7 -35,7 -53,12 -15,4 -16,0 -29,-11 z"
   id="path149"
   style="fill:#feeda3" />

   <path
   class="fil8"
   d="m 3814,1891 -21,16 34,64 c 13,9 11,28 28,28 l -3,4 c 17,-5 32,-19 50,-23 l -64,-84 -8,-10 z"
   id="path151"
   style="fill:#fdcc0b" />

   <path
   class="fil9"
   d="m 3611,1591 -1,9 c -9,1 -8,-3 -18,-8 4,10 6,11 12,18 13,11 14,15 29,11 18,-5 35,-5 53,-12 30,-12 89,0 71,-34 l 4,-4 c -9,-12 -15,-9 -14,-26 l -21,2 c 7,7 10,7 13,16 -1,1 -12,10 -14,11 -16,-3 -37,-26 -57,-31 l 19,17 c -6,17 -41,25 -59,27 l -7,14 z"
   id="path153"
   style="fill:#fde678" />

   <path
   class="fil8"
   d="m 3862,1842 -6,14 c -1,14 6,19 16,28 6,6 14,15 21,19 8,5 15,14 16,23 l 23,22 c 8,-6 30,-41 28,-49 l 1,15 c 11,-20 -16,-33 -32,-44 -9,-6 -41,-31 -48,-34 l -10,-4 z"
   id="path155"
   style="fill:#fdcc0b" />

   <path
   class="fil10"
   d="m 3610,1665 c 12,28 98,156 123,196 10,16 12,27 33,18 31,-15 50,-33 65,-65 -6,3 -21,24 -30,31 -12,9 -26,18 -42,21 -10,-2 -15,-15 -19,-24 l -38,-58 c -11,-25 -79,-119 -81,-134 z"
   id="path157"
   style="fill:#e77616" />

   <path
   class="fil8"
   d="m 3887,1786 c 3,20 26,20 24,31 16,9 59,24 66,38 l 2,-67 -61,-21 c -13,-2 -19,-9 -32,-6 z"
   id="path159"
   style="fill:#fdcc0b" />

   <path
   class="fil11"
   d="m 3446,1522 60,95 1,8 c -12,2 -31,-4 -37,-1 -6,3 -7,6 -15,10 -9,4 -5,0 -8,5 l -27,-15 c -9,-1 -30,-8 -36,-14 l -11,4 34,18 c 14,3 79,32 84,43 4,-11 -1,-2 -4,-12 7,-4 11,-6 18,-9 13,-5 5,-2 16,-10 18,-12 13,-12 36,-16 l 3,-13 -17,-31 c 2,6 17,27 -17,33 -16,3 -34,-34 -41,-45 l -9,-16 -3,-5 c -5,-10 -23,-37 -32,-43 z"
   id="path161"
   style="fill:#98f6ff" />

   <path
   class="fil8"
   d="m 3560,1544 13,19 c 13,4 9,3 20,8 v -8 c -5,-13 -28,-38 -26,-49 14,-4 53,2 66,10 l 16,5 c 19,4 53,30 69,20 -11,-18 -54,-28 -70,-41 l 1,-3 -1,2 c -23,-4 -43,-14 -66,-14 -16,0 -38,-5 -53,3 1,9 25,37 31,48 z"
   id="path163"
   style="fill:#fdcc0b" />

   <path
   class="fil12"
   d="m 3589,1788 c 16,37 78,106 71,144 -20,106 -33,93 13,115 15,7 22,14 31,-4 -4,-12 -33,-19 -45,-25 l -9,-6 c 0,-12 14,-84 19,-94 2,-28 6,-20 -11,-45 l -62,-103 -6,-5 c -5,9 -5,13 -1,23 z"
   id="path165"
   style="fill:#044986" />

   <path
   class="fil13"
   d="m 3491,1675 c -21,2 -17,8 -38,-1 -3,14 -31,15 -44,18 -16,3 -33,8 -50,9 11,16 90,-10 111,-13 24,1 87,-29 122,-28 -12,-13 -7,-6 -15,-21 -6,-10 -7,-18 -17,-24 l -3,13 c -23,4 -18,4 -36,16 -11,8 -3,5 -16,10 -7,3 -11,5 -18,9 3,10 8,1 4,12 z"
   id="path167"
   style="fill:#b7eaf9" />

   <path
   class="fil3"
   d="m 3876,1717 c 21,4 72,18 91,15 l -19,-54 c -15,-7 -58,-6 -74,-2 -3,11 3,27 2,41 z"
   id="path169"
   style="fill:#ffb901" />

   <path
   class="fil14"
   d="m 3218,1641 c 18,2 48,-8 68,-10 13,-3 41,-11 53,-10 11,2 31,16 45,20 18,-4 11,-4 23,-9 l -34,-18 -18,-8 c -18,-8 -101,28 -116,14 l -1,5 c -8,-6 -20,-30 -22,-40 -7,-5 -15,6 -19,12 z"
   id="path171"
   style="fill:#0486b9" />

   <path
   class="fil8"
   d="m 3498,1456 3,9 c 16,2 33,-6 47,-1 v 7 c 7,-16 2,-17 -6,-34 -4,-9 -15,-29 -15,-37 -11,-9 -8,-15 -25,-11 -9,2 -22,3 -31,5 -1,10 25,46 29,61 z"
   id="path173"
   style="fill:#fdcc0b" />

   <path
   class="fil8"
   d="m 3581,1443 5,21 53,12 c 0,-15 2,-53 -4,-65 -7,-5 -43,-12 -52,-9 -4,12 9,38 2,53 z"
   id="path175"
   style="fill:#fdcc0b" />

   <path
   class="fil8"
   d="m 3706,1504 10,1 c 5,7 0,6 8,9 9,-8 4,-11 14,-19 7,-5 14,-24 12,-32 l -27,-16 c -10,-4 -21,-13 -32,-10 -3,8 -7,45 -6,53 z"
   id="path177"
   style="fill:#fdcc0b" />

   <path
   class="fil15"
   d="m 3610,1665 11,-15 c -9,-8 -43,-61 -47,-73 -7,-6 -16,-20 -20,-29 -15,-12 -20,-47 -40,-48 -9,15 5,26 14,41 9,13 18,27 26,41 14,22 39,66 56,83 z"
   id="path179"
   style="fill:#f09411" />

   <path
   class="fil7"
   d="m 3602,1571 9,20 10,10 7,-14 c 18,-2 53,-10 59,-27 l -19,-17 -19,-14 -16,-5 4,6 c 2,0 -5,-3 -3,3 2,6 1,0 5,5 -12,3 -11,15 -9,26 l -13,-12 c -9,13 1,8 -4,20 z"
   id="path181"
   style="fill:#feeda3" />

   <path
   class="fil14"
   d="m 3319,1447 c -6,16 -1,25 14,31 10,5 11,5 18,13 15,0 69,30 81,40 l 1,-6 7,8 6,-11 -5,-14 -99,-47 -15,-9 c 0,-10 4,-14 8,-23 l -3,-3 z"
   id="path183"
   style="fill:#0486b9" />

   <path
   class="fil16"
   d="m 3817,1601 c 4,15 17,26 25,39 6,-6 -4,-6 -2,-18 12,-4 35,-4 49,-4 18,-1 32,1 32,22 12,-17 -5,-22 -16,-31 -12,-9 -11,-23 -22,-31 -22,-3 -60,24 -66,23 z"
   id="path185"
   style="fill:#fdf4b7" />

   <path
   class="fil16"
   d="m 3593,1563 9,8 11,1 c 5,-12 -5,-7 4,-20 l 13,12 c -2,-11 -3,-23 9,-26 -4,-5 -3,1 -5,-5 -2,-6 5,-3 3,-3 l -4,-6 c -13,-8 -52,-14 -66,-10 -2,11 21,36 26,49 z"
   id="path187"
   style="fill:#fdf4b7" />

   <path
   class="fil17"
   d="m 3394,1775 c 21,-3 107,-31 118,-26 4,10 -21,82 -26,97 l 4,4 c 8,-10 28,-89 34,-108 l 2,-12 c -11,-4 -57,13 -71,17 -13,3 -68,10 -61,28 z"
   id="path189"
   style="fill:#0676a8" />

   <path
   class="fil17"
   d="m 3457,1946 c 6,-4 2,-5 6,1 l 6,-20 -2,-7 -58,21 -9,-1 -24,-49 c -6,-2 -24,3 -10,29 5,10 14,31 22,38 14,1 47,-14 64,-17 z"
   id="path191"
   style="fill:#0676a8" />

   <path
   class="fil14"
   d="m 3306,1807 5,-12 4,3 6,-8 v -6 l -12,3 c -18,-1 -33,9 -49,9 -6,-7 -25,-43 -26,-52 l -8,-4 c -17,16 -15,13 -4,34 22,44 15,43 52,33 13,-4 23,-10 32,0 z"
   id="path193"
   style="fill:#0486b9" />

   <path
   class="fil15"
   d="m 3447,1411 c 6,21 34,49 42,71 19,-1 44,2 59,-11 v -7 c -14,-5 -31,3 -47,1 l -3,-9 c -9,-8 -22,-31 -29,-42 -9,-7 -6,-13 -16,-18 -9,6 -8,6 -6,15 z"
   id="path195"
   style="fill:#f09411" />

   <path
   class="fil12"
   d="m 3539,1980 c 5,12 25,58 32,65 10,0 23,-6 33,-10 15,-5 19,-5 24,-22 -3,-4 -23,6 -29,9 -17,6 -18,9 -25,-9 l -34,-70 c -11,9 -5,26 -1,37 z"
   id="path197"
   style="fill:#044986" />

   <path
   class="fil10"
   d="m 3902,1980 c -18,4 -33,18 -50,23 l -8,2 -20,-30 -21,-33 -4,8 c 1,-5 -7,-9 -14,-10 5,11 47,77 54,83 11,0 26,-10 36,-15 17,-9 24,-8 27,-28 z"
   id="path199"
   style="fill:#e77616" />

   <path
   class="fil10"
   d="m 3854,1689 c 17,58 9,44 83,58 19,4 30,9 30,-15 -19,3 -70,-11 -91,-15 l -20,-41 z"
   id="path201"
   style="fill:#e77616" />

   <path
   class="fil12"
   d="m 3716,1998 c 6,11 29,51 36,56 11,0 23,-7 33,-11 17,-6 20,-4 24,-22 -15,-5 -35,19 -52,13 l -36,-60 c -8,5 -6,15 -5,24 z"
   id="path203"
   style="fill:#044986" />

   <path
   class="fil18"
   d="m 3457,1946 c -4,13 -17,43 -15,55 8,7 31,16 41,21 20,9 25,18 36,-3 -4,-14 -39,-22 -52,-29 l -13,-7 c 0,-12 6,-24 9,-36 -4,-6 0,-5 -6,-1 z"
   id="path205"
   style="fill:#055896" />

   <path
   class="fil19"
   d="m 3574,1577 c 4,12 38,65 47,73 2,15 70,109 81,134 l 6,-6 -76,-124 c 0,-1 -28,-43 -28,-44 -6,-7 -8,-8 -12,-18 l -13,-18 -2,-2 z"
   id="path207"
   style="fill:#fcf7d6" />

   <path
   class="fil16"
   d="m 3572,1396 9,47 4,12 c 7,-15 -6,-41 -2,-53 9,-3 45,4 52,9 6,12 4,50 4,65 -3,19 -11,17 -27,13 -9,-2 -27,-6 -35,-10 -5,-11 -1,-13 -9,-23 l 4,29 c -15,6 -31,-2 -45,5 18,-1 39,-5 55,3 23,0 43,10 66,14 -19,-18 -2,-4 -4,-50 0,-15 1,-41 -6,-53 -25,-7 -54,-7 -66,-8 z"
   id="path209"
   style="fill:#fdf4b7" />

   <path
   class="fil15"
   d="m 3568,1456 c 8,10 4,12 9,23 8,4 26,8 35,10 16,4 24,6 27,-13 l -53,-12 -5,-21 -9,-47 c -24,7 0,40 -4,60 z"
   id="path211"
   style="fill:#f09411" />

   <path
   class="fil17"
   d="m 3432,1531 c 5,18 32,51 41,71 13,14 11,11 28,19 l 5,-4 -60,-95 -6,11 -7,-8 z"
   id="path213"
   style="fill:#0676a8" />

   <path
   class="fil10"
   d="m 3831,1651 c 15,16 24,9 45,5 8,-1 16,-2 24,-4 16,-2 14,1 22,-11 l -4,-8 c -15,3 -67,16 -76,7 -8,-13 -21,-24 -25,-39 -21,10 6,33 14,50 z"
   id="path215"
   style="fill:#e77616" />

   <path
   class="fil10"
   d="m 3909,1837 c 18,3 50,31 65,28 l 3,-10 c -7,-14 -50,-29 -66,-38 -10,-3 -26,-15 -35,-14 -7,22 20,19 33,34 z"
   id="path217"
   style="fill:#e77616" />

   <path
   class="fil14"
   d="m 3253,1727 c 12,2 25,0 36,-5 l -28,-17 -40,-20 c 0,-10 5,-17 9,-27 -2,-3 3,-5 -5,-1 -7,4 -21,36 -20,45 z"
   id="path219"
   style="fill:#0486b9" />

   <path
   class="fil17"
   d="m 3306,1807 c -6,10 -20,44 -20,55 7,6 26,13 35,18 22,10 17,13 33,-3 -4,-11 -6,-4 -17,-15 -7,-2 -30,-12 -36,-18 0,-16 13,-30 14,-46 l -4,-3 z"
   id="path221"
   style="fill:#0676a8" />

   <path
   class="fil17"
   d="m 3384,1641 69,33 c 21,9 17,3 38,1 -5,-11 -70,-40 -84,-43 -12,5 -5,5 -23,9 z"
   id="path223"
   style="fill:#0676a8" />

   <path
   class="fil10"
   d="m 3909,1926 -21,-17 -11,-11 1,11 -17,-5 c 7,9 59,57 67,60 9,-4 29,-39 33,-50 l -1,-15 c 2,8 -20,43 -28,49 z"
   id="path225"
   style="fill:#e77616" />

   <path
   class="fil3"
   d="m 3842,1640 c 9,9 61,-4 76,-7 l 4,8 -1,-1 c 0,-21 -14,-23 -32,-22 -14,0 -37,0 -49,4 -2,12 8,12 2,18 z"
   id="path227"
   style="fill:#ffb901" />

   <path
   class="fil14"
   d="m 3228,1568 13,4 c 9,1 24,-3 33,-5 l -33,-18 -21,-11 c -1,-12 9,-24 13,-36 l -3,-1 c -11,13 -26,35 -28,52 z"
   id="path229"
   style="fill:#0486b9" />

   <path
   class="fil20"
   d="m 3649,1529 19,14 c 20,5 41,28 57,31 2,-1 13,-10 14,-11 -3,-9 -6,-9 -13,-16 -9,-8 -6,-7 -4,-19 l -6,6 -47,-25 c -7,5 -11,1 -21,-1 16,13 59,23 70,41 -16,10 -50,-16 -69,-20 z"
   id="path231"
   style="fill:#fbe359" />

   <path
   class="fil10"
   d="m 3747,1545 c -1,17 5,14 14,26 26,12 11,27 43,14 14,-10 41,-22 44,-40 l -17,9 c -17,14 -36,35 -50,11 l -27,-25 z"
   id="path233"
   style="fill:#e77616" />

   <path
   class="fil21"
   d="m 3384,1610 c 6,6 27,13 36,14 17,-5 8,-3 26,-3 l 11,-20 -35,-17 7,11 c -5,2 -6,1 -11,3 -10,6 -7,11 -34,12 z"
   id="path235"
   style="fill:#4bd0ef" />

   <path
   class="fil22"
   d="m 3264,1697 6,4 c 16,8 10,12 28,9 10,-2 26,-3 31,-12 v -11 l -37,-19 c 7,14 7,3 12,13 -5,4 -20,11 -27,12 l -1,5 z"
   id="path237"
   style="fill:#67d9f4" />

   <path
   class="fil8"
   d="m 3786,1504 c -3,10 -14,23 -21,31 l 8,4 c 10,-6 19,-10 30,-8 12,3 2,3 13,0 13,-3 8,2 11,0 l -3,-10 -1,-5 c -10,-3 -19,-11 -23,-20 -8,0 -9,2 -14,8 z"
   id="path239"
   style="fill:#fdcc0b" />

   <path
   class="fil6"
   d="m 3491,1575 -6,-3 c 7,11 25,48 41,45 34,-6 19,-27 17,-33 -5,-10 -8,-17 -16,-24 3,10 10,20 1,26 0,0 -21,9 -22,9 -8,-6 -13,-10 -15,-20 z"
   id="path241"
   style="fill:#89e4f8" />

   <path
   class="fil13"
   d="m 3218,1641 8,13 9,-4 -5,8 c -4,10 -9,17 -9,27 l 40,20 c 8,0 2,4 9,-4 l -6,-4 -15,-10 c -12,-1 -23,-9 -13,-20 l 8,-21 20,10 8,2 c -9,-12 -15,-4 -18,-17 12,-5 19,-1 32,-10 -20,2 -50,12 -68,10 z"
   id="path243"
   style="fill:#b7eaf9" />

   <path
   class="fil22"
   d="m 3420,1624 27,15 c 3,-5 -1,-1 8,-5 8,-4 9,-7 15,-10 6,-3 25,3 37,1 l -1,-8 -5,4 c -17,-8 -15,-5 -28,-19 l -3,3 -13,-4 -11,20 c -18,0 -9,-2 -26,3 z"
   id="path245"
   style="fill:#67d9f4" />

   <path
   class="fil23"
   d="m 3862,1842 9,-10 10,4 c 3,-11 -1,-4 5,-9 l 23,10 c -13,-15 -40,-12 -33,-34 9,-1 25,11 35,14 2,-11 -21,-11 -24,-31 -2,-10 -6,-21 -3,-30 h 10 l -9,-6 c -18,11 -14,56 -11,73 -7,8 -10,8 -12,19 z"
   id="path247"
   style="fill:#fbd888" />

   <path
   class="fil20"
   d="m 3774,1548 11,16 -4,1 c 14,24 33,3 50,-11 l 1,-11 c -15,-7 -32,3 -44,10 z"
   id="path249"
   style="fill:#fbe359" />

   <path
   class="fil24"
   d="m 3765,1535 9,13 14,5 c 12,-7 29,-17 44,-10 l -1,11 17,-9 -4,-10 -20,-14 3,10 c -3,2 2,-3 -11,0 -11,3 -1,3 -13,0 -11,-2 -20,2 -30,8 z"
   id="path251"
   style="fill:#fad837" />

   <path
   class="fil23"
   d="m 3669,1487 c 11,11 25,19 39,24 l -2,-7 -21,-14 c -1,-8 3,-45 6,-53 11,-3 22,6 32,10 -7,-10 -22,-18 -34,-17 -11,8 -20,44 -20,57 z"
   id="path253"
   style="fill:#fbd888" />

   <path
   class="fil10"
   d="m 3669,1509 47,25 6,-6 1,-2 -2,-7 -13,-8 c -14,-5 -28,-13 -39,-24 0,9 -3,14 0,22 z"
   id="path255"
   style="fill:#e77616" />

   <path
   class="fil25"
   d="m 3355,1606 18,8 11,-4 c 27,-1 24,-6 34,-12 5,-2 6,-1 11,-3 l -7,-11 -23,-12 8,10 c -1,2 -16,17 -18,18 -18,11 -26,-9 -34,6 z"
   id="path257"
   style="fill:#30cfef" />

   <path
   class="fil21"
   d="m 3509,1534 v 14 c -10,8 -21,13 -33,8 l 9,16 6,3 8,4 c 6,-4 2,-3 11,-7 3,-1 7,-2 9,-2 4,-16 0,-16 -4,-29 -2,-10 -7,-16 -14,-22 z"
   id="path259"
   style="fill:#4bd0ef" />

   <path
   class="fil13"
   d="m 3658,1873 4,-5 c -11,-29 -33,-55 -45,-81 l -17,-20 -4,3 z"
   id="path261"
   style="fill:#b7eaf9" />

   <path
   class="fil14"
   d="m 3252,1488 c 8,6 9,8 11,17 l 30,16 -4,-13 -17,-34 -5,-5 c -9,5 -13,9 -15,19 z"
   id="path263"
   style="fill:#0486b9" />

   <path
   class="fil16"
   d="m 3460,1397 9,17 c 7,11 20,34 29,42 l 2,-1 c -4,-15 -30,-51 -29,-61 9,-2 22,-3 31,-5 17,-4 14,2 25,11 -6,-21 -13,-20 -32,-15 -10,3 -11,2 -20,3 -10,1 -5,3 -15,9 z"
   id="path265"
   style="fill:#fdf4b7" />

   <path
   class="fil11"
   d="m 3524,1742 c -6,19 -26,98 -34,108 l -4,-4 -11,12 c 35,-8 26,-24 38,-53 4,-19 21,-60 15,-76 z"
   id="path267"
   style="fill:#98f6ff" />

   <path
   class="fil13"
   d="m 3234,1744 c 1,9 20,45 26,52 16,0 31,-10 49,-9 -10,-10 -11,-7 -25,-4 -9,3 -11,2 -20,2 -4,-5 -11,-20 -14,-26 -7,-15 -8,-10 -17,-20 z"
   id="path269"
   style="fill:#b7eaf9" />

   <path
   class="fil22"
   d="m 3491,1575 c 2,10 7,14 15,20 1,0 22,-9 22,-9 9,-6 2,-16 -1,-26 -1,-7 -6,-15 -12,-19 4,13 8,13 4,29 -2,0 -6,1 -9,2 -9,4 -5,3 -11,7 z"
   id="path271"
   style="fill:#67d9f4" />

   <path
   class="fil23"
   d="m 3854,1689 2,-13 20,41 c 1,-14 -5,-30 -2,-41 16,-4 59,-5 74,2 l -3,-9 c -7,-1 -89,2 -92,3 -4,9 -4,9 1,17 z"
   id="path273"
   style="fill:#fbd888" />

   <path
   class="fil25"
   d="m 3236,1667 c -10,11 1,19 13,20 10,0 10,2 19,-4 13,-9 11,-3 20,-9 -5,-9 -5,0 -11,-12 l -5,-4 -8,-2 4,8 c -9,8 -31,24 -32,3 z"
   id="path275"
   style="fill:#30cfef" />

   <path
   class="fil7"
   d="m 3830,1886 8,10 c 0,-10 -1,-5 5,-7 -5,-9 -5,-11 0,-20 l 34,29 11,11 c 7,0 5,1 5,-6 -7,-4 -15,-13 -21,-19 -10,-9 -17,-14 -16,-28 -3,3 -5,6 -7,7 -7,5 -5,0 -10,5 -2,3 -4,12 -9,18 z"
   id="path277"
   style="fill:#feeda3" />

   <path
   class="fil7"
   d="m 3782,1906 4,8 17,28 21,33 4,1 -1,-5 -34,-64 21,-16 c -13,3 -19,4 -26,15 z"
   id="path279"
   style="fill:#feeda3" />

   <path
   class="fil14"
   d="m 3362,1422 8,11 c 8,3 18,11 26,11 l -2,-8 -14,-27 -5,-3 c -9,4 -11,7 -13,16 z"
   id="path281"
   style="fill:#0486b9" />

   <path
   class="fil21"
   d="m 3249,1687 15,10 12,1 1,-5 c 7,-1 22,-8 27,-12 -5,-10 -5,1 -12,-13 l -15,-6 c 6,12 6,3 11,12 -9,6 -7,0 -20,9 -9,6 -9,4 -19,4 z"
   id="path283"
   style="fill:#4bd0ef" />

   <path
   class="fil20"
   d="m 3514,1500 c 20,1 25,36 40,48 2,-5 -2,-3 6,-4 -6,-11 -30,-39 -31,-48 15,-8 37,-3 53,-3 -16,-8 -37,-4 -55,-3 -9,3 -9,2 -13,10 z"
   id="path285"
   style="fill:#fbe359" />

   <path
   class="fil19"
   d="m 3438,1411 38,65 13,6 c -8,-22 -36,-50 -42,-71 l -4,-3 -1,-9 z"
   id="path287"
   style="fill:#fcf7d6" />

   <path
   class="fil15"
   d="m 3843,1889 18,15 17,5 -1,-11 -34,-29 c -5,9 -5,11 0,20 z"
   id="path289"
   style="fill:#f09411" />

   <path
   class="fil11"
   d="m 3659,2018 5,-3 c -13,-27 8,-67 5,-97 -5,10 -19,82 -19,94 z"
   id="path291"
   style="fill:#98f6ff" />

   <path
   class="fil6"
   d="m 3321,1790 -6,8 c -1,16 -14,30 -14,46 6,6 29,16 36,18 l 2,-2 c -9,-6 -23,-14 -28,-23 l 12,-47 z"
   id="path293"
   style="fill:#89e4f8" />

   <path
   class="fil5"
   d="m 3236,1667 c 1,21 23,5 32,-3 l -4,-8 -20,-10 z"
   id="path295"
   style="fill:#08c6e8" />

   <path
   class="fil25"
   d="m 3473,1551 3,5 c 12,5 23,0 33,-8 v -14 c -12,0 -12,-6 -19,3 -9,10 -3,8 -17,14 z"
   id="path297"
   style="fill:#30cfef" />

   <path
   class="fil7"
   d="m 3702,1784 38,58 5,6 1,-5 c -9,-15 -28,-56 -38,-65 z"
   id="path299"
   style="fill:#feeda3" />

   <path
   class="fil13"
   d="m 3230,1501 3,1 c -4,12 -14,24 -13,36 l 21,11 c 7,0 5,2 4,-5 l -16,-10 c 2,-7 12,-35 15,-39 -8,-4 -10,-1 -14,6 z"
   id="path301"
   style="fill:#b7eaf9" />

   <path
   class="fil22"
   d="m 3574,2013 3,-2 c -4,-12 -24,-64 -32,-72 l -5,4 z"
   id="path303"
   style="fill:#67d9f4" />

   <path
   class="fil13"
   d="m 3332,1426 3,3 c -4,9 -8,13 -8,23 l 15,9 h 6 l -12,-11 c 0,-11 2,-14 9,-21 11,-1 17,6 25,4 l -8,-11 -4,4 -21,-4 z"
   id="path305"
   style="fill:#b7eaf9" />

   <path
   class="fil15"
   d="m 3785,1940 c 7,1 15,5 14,10 l 4,-8 -17,-28 -14,3 c 2,10 6,16 13,23 z"
   id="path307"
   style="fill:#f09411" />

   <path
   class="fil16"
   d="m 3754,1540 27,25 4,-1 -11,-16 -9,-13 c 7,-8 18,-21 21,-31 -13,5 -22,23 -27,35 z"
   id="path309"
   style="fill:#fdf4b7" />

   <path
   class="fil13"
   d="m 3376,1891 24,49 9,1 c -7,-16 -19,-33 -21,-51 l -6,6 z"
   id="path311"
   style="fill:#b7eaf9" />

   <path
   class="fil13"
   d="m 3463,1947 c -3,12 -9,24 -9,36 l 13,7 4,-2 -8,-8 c -1,-14 7,-33 10,-48 l -4,-5 z"
   id="path313"
   style="fill:#b7eaf9" />

   <path
   class="fil20"
   d="m 3593,1571 c 8,7 7,7 1,16 l -15,-13 13,18 c 10,5 9,9 18,8 l 1,-9 -9,-20 -9,-8 z"
   id="path315"
   style="fill:#fbe359" />

   <path
   class="fil11"
   d="m 3757,2034 3,-4 c -11,-22 -21,-38 -37,-57 l -2,1 z"
   id="path317"
   style="fill:#98f6ff" />

   <path
   class="fil11"
   d="m 3216,1585 c 2,10 14,34 22,40 l 1,-5 -14,-37 z"
   id="path319"
   style="fill:#98f6ff" />

   <path
   class="fil11"
   d="m 3272,1474 17,34 4,-5 c -5,-15 -11,-19 -9,-35 z"
   id="path321"
   style="fill:#98f6ff" />

   <path
   class="fil7"
   d="m 3554,1548 c 4,9 13,23 20,29 l 3,-5 -4,-9 -13,-19 c -8,1 -4,-1 -6,4 z"
   id="path323"
   style="fill:#feeda3" />

   <path
   class="fil26"
   d="m 3706,1504 2,7 13,8 2,7 c 7,-8 13,-21 15,-31 -10,8 -5,11 -14,19 -8,-3 -3,-2 -8,-9 z"
   id="path325"
   style="fill:#f0cd4d" />

   <path
   class="fil24"
   d="m 3573,1563 4,9 2,2 15,13 c 6,-9 7,-9 -1,-16 -11,-5 -7,-4 -20,-8 z"
   id="path327"
   style="fill:#fad837" />

   <path
   class="fil26"
   d="m 3824,1975 20,30 8,-2 3,-4 c -17,0 -15,-19 -28,-28 l 1,5 z"
   id="path329"
   style="fill:#f0cd4d" />

   <path
   class="fil19"
   d="m 3649,1505 -1,3 c 10,2 14,6 21,1 -3,-8 0,-13 0,-22 -11,9 -6,15 -20,18 z"
   id="path331"
   style="fill:#fcf7d6" />

   <path
   class="fil13"
   d="m 3340,1501 -1,-12 12,2 c -7,-8 -8,-8 -18,-13 l -5,2 c 2,9 5,15 12,21 z"
   id="path333"
   style="fill:#b7eaf9" />

   <path
   class="fil26"
   d="m 3887,1786 -1,-25 c 13,-3 19,4 32,6 -5,-8 -15,-11 -24,-11 h -10 c -3,9 1,20 3,30 z"
   id="path335"
   style="fill:#f0cd4d" />

   <path
   class="fil27"
   d="m 3387,1405 c 2,9 5,17 13,24 l -6,-19 c 11,-7 11,0 19,-10 z"
   id="path337"
   style="fill:#27b8d8" />

   <path
   class="fil22"
   d="m 3241,1549 33,18 6,-1 -35,-22 c 1,7 3,5 -4,5 z"
   id="path339"
   style="fill:#67d9f4" />

   <path
   class="fil24"
   d="m 3759,1866 c 0,-12 -3,-16 -13,-23 l -1,5 -5,-6 c 4,9 9,22 19,24 z"
   id="path341"
   style="fill:#fad837" />

   <path
   class="fil11"
   d="m 3380,1409 14,27 6,-7 c -8,-7 -11,-15 -13,-24 z"
   id="path343"
   style="fill:#98f6ff" />

   <path
   class="fil28"
   d="m 3442,1399 1,9 4,3 c -2,-9 -3,-9 6,-15 10,5 7,11 16,18 l -9,-17 -7,-8 z"
   id="path345"
   style="fill:#eeb26f" />

   <path
   class="fil20"
   d="m 3888,1909 21,17 c -1,-9 -8,-18 -16,-23 0,7 2,6 -5,6 z"
   id="path347"
   style="fill:#fbe359" />

   <path
   id="polygon349"
   style="fill:#b7eaf9"
   class="fil13"
   d="m 3245,1578 -4,-6 -13,-4 4,6 -7,10 z" />

   <path
   class="fil13"
   d="m 3244,1495 c 6,7 11,9 19,10 -2,-9 -3,-11 -11,-17 l 1,6 z"
   id="path351"
   style="fill:#b7eaf9" />

   <path
   class="fil16"
   d="m 3824,1521 20,14 c -3,-9 -11,-18 -21,-19 z"
   id="path353"
   style="fill:#fdf4b7" />

   <path
   class="fil9"
   d="m 3823,1516 c -4,-7 -16,-17 -23,-20 4,9 13,17 23,20 z"
   id="path355"
   style="fill:#fde678" />

   <path
   id="polygon357"
   style="fill:#ea964d"
   class="fil29"
   d="m 3772,1917 14,-3 -4,-8 -7,1 z" />

   <path
   class="fil30"
   d="m 3226,1654 -1,3 c 8,-4 3,-2 5,1 l 5,-8 z"
   id="path359"
   style="fill:#6fb0ce" />

  </g>
      <g
         aria-label="R"
         id="text362"
         style="font-size:11.2199px;font-family:Arial;clip-rule:evenodd;fill:#373435;fill-rule:evenodd;stroke-width:0.0665077;image-rendering:optimizeQuality;shape-rendering:geometricPrecision;text-rendering:geometricPrecision"
         class="fil31 fnt0">
        <path
           d="m 27.956146,116.8501 -2.005119,-3.20491 H 23.54598 v 3.20491 h -1.046387 v -7.71916 h 3.632223 q 1.303875,0 2.010598,0.58619 0.7122,0.58072 0.7122,1.62163 0,0.86012 -0.504019,1.44632 -0.49854,0.58619 -1.380573,0.73959 l 2.191386,3.32543 z m -0.153397,-5.50038 q 0,-0.67385 -0.460192,-1.02448 -0.454712,-0.3561 -1.314832,-0.3561 H 23.54598 v 2.84881 h 2.525573 q 0.827249,0 1.276483,-0.3835 0.454713,-0.38897 0.454713,-1.08473 z"
           id="path2981" />
      </g>
      <g
         aria-label="E"
         id="text364"
         style="font-size:11.2199px;font-family:Arial;clip-rule:evenodd;fill:#373435;fill-rule:evenodd;stroke-width:0.0665077;image-rendering:optimizeQuality;shape-rendering:geometricPrecision;text-rendering:geometricPrecision"
         class="fil31 fnt0">
        <path
           d="m 37.264316,116.8501 v -7.71916 h 5.856481 v 0.85464 h -4.810094 v 2.47627 h 4.481386 v 0.84368 h -4.481386 v 2.68993 h 5.034711 v 0.85464 z"
           id="path2984" />
      </g>
      <g
         aria-label="F"
         id="text366"
         style="font-size:11.2199px;font-family:Arial;clip-rule:evenodd;fill:#373435;fill-rule:evenodd;stroke-width:0.0665077;image-rendering:optimizeQuality;shape-rendering:geometricPrecision;text-rendering:geometricPrecision"
         class="fil31 fnt0">
        <path
           d="m 52.476776,109.98558 v 2.87072 h 4.306075 v 0.86559 h -4.306075 v 3.12821 h -1.046388 v -7.71916 h 5.483946 v 0.85464 z"
           id="path2987" />
      </g>
      <g
         aria-label="R"
         id="text368"
         style="font-size:11.2199px;font-family:Arial;clip-rule:evenodd;fill:#373435;fill-rule:evenodd;stroke-width:0.0665077;image-rendering:optimizeQuality;shape-rendering:geometricPrecision;text-rendering:geometricPrecision"
         class="fil31 fnt0">
        <path
           d="m 70.454572,116.8501 -2.005119,-3.20491 h -2.405047 v 3.20491 h -1.046387 v -7.71916 h 3.632224 q 1.303875,0 2.010597,0.58619 0.712201,0.58072 0.712201,1.62163 0,0.86012 -0.504019,1.44632 -0.498541,0.58619 -1.380574,0.73959 l 2.191387,3.32543 z m -0.153397,-5.50038 q 0,-0.67385 -0.460191,-1.02448 -0.454713,-0.3561 -1.314832,-0.3561 h -2.481746 v 2.84881 h 2.525574 q 0.827248,0 1.276482,-0.3835 0.454713,-0.38897 0.454713,-1.08473 z"
           id="path2990" />
      </g>
      <g
         aria-label="I"
         id="text370"
         style="font-size:11.2199px;font-family:Arial;clip-rule:evenodd;fill:#373435;fill-rule:evenodd;stroke-width:0.0665077;image-rendering:optimizeQuality;shape-rendering:geometricPrecision;text-rendering:geometricPrecision"
         class="fil31 fnt0">
        <path
           d="m 79.877792,116.8501 v -7.71916 h 1.046387 v 7.71916 z"
           id="path2993" />
      </g>
      <g
         aria-label="G"
         id="text372"
         style="font-size:11.2199px;font-family:Arial;clip-rule:evenodd;fill:#373435;fill-rule:evenodd;stroke-width:0.0665077;image-rendering:optimizeQuality;shape-rendering:geometricPrecision;text-rendering:geometricPrecision"
         class="fil31 fnt0">
        <path
           d="m 89.183285,112.95491 q 0,-1.87912 1.008038,-2.90907 1.008038,-1.02995 2.832368,-1.02995 1.281961,0 2.081817,0.4328 0.799856,0.4328 1.232655,1.38605 l -0.997081,0.29584 q -0.328708,-0.65742 -0.909425,-0.95873 -0.575239,-0.30132 -1.435359,-0.30132 -1.336746,0 -2.043468,0.81081 -0.706722,0.80534 -0.706722,2.27357 0,1.46275 0.75055,2.31191 0.75055,0.84368 2.076339,0.84368 0.756028,0 1.407966,-0.23009 0.657416,-0.2301 1.062822,-0.62455 v -1.39153 h -2.306434 v -0.87655 h 3.270645 v 2.66253 q -0.613589,0.62455 -1.506579,0.96969 -0.887511,0.33967 -1.92842,0.33967 -1.210741,0 -2.087296,-0.48211 -0.876555,-0.4821 -1.342224,-1.38605 -0.460192,-0.90943 -0.460192,-2.1366 z"
           id="path2996" />
      </g>
      <g
         aria-label="E"
         id="text374"
         style="font-size:11.2199px;font-family:Arial;clip-rule:evenodd;fill:#373435;fill-rule:evenodd;stroke-width:0.0665077;image-rendering:optimizeQuality;shape-rendering:geometricPrecision;text-rendering:geometricPrecision"
         class="fil31 fnt0">
        <path
           d="m 104.90265,116.8501 v -7.71916 h 5.85648 v 0.85464 h -4.81009 v 2.47627 h 4.48138 v 0.84368 h -4.48138 v 2.68993 h 5.03471 v 0.85464 z"
           id="path2999" />
      </g>
      <g
         aria-label="R"
         id="text376"
         style="font-size:11.2199px;font-family:Arial;clip-rule:evenodd;fill:#373435;fill-rule:evenodd;stroke-width:0.0665077;image-rendering:optimizeQuality;shape-rendering:geometricPrecision;text-rendering:geometricPrecision"
         class="fil31 fnt0">
        <path
           d="m 124.52529,116.8501 -2.00512,-3.20491 h -2.40505 v 3.20491 h -1.04638 v -7.71916 h 3.63222 q 1.30387,0 2.0106,0.58619 0.7122,0.58072 0.7122,1.62163 0,0.86012 -0.50402,1.44632 -0.49854,0.58619 -1.38058,0.73959 l 2.19139,3.32543 z m -0.1534,-5.50038 q 0,-0.67385 -0.46019,-1.02448 -0.45471,-0.3561 -1.31483,-0.3561 h -2.48175 v 2.84881 h 2.52558 q 0.82724,0 1.27648,-0.3835 0.45471,-0.38897 0.45471,-1.08473 z"
           id="path3002" />
      </g>
      <g
         aria-label="A"
         id="text378"
         style="font-size:11.2199px;font-family:Arial;clip-rule:evenodd;fill:#373435;fill-rule:evenodd;stroke-width:0.0665077;image-rendering:optimizeQuality;shape-rendering:geometricPrecision;text-rendering:geometricPrecision"
         class="fil31 fnt0">
        <path
           d="m 139.30644,116.8501 -0.88203,-2.25713 h -3.51718 l -0.88751,2.25713 h -1.08474 l 3.15012,-7.71916 h 1.18883 l 3.10081,7.71916 z m -2.64062,-6.93026 -0.0493,0.15339 q -0.13696,0.45472 -0.4054,1.16692 l -0.98613,2.53653 h 2.88716 l -0.99161,-2.54749 q -0.15339,-0.37801 -0.30679,-0.85464 z"
           id="path3005" />
      </g>
      <g
         aria-label="C"
         id="text380"
         style="font-size:11.2199px;font-family:Arial;clip-rule:evenodd;fill:#373435;fill-rule:evenodd;stroke-width:0.0665077;image-rendering:optimizeQuality;shape-rendering:geometricPrecision;text-rendering:geometricPrecision"
         class="fil31 fnt0">
        <path
           d="m 151.41818,109.87053 q -1.28196,0 -1.99416,0.82725 -0.7122,0.82177 -0.7122,2.25713 0,1.41892 0.7396,2.28452 0.74507,0.86012 2.01059,0.86012 1.62163,0 2.43792,-1.60519 l 0.85464,0.42732 q -0.47663,0.99708 -1.34222,1.51753 -0.86012,0.52046 -1.99964,0.52046 -1.16692,0 -2.02156,-0.48211 -0.84916,-0.48758 -1.29839,-1.38605 -0.44376,-0.90395 -0.44376,-2.1366 0,-1.84625 0.99708,-2.89263 0.99708,-1.04639 2.76115,-1.04639 1.23265,0 2.0599,0.48211 0.82725,0.4821 1.21622,1.42987 l -0.9916,0.32871 q -0.26845,-0.67385 -0.8656,-1.02995 -0.59167,-0.3561 -1.40797,-0.3561 z"
           id="path3008" />
      </g>
      <g
         aria-label="I"
         id="text382"
         style="font-size:11.2199px;font-family:Arial;clip-rule:evenodd;fill:#373435;fill-rule:evenodd;stroke-width:0.0665077;image-rendering:optimizeQuality;shape-rendering:geometricPrecision;text-rendering:geometricPrecision"
         class="fil31 fnt0">
        <path
           d="m 162.87939,116.8501 v -7.71916 h 1.04639 v 7.71916 z"
           id="path3011" />
      </g>
      <g
         aria-label="Ó"
         id="text384"
         style="font-size:11.2199px;font-family:Arial;clip-rule:evenodd;fill:#373435;fill-rule:evenodd;stroke-width:0.0665077;image-rendering:optimizeQuality;shape-rendering:geometricPrecision;text-rendering:geometricPrecision"
         class="fil31 fnt0">
        <path
           d="m 179.81091,112.95491 q 0,1.21074 -0.46567,2.12016 -0.46019,0.90943 -1.32579,1.39701 -0.86559,0.48759 -2.04346,0.48759 -1.18883,0 -2.05443,-0.48211 -0.86012,-0.4821 -1.31483,-1.39153 -0.45471,-0.9149 -0.45471,-2.13112 0,-1.85172 1.01351,-2.89263 1.01352,-1.04639 2.82141,-1.04639 1.17787,0 2.04347,0.47115 0.8656,0.46567 1.32031,1.35866 0.46019,0.89299 0.46019,2.10921 z m -1.0683,0 q 0,-1.44084 -0.72316,-2.26261 -0.71767,-0.82177 -2.03251,-0.82177 -1.32579,0 -2.04894,0.81081 -0.72316,0.81082 -0.72316,2.27357 0,1.45179 0.72864,2.30643 0.73411,0.84916 2.03251,0.84916 1.33674,0 2.04894,-0.82177 0.71768,-0.82724 0.71768,-2.33382 z m -3.71988,-4.48687 v -0.10957 l 1.18883,-1.23813 h 1.13404 v 0.15888 l -1.69832,1.18882 z"
           id="path3014" />
      </g>
      <g
         aria-label="N"
         id="text386"
         style="font-size:11.2199px;font-family:Arial;clip-rule:evenodd;fill:#373435;fill-rule:evenodd;stroke-width:0.0665077;image-rendering:optimizeQuality;shape-rendering:geometricPrecision;text-rendering:geometricPrecision"
         class="fil31 fnt0">
        <path
           d="m 192.97806,116.8501 -4.13077,-6.57416 0.0274,0.53141 0.0274,0.9149 v 5.12785 h -0.93134 v -7.71916 h 1.21622 l 4.17459,6.61799 q -0.0657,-1.07378 -0.0657,-1.55589 v -5.0621 h 0.94229 v 7.71916 z"
           id="path3017" />
      </g>
      <g
         aria-label="M"
         id="text388"
         style="font-size:11.2199px;font-family:Arial;clip-rule:evenodd;fill:#373435;fill-rule:evenodd;stroke-width:0.0665077;image-rendering:optimizeQuality;shape-rendering:geometricPrecision;text-rendering:geometricPrecision"
         class="fil31 fnt0">
        <path
           d="m 29.062796,129.35353 v -5.14976 q 0,-0.85464 0.04931,-1.64354 -0.268445,0.98065 -0.482105,1.53397 l -1.994162,5.25933 h -0.734114 l -2.021555,-5.25933 -0.306794,-0.93134 -0.180789,-0.60263 0.01644,0.60811 0.02191,1.03543 v 5.14976 h -0.931339 v -7.71916 h 1.375095 l 2.054425,5.35246 q 0.109569,0.32323 0.208182,0.69577 0.104091,0.36706 0.136961,0.53141 0.04383,-0.21914 0.18079,-0.66289 0.14244,-0.44924 0.191746,-0.56429 l 2.016076,-5.35246 h 1.342224 v 7.71916 z"
           id="path3020" />
      </g>
      <g
         aria-label="a"
         id="text390"
         style="font-size:11.2199px;font-family:Arial;clip-rule:evenodd;fill:#373435;fill-rule:evenodd;stroke-width:0.0665077;image-rendering:optimizeQuality;shape-rendering:geometricPrecision;text-rendering:geometricPrecision"
         class="fil31 fnt0">
        <path
           d="m 44.797188,129.4631 q -0.89299,0 -1.342225,-0.47115 -0.449234,-0.47115 -0.449234,-1.29292 0,-0.92038 0.602631,-1.41344 0.60811,-0.49306 1.955813,-0.52593 l 1.331267,-0.0219 v -0.32323 q 0,-0.72315 -0.306794,-1.03543 -0.306794,-0.31227 -0.96421,-0.31227 -0.662894,0 -0.96421,0.22462 -0.301316,0.22461 -0.361579,0.71768 l -1.029952,-0.0931 q 0.25201,-1.59971 2.377655,-1.59971 1.117607,0 1.681889,0.51498 0.564282,0.50949 0.564282,1.47918 v 2.55297 q 0,0.43828 0.115048,0.66289 0.115048,0.21914 0.438278,0.21914 0.14244,0 0.323229,-0.0384 v 0.61359 q -0.372536,0.0877 -0.761507,0.0877 -0.547846,0 -0.799856,-0.28488 -0.246531,-0.29036 -0.279402,-0.90395 h -0.03287 q -0.378014,0.67933 -0.882033,0.96421 -0.49854,0.2794 -1.216219,0.2794 z m 0.224617,-0.73959 q 0.542368,0 0.96421,-0.24653 0.421842,-0.24653 0.662894,-0.67386 0.246531,-0.43279 0.246531,-0.88751 v -0.48758 l -1.079258,0.0219 q -0.695765,0.011 -1.057344,0.14244 -0.3561,0.13149 -0.547846,0.40541 -0.191747,0.27392 -0.191747,0.71768 0,0.4821 0.257488,0.74507 0.262967,0.26297 0.745072,0.26297 z"
           id="path3023" />
      </g>
      <g
         aria-label="t"
         id="text392"
         style="font-size:11.2199px;font-family:Arial;clip-rule:evenodd;fill:#373435;fill-rule:evenodd;stroke-width:0.0665077;image-rendering:optimizeQuality;shape-rendering:geometricPrecision;text-rendering:geometricPrecision"
         class="fil31 fnt0">
        <path
           d="m 63.321718,129.3097 q -0.487583,0.13149 -0.997081,0.13149 -1.183348,0 -1.183348,-1.34223 v -3.95545 H 60.45648 v -0.71768 h 0.723158 l 0.290359,-1.32579 h 0.657416 v 1.32579 h 1.095693 v 0.71768 h -1.095693 v 3.74179 q 0,0.42732 0.136961,0.60263 0.14244,0.16984 0.487584,0.16984 0.197225,0 0.56976,-0.0767 z"
           id="path3026" />
      </g>
      <g
         aria-label="r"
         id="text394"
         style="font-size:11.2199px;font-family:Arial;clip-rule:evenodd;fill:#373435;fill-rule:evenodd;stroke-width:0.0665077;image-rendering:optimizeQuality;shape-rendering:geometricPrecision;text-rendering:geometricPrecision"
         class="fil31 fnt0">
        <path
           d="m 75.762844,129.35353 v -4.54713 q 0,-0.62454 -0.03287,-1.38057 h 0.931339 q 0.04383,1.00804 0.04383,1.21074 h 0.02191 q 0.235574,-0.76151 0.542368,-1.04091 0.306794,-0.2794 0.865598,-0.2794 0.197225,0 0.399928,0.0548 v 0.90394 q -0.197225,-0.0548 -0.525933,-0.0548 -0.613588,0 -0.936818,0.53141 -0.323229,0.52593 -0.323229,1.51206 v 3.08985 z"
           id="path3029" />
      </g>
      <g
         aria-label="i"
         id="text396"
         style="font-size:11.2199px;font-family:Arial;clip-rule:evenodd;fill:#373435;fill-rule:evenodd;stroke-width:0.0665077;image-rendering:optimizeQuality;shape-rendering:geometricPrecision;text-rendering:geometricPrecision"
         class="fil31 fnt0">
        <path
           d="m 91.032242,122.16578 v -0.94229 h 0.986124 v 0.94229 z m 0,7.18775 v -5.9277 h 0.986124 v 5.9277 z"
           id="path3032" />
      </g>
      <g
         aria-label="c"
         id="text398"
         style="font-size:11.2199px;font-family:Arial;clip-rule:evenodd;fill:#373435;fill-rule:evenodd;stroke-width:0.0665077;image-rendering:optimizeQuality;shape-rendering:geometricPrecision;text-rendering:geometricPrecision"
         class="fil31 fnt0">
        <path
           d="m 105.82131,126.36229 q 0,1.18335 0.37253,1.75311 0.37254,0.56976 1.12309,0.56976 0.52593,0 0.87655,-0.28488 0.3561,-0.28488 0.43828,-0.87656 l 0.99708,0.0657 q -0.11505,0.85465 -0.72864,1.36414 -0.61358,0.5095 -1.55588,0.5095 -1.24361,0 -1.90103,-0.78342 -0.65194,-0.7889 -0.65194,-2.29548 0,-1.49562 0.65742,-2.27904 0.65742,-0.7889 1.88459,-0.7889 0.90943,0 1.50658,0.47115 0.60263,0.47115 0.75603,1.2984 l -1.01352,0.0767 q -0.0767,-0.49306 -0.38897,-0.78342 -0.31227,-0.29036 -0.88751,-0.29036 -0.78342,0 -1.13404,0.52046 -0.35062,0.52045 -0.35062,1.75311 z"
           id="path3035" />
      </g>
      <g
         aria-label="u"
         id="text400"
         style="font-size:11.2199px;font-family:Arial;clip-rule:evenodd;fill:#373435;fill-rule:evenodd;stroke-width:0.0665077;image-rendering:optimizeQuality;shape-rendering:geometricPrecision;text-rendering:geometricPrecision"
         class="fil31 fnt0">
        <path
           d="m 123.19397,123.42583 v 3.75823 q 0,0.58619 0.11505,0.90942 0.11505,0.32323 0.36706,0.46567 0.25201,0.14244 0.73959,0.14244 0.7122,0 1.12308,-0.48758 0.41089,-0.48758 0.41089,-1.35318 v -3.435 h 0.98612 v 4.66218 q 0,1.03543 0.0329,1.26552 h -0.93134 q -0.005,-0.0274 -0.0109,-0.14792 -0.005,-0.12052 -0.0164,-0.27392 -0.005,-0.15888 -0.0164,-0.59168 h -0.0164 q -0.33966,0.61359 -0.7889,0.87108 -0.44375,0.25201 -1.10665,0.25201 -0.97516,0 -1.42988,-0.4821 -0.44923,-0.48759 -0.44923,-1.6052 v -3.94997 z"
           id="path3038" />
      </g>
      <g
         aria-label="l"
         id="text402"
         style="font-size:11.2199px;font-family:Arial;clip-rule:evenodd;fill:#373435;fill-rule:evenodd;stroke-width:0.0665077;image-rendering:optimizeQuality;shape-rendering:geometricPrecision;text-rendering:geometricPrecision"
         class="fil31 fnt0">
        <path
           d="m 140.05388,129.35353 v -8.13004 H 141.04 v 8.13004 z"
           id="path3041" />
      </g>
      <g
         aria-label="a"
         id="text404"
         style="font-size:11.2199px;font-family:Arial;clip-rule:evenodd;fill:#373435;fill-rule:evenodd;stroke-width:0.0665077;image-rendering:optimizeQuality;shape-rendering:geometricPrecision;text-rendering:geometricPrecision"
         class="fil31 fnt0">
        <path
           d="m 155.59908,129.4631 q -0.89299,0 -1.34223,-0.47115 -0.44923,-0.47115 -0.44923,-1.29292 0,-0.92038 0.60263,-1.41344 0.60811,-0.49306 1.95581,-0.52593 l 1.33127,-0.0219 v -0.32323 q 0,-0.72315 -0.30679,-1.03543 -0.3068,-0.31227 -0.96421,-0.31227 -0.6629,0 -0.96421,0.22462 -0.30132,0.22461 -0.36158,0.71768 l -1.02995,-0.0931 q 0.25201,-1.59971 2.37765,-1.59971 1.11761,0 1.68189,0.51498 0.56428,0.50949 0.56428,1.47918 v 2.55297 q 0,0.43828 0.11505,0.66289 0.11505,0.21914 0.43828,0.21914 0.14244,0 0.32323,-0.0384 v 0.61359 q -0.37254,0.0877 -0.76151,0.0877 -0.54785,0 -0.79986,-0.28488 -0.24653,-0.29036 -0.2794,-0.90395 h -0.0329 q -0.37801,0.67933 -0.88203,0.96421 -0.49854,0.2794 -1.21622,0.2794 z m 0.22462,-0.73959 q 0.54236,0 0.96421,-0.24653 0.42184,-0.24653 0.66289,-0.67386 0.24653,-0.43279 0.24653,-0.88751 v -0.48758 l -1.07926,0.0219 q -0.69576,0.011 -1.05734,0.14244 -0.3561,0.13149 -0.54785,0.40541 -0.19174,0.27392 -0.19174,0.71768 0,0.4821 0.25748,0.74507 0.26297,0.26297 0.74508,0.26297 z"
           id="path3044" />
      </g>
      <g
         aria-label="d"
         id="text406"
         style="font-size:11.2199px;font-family:Arial;clip-rule:evenodd;fill:#373435;fill-rule:evenodd;stroke-width:0.0665077;image-rendering:optimizeQuality;shape-rendering:geometricPrecision;text-rendering:geometricPrecision"
         class="fil31 fnt0">
        <path
           d="m 175.58635,128.40028 q -0.27392,0.56976 -0.72863,0.81629 -0.44924,0.24653 -1.11761,0.24653 -1.12309,0 -1.6545,-0.75603 -0.52593,-0.75603 -0.52593,-2.29 0,-3.10081 2.18043,-3.10081 0.67385,0 1.12309,0.24653 0.44923,0.24653 0.72315,0.78342 h 0.011 l -0.011,-0.66289 v -2.45983 h 0.98613 v 6.90834 q 0,0.92586 0.0329,1.2217 h -0.9423 q -0.0164,-0.0876 -0.0384,-0.40541 -0.0164,-0.31775 -0.0164,-0.54784 z m -2.99124,-2.01608 q 0,1.24361 0.32871,1.7805 0.32871,0.53689 1.0683,0.53689 0.8382,0 1.21622,-0.58071 0.37801,-0.58072 0.37801,-1.80242 0,-1.17787 -0.37801,-1.72572 -0.37802,-0.54784 -1.20526,-0.54784 -0.74508,0 -1.07926,0.55332 -0.32871,0.54785 -0.32871,1.78598 z"
           id="path3047" />
      </g>
      <g
         aria-label="o"
         id="text408"
         style="font-size:11.2199px;font-family:Arial;clip-rule:evenodd;fill:#373435;fill-rule:evenodd;stroke-width:0.0665077;image-rendering:optimizeQuality;shape-rendering:geometricPrecision;text-rendering:geometricPrecision"
         class="fil31 fnt0">
        <path
           d="m 194.68138,126.3842 q 0,1.55589 -0.68481,2.31739 -0.68481,0.76151 -1.98868,0.76151 -1.2984,0 -1.9613,-0.7889 -0.66289,-0.79438 -0.66289,-2.29 0,-3.06794 2.65706,-3.06794 1.35866,0 1.99964,0.75055 0.64098,0.74507 0.64098,2.31739 z m -1.03543,0 q 0,-1.22717 -0.36706,-1.7805 -0.36158,-0.5588 -1.2217,-0.5588 -0.8656,0 -1.25457,0.56976 -0.38349,0.56428 -0.38349,1.76954 0,1.17239 0.37801,1.76407 0.3835,0.58619 1.19979,0.58619 0.88751,0 1.26552,-0.56976 0.3835,-0.56976 0.3835,-1.7805 z"
           id="path3050" />
      </g>
    </g>
  </g>
</svg>
