<?xml version="1.0" encoding="UTF-8" standalone="no"?>
<!-- Created with Inkscape (http://www.inkscape.org/) -->

<svg
   width="205.55968mm"
   height="48.222473mm"
   viewBox="0 0 205.55968 48.222473"
   version="1.1"
   id="svg5"
   xmlns="http://www.w3.org/2000/svg"
   xmlns:svg="http://www.w3.org/2000/svg">
  <defs
     id="defs2">
    <clipPath
       clipPathUnits="userSpaceOnUse"
       id="clipPath1192">
      <path
         id="path1194"
         style="fill:#ff0000;fill-opacity:1;fill-rule:nonzero;stroke:none;stroke-width:0.264583"
         d="M 5.0124667,82.381508 V 124.11395 H 76.164612 V 82.381508 Z m 6.4778993,13.987744 c 0.120865,0.0086 0.241856,0.0092 0.362915,0.0098 0.152368,2.08e-4 0.304975,-8.34e-4 0.457333,-0.0011 0.123533,-1.89e-4 0.246768,-5e-5 0.370292,0 0.117534,-0.0017 0.234755,-2.78e-4 0.352098,0.0071 0.07382,0.0082 0.148077,0.01332 0.222273,0.01412 0.210191,0.01418 0.420326,0.02811 0.630431,0.04399 0.302038,0.02066 0.603685,0.04091 0.906306,0.04616 0.192524,0.0038 0.386009,0.0033 0.577813,0.02497 0.04426,0.005 0.08864,0.01226 0.132774,0.01846 0.133499,0.01663 0.266702,0.03634 0.400781,0.0467 0.0026,2.03e-4 0.0052,1.67e-4 0.0079,5.56e-4 -0.003,-1.4e-5 -0.0056,5.6e-5 -0.0079,0 l 0.08655,1.982656 c -0.06946,0.0037 -0.139113,0.0036 -0.208504,-0.0022 -0.173566,-0.01432 -0.346547,-0.03672 -0.519294,-0.05974 -0.16489,-0.02869 -0.333291,-0.02038 -0.499624,-0.02552 -0.333807,-0.0063 -0.666592,-0.02766 -0.99974,-0.05105 -0.123646,-0.0094 -0.247565,-0.01905 -0.371275,-0.02716 -0.04406,-0.0028 -0.133434,-0.0062 -0.182442,-0.01196 0.0036,-1.89e-4 0.01524,-5.56e-4 0.02016,-5.56e-4 -0.11342,-0.0019 -0.226399,-0.0078 -0.339311,-0.0201 0.0068,-1.61e-4 0.02279,-1.7e-4 0.02803,-5.56e-4 -0.07894,-0.0046 -0.158518,0.0037 -0.237519,0 -0.122041,-3.9e-5 -0.244311,-1.86e-4 -0.366358,0 -0.156596,2.78e-4 -0.31303,0.0014 -0.469627,0.0011 -0.190413,-0.0011 -0.381337,-0.0028 -0.570928,-0.02444 z m -0.646167,5.175218 0.09491,0.0396 0.174574,-0.002 c 9.8e-5,0.014 1.58e-4,0.0278 0,0.0418 -1.91e-4,0.0121 -2.41e-4,0.0243 -9.82e-4,0.0364 -1.87e-4,0.003 -7.05e-4,0.006 -9.82e-4,0.009 -1.2e-5,5.5e-4 -2.11e-4,-8.4e-4 0,0.002 9.4e-5,0.0215 -1.02e-4,0.0432 -9.82e-4,0.0646 -8.56e-4,0.0141 -0.0021,0.0277 -0.0015,0.0418 -1.9e-4,0.0157 -4.03e-4,0.0315 -0.002,0.0472 -0.0026,10e-4 -4.79e-4,10e-4 -5.04e-4,0.009 -1.4e-5,0.0154 9.3e-5,0.0308 -5.03e-4,0.0462 -0.0011,0.0277 -0.0019,0.0554 -0.0034,0.0831 -2.77e-4,0.003 -0.0015,0.0203 -0.002,0.025 -7.9e-5,8.3e-4 -4.53e-4,0.001 -5.04e-4,0.002 -2.76e-4,0.005 1.39e-4,0.01 0,0.0152 1.34e-4,0.0183 -2.17e-4,0.0371 -4.78e-4,0.0554 -7.55e-4,0.0375 -0.0022,0.0749 -0.002,0.11242 v 0.16237 c 0.0025,0.0117 0.0045,0.0235 0.0064,0.0353 0.0016,0.01 0.0014,0.0202 0.002,0.0304 h 0.130807 v 0.019 c 2e-6,0.0303 -10e-7,0.0604 0,0.0907 0,0.0462 -3.53e-4,0.0928 -5.04e-4,0.13902 -4.1e-5,0.0174 -8.9e-5,0.0347 5.04e-4,0.0521 10e-4,0.0445 0.0025,0.0891 0.002,0.13359 9.5e-5,0.0404 4.78e-4,0.0807 0.002,0.1211 8.81e-4,0.0362 2.76e-4,0.0724 4.78e-4,0.10861 1.04e-4,0.0502 4.78e-4,0.10024 0,0.15042 -8.56e-4,0.0654 -0.0029,0.13116 -0.003,0.19658 v 0.14337 H 11.09397 c -5.54e-4,0.0181 -9.57e-4,0.0362 -0.0015,0.0543 -5.8e-4,0.0221 1.31e-4,0.0444 -0.0025,0.0662 -4.78e-4,0.005 -0.0017,0.01 -0.0025,0.0141 -0.0011,0.005 -0.0013,0.01 -0.003,0.0141 -0.03732,0.10397 -0.04476,0.0405 -0.219323,-0.0244 -0.0016,0.015 -0.0033,0.0305 -0.0049,0.0456 -0.0047,0.0398 -0.008,0.0796 -0.0118,0.11947 -0.0012,0.013 -0.0039,0.0399 -0.0064,0.0538 -9.56e-4,0.006 -0.0022,0.011 -0.0034,0.0163 2.6e-5,0.012 -6.7e-5,0.0239 0,0.0358 7e-5,0.009 5e-6,0.0185 0,0.0277 -1.3e-5,0.0266 10e-7,0.0533 0,0.0798 v 0.0489 0.012 H 10.60907 v -0.012 -0.0489 c 1e-6,-0.0266 -9e-6,-0.0532 0,-0.0798 4e-6,-0.009 6.7e-5,-0.0173 0,-0.0261 -1.65e-4,-0.0301 -3.02e-4,-0.0606 0,-0.0907 5.8e-4,-0.0471 0.0022,-0.0941 0.003,-0.14119 1e-6,-0.0192 -2e-6,-0.0389 0,-0.0581 -1.1e-5,-0.0109 -4.28e-4,-0.0217 -5.03e-4,-0.0326 -9.5e-5,-0.0272 1.14e-4,-0.0543 9.82e-4,-0.0815 2e-4,-0.005 7.55e-4,-0.0106 9.82e-4,-0.0157 1.95e-4,-0.005 4.02e-4,-0.009 5.03e-4,-0.013 1.06e-4,-0.006 5e-5,-0.0119 0,-0.0179 l -0.07868,0.0299 c -9.82e-4,-0.004 -0.002,-0.008 -0.003,-0.0119 -1.54e-4,-5.6e-4 -3.02e-4,-0.001 -5.03e-4,-0.002 -1.37e-4,-5.6e-4 -4.03e-4,-0.001 -5.04e-4,-0.002 -8.3e-5,-2.8e-4 8e-5,-8.4e-4 0,-10e-4 -5.7e-5,-2.7e-4 -4.28e-4,-8.3e-4 -5.03e-4,-0.001 -0.0011,-0.005 -0.0019,-0.009 -0.003,-0.0141 -0.0011,-0.01 -0.0021,-0.0187 -0.003,-0.0282 -7.3e-4,-0.008 1.49e-4,-0.0168 -5.04e-4,-0.025 -9.4e-5,-0.0175 2.39e-4,-0.0352 0.0015,-0.0527 9.5e-5,-0.002 8.81e-4,-0.0118 9.82e-4,-0.0147 2.52e-4,-0.007 -1.16e-4,-0.0149 0,-0.0223 -1.9e-4,-0.0155 -10e-4,-0.0312 -0.002,-0.0467 -1.9e-4,-0.0144 -0.0013,-0.0286 -0.0025,-0.0429 -1.9e-4,-0.0101 -0.0018,-0.0198 -0.0025,-0.0299 -0.0014,-0.0152 -0.0024,-0.0308 -0.002,-0.0462 3e-6,-0.0102 5e-6,-0.0202 0,-0.0304 -1.9e-5,-0.0197 -4.53e-4,-0.0395 -5.03e-4,-0.0592 0,-0.0275 -1.43e-4,-0.0551 0.0015,-0.0825 9.57e-4,-0.0171 0.0018,-0.034 0.0034,-0.051 1.04e-4,-0.0107 -2.06e-4,-0.0213 0,-0.032 9.5e-5,-0.0182 4.53e-4,-0.0367 0.002,-0.0548 0.0017,-0.003 1.44e-4,1.1e-4 5.03e-4,-0.009 5.8e-4,-0.0147 0.0016,-0.0294 0.003,-0.044 0.0012,-0.0139 7.56e-4,-0.0139 0.0025,-0.0277 4.78e-4,-0.004 0.0015,-0.008 0.002,-0.0119 7.55e-4,-0.007 10e-4,-0.0145 0.002,-0.0217 0.0017,-0.0169 0.0031,-0.0342 0.0054,-0.051 0.0018,-0.0199 0.0036,-0.04 0.0069,-0.0597 0.002,-0.0187 0.0036,-0.0373 0.0064,-0.0559 5.03e-4,-0.003 9.81e-4,-0.006 0.0015,-0.009 6.9e-5,-5.5e-4 4.28e-4,-5.5e-4 5.04e-4,-0.001 9.56e-4,-0.009 0.0015,-0.0175 0.0029,-0.026 9.07e-4,-0.004 -1.59e-4,-9e-5 9.82e-4,-0.009 4.79e-4,-0.004 0.0015,-0.008 0.002,-0.0125 v -5.5e-4 c 3.5e-5,-2.8e-4 -3.2e-5,-8.4e-4 0,-10e-4 4.1e-5,-0.001 -2.5e-5,-0.003 0,-0.004 1.43e-4,-0.009 9.32e-4,-0.0174 0.002,-0.0261 l -0.102777,0.004 c 7e-5,10e-4 -7.1e-5,0.002 0,0.004 -0.002,-0.0112 -0.0048,-0.0243 -0.0049,-0.0277 4.78e-4,0.001 0.0022,0.004 0.0034,0.008 0,-0.004 -4e-6,-0.009 0,-0.013 3e-6,-0.004 6e-6,-0.008 0,-0.0125 -2.5e-5,-0.007 2.8e-5,-0.014 0,-0.0212 6e-5,-0.0109 2.76e-4,-0.0223 0.002,-0.0331 v -0.007 -0.0125 -0.0163 -0.0168 -0.0125 c 0,-0.004 -5e-6,-0.008 0,-0.0125 3e-6,-0.005 3.4e-5,-0.009 0,-0.0136 -7.5e-5,-0.009 4.8e-5,-0.0177 5.04e-4,-0.0261 6.55e-4,-0.009 -6e-6,-0.0103 0.0015,-0.019 1.32e-4,-8.4e-4 3.03e-4,-0.002 5.04e-4,-0.003 v -0.0136 -0.0152 -0.0125 -0.013 -0.0163 c -2e-6,-0.005 -1e-6,-0.009 0,-0.0136 3e-6,-0.004 -4.8e-5,-0.009 0,-0.013 -6.5e-5,-5.5e-4 6.1e-5,-10e-4 0,-0.002 v -5.6e-4 c -9.06e-4,-0.008 -0.0017,-0.0159 -0.0015,-0.0239 v -0.0141 -0.0125 -0.0163 c 0,-0.004 6e-6,-0.009 0,-0.013 -4e-6,-0.004 -5.5e-5,-0.009 0,-0.0136 l 5.03e-4,5.6e-4 c -1.87e-4,-0.002 -1.71e-4,-0.003 -5.03e-4,-0.005 -4.79e-4,-0.004 -0.0012,-0.008 -0.002,-0.0136 -6.55e-4,-0.007 -0.0021,-0.0143 -0.002,-0.0217 v -0.0103 -0.0141 -0.0147 -0.012 -0.0185 c 0,-0.008 2e-6,-0.0151 0,-0.0228 V 101.93 c 3e-6,-0.003 -1.6e-5,-0.006 0,-0.009 -0.0014,-0.008 -0.003,-0.0152 -0.003,-0.0239 -9.4e-5,-0.008 -2.2e-5,-0.016 5.03e-4,-0.0239 2.09e-4,-0.003 7.31e-4,-0.006 9.82e-4,-0.009 2.4e-5,-8.4e-4 -2.9e-5,-10e-4 0,-0.002 1.18e-4,-0.001 3.28e-4,-0.002 5.04e-4,-0.004 9.6e-5,-0.002 3.52e-4,-0.003 5.04e-4,-0.005 v -5.6e-4 c 3.4e-5,-5.5e-4 -4e-5,-10e-4 0,-0.002 l 9.81e-4,-5.6e-4 -9.81e-4,-5.5e-4 c -1.27e-4,-5.6e-4 -3.78e-4,-0.001 -5.04e-4,-0.002 -1.37e-4,-8.3e-4 -3.53e-4,1.8e-4 -5.04e-4,-0.002 -3.02e-4,-0.002 -7.05e-4,-0.004 -9.82e-4,-0.005 -0.0013,-0.008 -0.0021,-0.0158 -0.002,-0.0239 -1.43e-4,-0.009 2.02e-4,-0.0177 0.0015,-0.0266 6.9e-5,-5.6e-4 -7.5e-5,-8.4e-4 0,-0.002 2.29e-4,-0.008 0.0013,-0.0148 0.0025,-0.0223 5.2e-5,-2.8e-4 -5.8e-5,-8.3e-4 0,-0.001 -4e-6,-8.3e-4 -8e-6,-0.001 0,-0.002 -7.2e-5,-8.4e-4 7.3e-5,-0.002 0,-0.003 -4.29e-4,-0.005 -0.0016,-0.0108 -0.002,-0.0163 -9e-6,-1e-4 -7e-6,-0.004 0,-0.005 v -5.6e-4 -0.001 c -0.0015,-0.0105 -0.0023,-0.0207 -0.002,-0.0315 v -0.0109 -0.0244 l 0.229158,-5.6e-4 v 0.007 c 0.0013,-0.003 0.002,-0.006 0.0034,-0.009 0.0017,-0.003 0.0027,-0.007 0.0044,-0.0103 5.54e-4,-0.003 0.0013,-0.006 0.002,-0.009 2.77e-4,-8.4e-4 7.05e-4,-0.002 9.82e-4,-0.003 0.0011,-0.002 -1.54e-4,0.003 -5.04e-4,0.005 l 0.122939,0.0179 c 0.0066,-0.0411 0.01489,-0.0817 0.02754,-0.1211 z" />
    </clipPath>
  </defs>
  <g
     id="layer1"
     transform="translate(-11.699064,-78.260893)">
    <g
       id="g1512"
       transform="translate(36.56508,46.508371)">
      <rect
         style="fill:#000000;stroke-width:0.264583"
         id="rect1465"
         width="17.056524"
         height="3.271404"
         x="91.294502"
         y="49.901215" />
      <rect
         style="fill:#000000;stroke-width:0.264583"
         id="rect1465-6"
         width="17.056524"
         height="3.271404"
         x="43.326683"
         y="-101.41031"
         transform="rotate(90)" />
    </g>
    <g
       aria-label="SC"
       transform="matrix(0.99255318,0,0,1.0075027,12.801422,20.568917)"
       id="text1568"
       style="font-size:51.711px;font-family:Mukti;-inkscape-font-specification:Mukti;stroke-width:0.538655">
      <path
         d="m 167.81574,59.42361 v 4.974153 q -2.9037,-1.388723 -5.47915,-2.07046 -2.57545,-0.681736 -4.97415,-0.681736 -4.16617,0 -6.43863,1.615968 -2.2472,1.615969 -2.2472,4.595411 0,2.499702 1.48972,3.787427 1.51497,1.262475 5.70639,2.04521 l 3.08044,0.631238 q 5.70639,1.085729 8.40809,3.837926 2.72694,2.726947 2.72694,7.322358 0,5.479144 -3.68643,8.307089 -3.66117,2.827945 -10.75629,2.827945 -2.67645,0 -5.70639,-0.605988 -3.00469,-0.605988 -6.23663,-1.792715 v -5.251899 q 3.10569,1.742217 6.08514,2.62595 2.97944,0.883733 5.85788,0.883733 4.36817,0 6.74162,-1.716967 2.37346,-1.716967 2.37346,-4.898405 0,-2.777447 -1.71697,-4.342916 -1.69172,-1.56547 -5.58014,-2.348205 l -3.10569,-0.605988 q -5.70639,-1.136228 -8.25659,-3.560181 -2.5502,-2.423953 -2.5502,-6.74162 0,-4.999403 3.50968,-7.877847 3.53493,-2.878444 9.72106,-2.878444 2.6512,0 5.4034,0.47974 2.75219,0.479741 5.63064,1.439223 z"
         id="path248" />
      <path
         d="m 206.27074,61.090077 v 5.378146 q -2.57545,-2.398703 -5.50439,-3.58543 -2.9037,-1.186727 -6.18613,-1.186727 -6.46388,0 -9.89781,3.964173 -3.43393,3.938924 -3.43393,11.412779 0,7.448606 3.43393,11.412779 3.43393,3.938923 9.89781,3.938923 3.28243,0 6.18613,-1.186727 2.92894,-1.186727 5.50439,-3.58543 v 5.327647 q -2.67645,1.817965 -5.68114,2.726947 -2.97944,0.908982 -6.31238,0.908982 -8.55958,0 -13.48323,-5.226648 -4.92366,-5.251899 -4.92366,-14.316473 0,-9.089824 4.92366,-14.316473 4.92365,-5.251898 13.48323,-5.251898 3.38344,0 6.36288,0.908982 3.00469,0.883733 5.63064,2.676448 z"
         id="path250" />
    </g>
    <path
       id="text113"
       clip-path="url(#clipPath1192)"
       style="font-size:55.176px;font-family:Mukti;-inkscape-font-specification:Mukti;fill:#000000;stroke-width:0.57475"
       transform="matrix(1.0508556,0,0,0.95160552,6.4316846,-0.08352326)"
       d="m 61.104099,82.381345 c -6.285711,0 -11.207539,1.841686 -14.763492,5.523307 -3.537966,3.663718 -5.30752,8.783747 -5.30752,15.356758 0,6.5554 1.769554,11.67457 5.30752,15.35622 3.555953,3.66403 8.477781,5.49616 14.763492,5.49616 2.87353,0 5.577298,-0.37735 8.109545,-1.13171 2.532272,-0.77199 4.849724,-1.90381 6.950968,-3.39457 V 102.31814 H 61.885499 v 4.47252 h 8.890945 v 10.80333 c -1.203256,0.70014 -2.559704,1.22109 -4.068296,1.56234 -1.508566,0.3233 -3.224097,0.48548 -5.145732,0.48548 -4.920832,0 -8.621523,-1.37423 -11.099912,-4.12225 -2.460403,-2.74769 -3.691119,-6.83429 -3.691119,-12.25815 0,-5.441624 1.230716,-9.537553 3.691119,-12.285297 2.478389,-2.747778 6.17908,-4.122252 11.099912,-4.122252 2.496325,0 4.876477,0.430957 7.13931,1.292989 1.111126,0.423286 2.191556,0.950071 3.242146,1.577002 0.0022,-0.0019 0.0043,-0.004 0.0064,-0.006 0.0028,-0.0024 0.0052,-0.0051 0.0079,-0.0076 0.004,-0.0037 0.0078,-0.0072 0.0118,-0.01086 0.0018,-0.0018 0.0037,-0.0035 0.0054,-0.0054 0.0025,-0.0025 0.0051,-0.005 0.0079,-0.0081 0.0035,-0.0039 0.0073,-0.0075 0.01082,-0.0114 l 0.003,-0.0033 c 0.0023,-0.0033 0.0049,-0.0067 0.0074,-0.0098 0.0027,-0.0038 0.0058,-0.0073 0.0089,-0.01086 0.0036,-0.0039 0.0074,-0.0074 0.01131,-0.01086 0.0023,-0.0022 0.0046,-0.0042 0.0069,-0.0065 0.0032,-0.0032 0.0066,-0.0065 0.0098,-0.0098 0.0032,-0.0036 0.0064,-0.0065 0.0098,-0.0098 0.0024,-0.0024 0.0052,-0.0053 0.0074,-0.0076 0.0029,-0.0034 0.0055,-0.0068 0.0084,-0.01032 0.0026,-0.0031 0.0049,-0.0066 0.0074,-0.0098 0.003,-0.004 0.0063,-0.008 0.0093,-0.01195 0.0044,-0.0055 0.009,-0.01068 0.01377,-0.01575 0.005,-0.005 0.0102,-0.0097 0.01524,-0.01466 0.0038,-0.0035 0.0072,-0.0071 0.01082,-0.01086 0.0034,-0.0036 0.0069,-0.0073 0.01033,-0.01086 0.0015,-0.0015 0.003,-0.0032 0.0044,-0.0049 0.0021,-0.0049 0.0044,-0.0095 0.0069,-0.01412 0.0033,-0.0057 0.0067,-0.01129 0.01033,-0.01684 0.0036,-0.0056 0.0076,-0.01069 0.0118,-0.01575 0.0034,-0.0039 0.0072,-0.0078 0.01082,-0.0114 0.0034,-0.0037 0.0071,-0.007 0.01082,-0.01032 0.0012,-0.0012 0.0027,-0.0026 0.0039,-0.0038 0.0028,-0.0029 0.0059,-0.0055 0.0089,-0.0081 0.0033,-0.0031 0.0065,-0.0061 0.0098,-0.0092 0.0036,-0.0033 0.0072,-0.007 0.01082,-0.01032 0.0045,-0.0039 0.0089,-0.0074 0.01328,-0.0114 0.0034,-0.0035 0.0073,-0.0068 0.01082,-0.01032 0.0019,-0.0019 0.004,-0.004 0.0059,-0.006 0.0016,-0.0021 0.0015,-0.0018 0.003,-0.0038 0.0032,-0.0041 0.0064,-0.0092 0.0093,-0.01358 0.0019,-0.0029 0.0037,-0.0056 0.0054,-0.0087 0.0028,-0.005 0.0056,-0.01005 0.0089,-0.01466 0.0037,-0.0055 0.0083,-0.0099 0.01279,-0.01466 0.0042,-0.0044 0.0084,-0.0088 0.01278,-0.01303 0.0035,-0.0034 0.0073,-0.0069 0.01082,-0.01032 0.0038,-0.0039 0.0074,-0.0077 0.01131,-0.0114 0.0031,-0.003 0.0062,-0.0062 0.0093,-0.0092 0.004,-0.0036 0.0082,-0.0073 0.01229,-0.01086 0.003,-0.0028 0.0056,-0.0057 0.0084,-0.0087 0.0038,-0.0043 0.0082,-0.008 0.01229,-0.01195 0.0036,-0.0033 0.0067,-0.007 0.01033,-0.01032 0.0037,-0.0035 0.0079,-0.0064 0.0118,-0.0098 0.0032,-0.0028 0.0062,-0.0058 0.0093,-0.0087 0.0031,-0.0028 0.0063,-0.0057 0.0093,-0.0087 0.0039,-0.0038 0.0077,-0.0078 0.01131,-0.01195 0.0033,-0.0038 0.0063,-0.0079 0.0093,-0.01195 l 4.92e-4,-5.43e-4 -0.0015,-0.0016 c 0.0026,-0.0028 0.0048,-0.0054 0.0074,-0.0081 0.003,-0.0035 0.0066,-0.007 0.0098,-0.01032 0.0035,-0.0037 0.007,-0.0065 0.01082,-0.0098 0.0024,-0.002 0.002,-0.0022 0.0049,-0.0054 2.5e-4,-2.59e-4 7.31e-4,-2.81e-4 9.83e-4,-5.43e-4 7.25e-4,-8.5e-4 0.0012,-0.0019 0.002,-0.0027 0.001,-0.0011 0.002,-0.0021 0.003,-0.0033 0.0029,-0.0038 0.0058,-0.0068 0.0089,-0.01032 0.0036,-0.0039 0.0078,-0.0073 0.0118,-0.01086 2.44e-4,-5e-4 2.45e-4,-0.0011 4.91e-4,-0.0016 0.0031,-0.0067 0.007,-0.01282 0.01082,-0.01901 0.0025,-0.0044 0.0061,-0.0088 0.0089,-0.01303 0.0028,-0.0041 0.0055,-0.0084 0.0084,-0.01249 0.0027,-0.0037 0.0066,-0.0072 0.0093,-0.01086 0.0022,-0.0031 0.0046,-0.0062 0.0069,-0.0092 0.0032,-0.0041 0.0069,-0.008 0.01033,-0.01195 0.0028,-0.0031 0.0052,-0.006 0.0079,-0.0092 0.0032,-0.0037 0.0063,-0.0076 0.0093,-0.0114 0.0029,-0.0039 0.0058,-0.0078 0.0089,-0.0114 0.0039,-0.0045 0.0081,-0.0083 0.01229,-0.01249 0.0035,-0.0033 0.006,-0.0074 0.0093,-0.01086 0.0029,-0.003 0.006,-0.0052 0.0089,-0.0081 0.0039,-0.0039 0.0077,-0.0077 0.0118,-0.0114 0.004,-0.0035 0.0079,-0.0072 0.0118,-0.01086 0.0038,-0.0035 0.0079,-0.0069 0.01131,-0.01086 0.0039,-0.0043 0.0076,-0.009 0.01131,-0.01358 0.0029,-0.0038 0.0063,-0.0076 0.0093,-0.0114 0.0035,-0.0051 0.0073,-0.01 0.01131,-0.01466 0.0029,-0.0037 0.0058,-0.0068 0.0089,-0.01032 0.0037,-0.0044 0.0077,-0.0085 0.0118,-0.01249 0.0036,-0.0036 0.0075,-0.0069 0.01131,-0.01032 0.0036,-0.0034 0.0072,-0.007 0.01082,-0.01032 0.0036,-0.0033 0.0068,-0.0069 0.01033,-0.01032 0.0028,-0.0025 0.0067,-0.0049 0.0093,-0.0076 0.0043,-0.0047 0.0084,-0.0091 0.01279,-0.01358 0.0054,-0.0056 0.01061,-0.01104 0.01623,-0.01629 0.0047,-0.0043 0.0095,-0.0087 0.01426,-0.01303 0.0051,-0.0045 0.0101,-0.0091 0.01524,-0.01358 0.0046,-0.0037 0.0093,-0.0075 0.01377,-0.0114 0.0045,-0.004 0.009,-0.0077 0.01328,-0.01195 0.0041,-0.0039 0.008,-0.0077 0.0118,-0.01195 0.0048,-0.0048 0.0091,-0.01026 0.01328,-0.01575 0.0049,-0.0068 0.01031,-0.0134 0.01524,-0.02009 0.0051,-0.007 0.01041,-0.01343 0.01574,-0.02009 0.0058,-0.0072 0.01171,-0.01467 0.0177,-0.02172 0.0062,-0.0071 0.01231,-0.01377 0.01869,-0.02064 0.0057,-0.0061 0.0119,-0.01197 0.0177,-0.01792 0.002,-0.002 0.004,-0.0039 0.0059,-0.006 6.76e-4,-9.99e-4 0.0013,-0.0017 0.002,-0.0027 6.92e-4,-10e-4 0.0024,-0.0023 0.0029,-0.0033 0.0032,-0.0039 0.006,-0.0078 0.0089,-0.01195 0.0029,-0.004 0.0065,-0.0079 0.0093,-0.01195 0.0027,-0.004 0.0055,-0.0081 0.0084,-0.01195 0.0024,-0.0036 0.0069,-0.0067 0.0093,-0.01032 0.0037,-0.005 0.007,-0.0099 0.01082,-0.01466 0.004,-0.0047 0.0082,-0.0096 0.01229,-0.01412 0.0039,-0.0043 0.0079,-0.0077 0.0118,-0.01195 0.0039,-0.004 0.0078,-0.008 0.0118,-0.01195 0.0035,-0.0038 0.0076,-0.0074 0.01131,-0.01086 0.0037,-0.0036 0.007,-0.0074 0.01082,-0.01086 0.0047,-0.0043 0.0095,-0.0088 0.01426,-0.01303 0.0047,-0.0043 0.0095,-0.0082 0.01426,-0.01249 0.0052,-0.0045 0.0106,-0.0091 0.01574,-0.01358 0.0013,-0.0011 0.0018,-0.0021 0.003,-0.0033 6.68e-4,-6.06e-4 0.0027,-0.001 0.0034,-0.0016 4.72e-4,-5.62e-4 0.0014,-0.0011 0.002,-0.0016 0.0025,-0.003 0.0049,-0.0062 0.0074,-0.0092 0.0075,-0.0095 0.01521,-0.01863 0.02311,-0.0277 0.0075,-0.0086 0.01521,-0.01727 0.02311,-0.02552 0.0072,-0.0072 0.01439,-0.01459 0.02115,-0.02227 0.0073,-0.0086 0.01499,-0.01679 0.02213,-0.02552 0.0069,-0.0083 0.01341,-0.01655 0.02016,-0.02498 0.006,-0.0079 0.01229,-0.01593 0.0182,-0.02389 0.006,-0.0082 0.01231,-0.01608 0.01869,-0.02389 0.0057,-0.0072 0.01201,-0.01342 0.01819,-0.02009 0.0065,-0.0069 0.01291,-0.01409 0.01967,-0.02063 0.0069,-0.0068 0.01371,-0.0134 0.02065,-0.02009 0.0069,-0.0065 0.0138,-0.013 0.02065,-0.01955 0.007,-0.0069 0.0143,-0.01411 0.02115,-0.02118 0.0066,-0.0064 0.01219,-0.01355 0.01819,-0.02064 0.0067,-0.0081 0.014,-0.01519 0.02115,-0.02281 0.0069,-0.0073 0.01421,-0.01492 0.02115,-0.02227 0.0056,-0.0057 0.0112,-0.01153 0.01672,-0.01738 0.005,-0.0056 0.0101,-0.0108 0.01524,-0.01629 0.0048,-0.0052 0.0099,-0.01062 0.01426,-0.01629 0.0078,-0.0097 0.01541,-0.0195 0.02311,-0.02932 0.0023,-0.003 0.0046,-0.0058 0.0069,-0.0087 3.6e-4,-6.73e-4 5.14e-4,-0.0013 9.84e-4,-0.0022 2.6e-4,-5.42e-4 7.01e-4,-0.0011 9.83e-4,-0.0016 0.002,-0.0036 0.0057,-0.0069 0.0079,-0.01032 0.0036,-0.0055 0.0076,-0.01084 0.0118,-0.01575 0.0035,-0.004 0.0072,-0.0075 0.01082,-0.0114 0.0026,-0.0028 0.0053,-0.0053 0.0079,-0.0081 7.61e-4,-7.57e-4 0.0012,-0.0014 0.002,-0.0022 0.0013,-0.0013 0.0026,-0.0025 0.0039,-0.0038 7.28e-4,-7.43e-4 2.55e-4,-7.24e-4 4.92e-4,-0.0011 0.0011,-0.0018 0.0026,-0.0028 0.0039,-0.0043 0.0014,-0.0017 0.0016,-0.0037 0.003,-0.0054 0.0018,-0.0025 0.0041,-0.0051 0.0059,-0.0076 0.0036,-0.0047 0.007,-0.0091 0.01082,-0.01358 0.0043,-0.005 0.0095,-0.0092 0.01426,-0.01358 0.0053,-0.0049 0.01101,-0.0093 0.01672,-0.01358 0.0037,-0.0028 0.0072,-0.0058 0.01082,-0.0087 0.0035,-0.0031 0.0067,-0.0058 0.01033,-0.0087 0.0029,-0.0022 0.0066,-0.0051 0.0093,-0.0076 0.003,-0.0029 0.0059,-0.0057 0.0089,-0.0087 0.0038,-0.004 0.0078,-0.0082 0.0118,-0.01195 0.0015,-0.0015 0.0032,-0.0029 0.0044,-0.0043 0.0024,-0.0032 0.0049,-0.0067 0.0074,-0.0098 0.0023,-0.0031 0.0041,-0.0061 0.0064,-0.0092 0.0028,-0.0041 0.0065,-0.0078 0.0093,-0.01195 0.003,-0.0039 0.0055,-0.0079 0.0084,-0.01195 0.0033,-0.0048 0.0068,-0.0095 0.01033,-0.01412 0.0036,-0.0046 0.0074,-0.0093 0.01131,-0.01358 0.0038,-0.0042 0.0074,-0.0079 0.01131,-0.01195 0.0035,-0.0036 0.0076,-0.0069 0.01131,-0.01032 0.0028,-0.0027 0.0059,-0.0054 0.0089,-0.0081 0.0027,-0.0027 0.0058,-0.0053 0.0084,-0.0081 0.004,-0.0043 0.0085,-0.0085 0.01279,-0.01249 0.0049,-0.0045 0.0093,-0.0091 0.01426,-0.01358 0.0036,-0.0031 0.0075,-0.0063 0.01082,-0.0098 0.0029,-0.003 0.0057,-0.006 0.0084,-0.0092 0.0023,-0.0031 0.0046,-0.0056 0.0069,-0.0087 0.0032,-0.0047 0.0061,-0.0094 0.0093,-0.01412 0.0029,-0.0043 0.006,-0.0087 0.0089,-0.01303 0.0029,-0.0045 0.006,-0.0088 0.0093,-0.01303 0.003,-0.004 0.0059,-0.0077 0.0093,-0.0114 0.0041,-0.0041 0.0086,-0.0084 0.01279,-0.01249 0.0043,-0.004 0.008,-0.0079 0.01229,-0.01195 0.0036,-0.0033 0.0074,-0.0069 0.01082,-0.01032 0.0028,-0.0029 0.0052,-0.0057 0.0079,-0.0087 0.0025,-0.0028 0.005,-0.0057 0.0074,-0.0087 0.0027,-0.0034 0.0052,-0.0074 0.0079,-0.01086 0.0035,-0.0047 0.0073,-0.0092 0.01131,-0.01358 0.0033,-0.0036 0.007,-0.0067 0.01033,-0.01032 0.0043,-0.0048 0.0087,-0.0095 0.01328,-0.01412 0.004,-0.0044 0.0081,-0.0083 0.01229,-0.01249 0.0029,-0.003 0.0062,-0.0066 0.0089,-0.0098 0.004,-0.0049 0.008,-0.0091 0.01229,-0.01358 0.0023,-0.0024 0.0048,-0.005 0.0069,-0.0076 0.0036,-0.0043 0.0071,-0.0084 0.01082,-0.01249 0.0029,-0.0031 0.0056,-0.007 0.0084,-0.01032 0.0028,-0.0038 0.0065,-0.0071 0.0093,-0.01086 0.0034,-0.0047 0.0071,-0.0093 0.01082,-0.01358 l 4.92e-4,5.43e-4 c 0.0023,-0.0052 0.0053,-0.01 0.0084,-0.01466 0.003,-0.0045 0.006,-0.0088 0.0093,-0.01303 0.0036,-0.005 0.008,-0.0093 0.01229,-0.01358 0.0036,-0.0036 0.0072,-0.0069 0.01082,-0.01032 0.0031,-0.0029 0.0063,-0.0057 0.0093,-0.0087 0.0029,-0.0029 0.0055,-0.0059 0.0084,-0.0087 0.0019,-0.002 0.0041,-0.0039 0.0059,-0.006 l 4.92e-4,-5.43e-4 c 6.66e-4,-8.09e-4 0.0013,-0.0014 0.002,-0.0022 9.52e-4,-0.0012 0.0019,-0.0026 0.0029,-0.0038 0.0026,-0.0032 0.0056,-0.0063 0.0084,-0.0092 0.0035,-0.0038 0.0071,-0.0073 0.01082,-0.01086 0.0034,-0.0033 0.007,-0.0064 0.01033,-0.0098 0.0032,-0.0031 0.0068,-0.0065 0.0098,-0.0098 0.0026,-0.0027 0.005,-0.0053 0.0074,-0.0081 0.0017,-0.0022 0.0032,-0.0043 0.0049,-0.0065 0.0021,-0.0031 0.0047,-0.0062 0.0069,-0.0092 0.002,-0.0028 0.0038,-0.0054 0.0059,-0.0081 0.0025,-0.0035 0.0066,-0.0064 0.0093,-0.0098 0.0041,-0.0049 0.0084,-0.0095 0.01278,-0.01412 0.0021,-0.0025 0.0049,-0.0051 0.0069,-0.0076 0.0024,-0.003 0.0046,-0.0056 0.0069,-0.0087 0.0026,-0.0032 0.0049,-0.0065 0.0074,-0.0098 0.0037,-0.005 0.0081,-0.0097 0.01229,-0.01412 0.0029,-0.0029 0.0056,-0.0057 0.0084,-0.0087 0.004,-0.0045 0.0084,-0.0085 0.01278,-0.01249 0.0031,-0.0029 0.0062,-0.0057 0.0093,-0.0087 0.0039,-0.0037 0.0078,-0.0078 0.0118,-0.0114 0.0018,-0.0015 0.0033,-0.0032 0.0049,-0.0049 l 4.92e-4,-5.43e-4 c 4.15e-4,-5.21e-4 8.52e-4,-0.0011 0.0015,-0.0016 0.001,-0.0012 0.0011,-0.0017 0.002,-0.0027 0.0019,-0.0027 0.0043,-0.005 0.0064,-0.0076 0.0029,-0.0032 0.0058,-0.0062 0.0089,-0.0098 0.0036,-0.0044 0.007,-0.0093 0.01082,-0.01358 0.0029,-0.0032 0.0066,-0.0064 0.0093,-0.0098 0.0021,-0.0028 0.0044,-0.0053 0.0064,-0.0081 0.0025,-0.0033 0.0049,-0.0065 0.0074,-0.0098 0.0024,-0.0032 0.0054,-0.0066 0.0079,-0.0098 0.0028,-0.0034 0.0053,-0.0068 0.0079,-0.01032 0.0032,-0.0043 0.0061,-0.0088 0.0093,-0.01303 0.0033,-0.0044 0.0071,-0.0084 0.01082,-0.01249 0.0031,-0.0035 0.0065,-0.007 0.0098,-0.01032 0.0036,-0.0033 0.0071,-0.0061 0.01082,-0.0092 5.71e-4,-4.44e-4 0.0014,-0.0012 0.002,-0.0016 l 0.0049,-0.0043 c 0.0013,-0.0011 0.0016,-9.34e-4 9.84e-4,-5.43e-4 3.47e-4,-3.16e-4 6.35e-4,-7.61e-4 9.83e-4,-0.0011 0.0059,-0.0086 0.0114,-0.01511 0.01328,-0.01466 0.0019,-0.0024 0.0064,-0.0081 0.01033,-0.01303 -6.04e-4,7.61e-4 0.0018,-0.002 0.002,-0.0022 5.8e-4,-9.45e-4 0.0052,-0.0073 0.0079,-0.01086 0.0059,-0.008 0.01171,-0.01598 0.0177,-0.02389 0.002,-0.0026 0.0039,-0.005 0.0059,-0.0076 0.02898,-0.03766 0.05921,-0.0747 0.09294,-0.10698 0.02993,-0.03066 0.06042,-0.06101 0.09245,-0.08906 l 4.92e-4,-5.43e-4 c 2.85e-4,-3.43e-4 6.51e-4,-7.2e-4 9.83e-4,-0.0011 8.31e-4,-9.16e-4 0.0017,-0.0019 0.0025,-0.0027 2.86e-4,-4.86e-4 6.16e-4,-0.0011 9.84e-4,-0.0016 l 4.91e-4,-5.43e-4 c 0.0014,-0.0019 0.0027,-0.0033 0.0039,-0.0049 0.0028,-0.0034 0.0056,-0.007 0.0084,-0.01032 0.004,-0.0047 0.0087,-0.0089 0.01328,-0.01303 0.0033,-0.0029 0.0065,-0.0058 0.0098,-0.0087 0.0021,-0.0021 0.0047,-0.0044 0.0069,-0.0065 0.0021,-0.0019 0.0039,-0.0029 0.0059,-0.0049 0.0025,-0.0025 0.0053,-0.0051 0.0079,-0.0076 0.0016,-0.0017 0.0033,-0.0032 0.0049,-0.0049 0.0012,-0.0013 7.06e-4,-0.001 9.84e-4,-0.0016 0.0019,-0.0023 0.004,-0.0047 0.0059,-0.0071 0.0022,-0.003 0.0047,-0.0061 0.0069,-0.0092 0.0035,-0.0049 0.0076,-0.0093 0.0118,-0.01358 l 0.0098,-0.0098 c 0.0027,-0.003 0.0061,-0.0048 0.0089,-0.0076 0.0025,-0.0025 0.0054,-0.005 0.0079,-0.0076 0.0023,-0.0025 0.0047,-0.005 0.0069,-0.0076 0.0029,-0.0036 0.0058,-0.0069 0.0089,-0.01032 0.002,-0.0022 0.0041,-0.0052 0.0059,-0.0076 0.0024,-0.0031 0.0045,-0.0057 0.0069,-0.0087 0.0017,-0.0024 0.0033,-0.0052 0.0049,-0.0076 0.0027,-0.0037 0.006,-0.0073 0.0089,-0.01086 0.0016,-0.0021 0.0028,-0.0043 0.0044,-0.0065 0.0029,-0.0038 0.0051,-0.0057 0.0084,-0.0098 0.0027,-0.0034 0.0065,-0.007 0.0093,-0.01032 0.0037,-0.0044 0.0074,-0.0084 0.01131,-0.01249 0.0032,-0.0033 0.0057,-0.0066 0.0089,-0.0098 0.0029,-0.003 0.0062,-0.0053 0.0093,-0.0081 0.0029,-0.0025 0.006,-0.0052 0.0089,-0.0076 l 4.92e-4,-5.43e-4 c 0.0013,-0.0013 0.003,-0.0026 0.0044,-0.0038 0.0029,-0.0026 0.0059,-0.005 0.0089,-0.0076 0.0033,-0.0028 0.0061,-0.0058 0.0093,-0.0087 0.0026,-0.0024 0.005,-0.005 0.0074,-0.0076 0.003,-0.0034 0.0062,-0.007 0.0093,-0.01032 0.0027,-0.0028 0.0052,-0.0048 0.0079,-0.0076 8.56e-4,-8.93e-4 0.0021,-0.0018 0.003,-0.0027 0.0014,-0.0014 0.0025,-0.0024 0.0039,-0.0038 0.0014,-0.0014 0.0018,-0.0018 9.84e-4,-0.0011 0.0027,-0.0028 0.0058,-0.0058 0.0084,-0.0087 0.0027,-0.0032 0.0061,-0.0061 0.0089,-0.0092 v -5.43e-4 c 1.91e-4,-1.83e-4 6.91e-4,-2.31e-4 9.83e-4,-5.43e-4 v -5.43e-4 c 6.95e-4,-8.65e-4 0.0018,-0.0013 0.0025,-0.0022 0.0022,-0.0031 0.0042,-0.0072 0.0064,-0.01032 0.0036,-0.0051 0.0073,-0.0094 0.01131,-0.01412 0.0034,-0.0039 0.0069,-0.0081 0.01033,-0.01195 0.0029,-0.0031 0.0049,-0.0053 0.0069,-0.0076 l 4.92e-4,-5.43e-4 c 0.0019,-0.0025 0.0039,-0.0052 0.0059,-0.0076 0.0017,-0.0022 0.0028,-0.0039 0.0044,-0.006 0.0021,-0.0028 0.0047,-0.005 0.0069,-0.0076 0.0036,-0.0044 0.0073,-0.008 0.01131,-0.01195 0.0039,-0.004 0.0081,-0.0079 0.01229,-0.0114 8.32e-4,-6.72e-4 0.0016,-0.0015 0.0025,-0.0022 l 4.92e-4,-5.43e-4 c 0.0018,-0.0027 0.0034,-0.0056 0.0054,-0.0081 0.0017,-0.0023 0.0033,-0.0047 0.0049,-0.0071 5.02e-4,-0.0011 0.0016,-0.0028 0.0015,-0.0022 0.0027,-0.0058 0.0056,-0.01175 0.0093,-0.01683 0.0039,-0.0053 0.0084,-0.0098 0.01328,-0.01412 0.0022,-0.0021 0.0041,-0.0045 0.0064,-0.0065 0.0025,-0.0022 0.0053,-0.0039 0.0079,-0.006 l 4.92e-4,-5.43e-4 c 3.34e-4,-3.05e-4 6.27e-4,-7.65e-4 9.83e-4,-0.0011 6.89e-4,-6.46e-4 0.0012,-9.83e-4 0.002,-0.0016 0.0024,-0.0021 0.0048,-0.0045 0.0074,-0.0065 l -0.0015,-0.0016 c 0.0023,-0.0023 0.0045,-0.0043 0.0069,-0.0065 0.0022,-0.0019 0.0039,-0.0039 0.0059,-0.006 l 0.0054,-0.0054 c 0.0021,-0.0022 0.0042,-0.0039 0.0064,-0.006 0.0011,-0.001 0.0018,-0.0015 0.002,-0.0016 l 4.92e-4,-5.43e-4 c 0.0012,-0.0015 0.0026,-0.0034 0.0039,-0.0049 0.0025,-0.0026 0.0047,-0.0048 0.0069,-0.0071 2.98e-4,-6e-4 6.87e-4,-0.001 9.84e-4,-0.0016 h 4.92e-4 c 0.0011,-0.0011 0.0022,-0.0021 0.0034,-0.0033 0.002,-0.0017 0.0037,-0.0035 0.0054,-0.0054 0.0016,-0.0018 0.0032,-0.0042 0.0049,-0.0065 0.0037,-0.0051 0.0082,-0.01 0.01229,-0.01466 0.0044,-0.0049 0.0085,-0.0096 0.01328,-0.01412 0.0041,-0.004 0.0084,-0.0077 0.01279,-0.0114 0.0016,-0.0014 0.0032,-0.0024 0.0049,-0.0038 v -0.0076 c -1.994973,-1.257172 -4.177602,-2.209338 -6.54822,-2.855872 -2.352651,-0.64656 -4.840822,-0.969878 -7.462886,-0.969878 z m -43.806589,0.72605 v 0.0011 l -12.2850426,5.43e-4 v 40.223315 h 5.4417696 v -16.97449 c -4.7e-5,-6.3e-4 4.7e-5,-0.002 0,-0.002 -7.7e-5,3.2e-4 -4.49e-4,-0.001 -4.92e-4,-0.001 -8.3e-5,-7.4e-4 7.4e-5,0.001 0,-0.002 -4.12e-4,-0.004 -1.8e-4,-0.004 -4.92e-4,-0.008 -4.15e-4,-0.006 -8.55e-4,-0.0113 -9.83e-4,-0.0168 -9.3e-5,-0.004 1.6e-5,-0.008 0,-0.0125 -1.6e-5,-0.005 7.33e-4,-0.0109 9.83e-4,-0.0163 1.24e-4,-0.005 5.19e-4,-0.0108 9.84e-4,-0.0163 2.04e-4,-0.003 4.23e-4,-0.006 4.92e-4,-0.008 4e-6,-0.006 -4e-5,-0.0113 4.91e-4,-0.0168 1.57e-4,-0.003 4.29e-4,-0.006 4.92e-4,-0.009 7.8e-5,-0.004 -2.3e-5,-0.009 0,-0.013 2e-5,-0.004 -3e-6,-0.009 0,-0.013 3e-6,-0.005 0,-0.0109 0,-0.0163 v -0.0125 -0.0136 -0.0141 -0.0109 -0.0109 c -8.7e-5,-0.006 5.2e-5,-0.0118 4.92e-4,-0.0179 2.44e-4,-0.003 3.87e-4,-0.005 4.92e-4,-0.008 1.08e-4,-0.003 4.7e-4,-0.006 4.91e-4,-0.009 -6.8e-5,-0.007 1.62e-4,-0.0132 4.92e-4,-0.0201 1.86e-4,-0.004 1.34e-4,-0.009 0,-0.013 -4.65e-4,-0.005 4.7e-5,-0.0108 -4.92e-4,-0.0163 -4.09e-4,-0.007 -7.47e-4,-0.0131 -9.83e-4,-0.0201 -1.9e-4,-0.006 -4.36e-4,-0.0121 -4.92e-4,-0.0179 -4.1e-5,-0.005 9e-6,-0.01 0,-0.0147 -6e-6,-0.004 10e-7,-0.009 0,-0.013 v -0.0103 c -8.6e-5,-6.7e-4 7.5e-5,-0.002 0,-0.002 -4.39e-4,-0.004 -0.0012,-0.007 -0.0015,-0.0114 -2.45e-4,-0.005 -0.0011,-0.0105 -0.0015,-0.0152 -3.73e-4,-0.005 -3.55e-4,-0.0102 -4.92e-4,-0.0152 -9.7e-5,-0.004 1.9e-5,-0.008 0,-0.0125 -1.4e-5,-0.004 -4.89e-4,-0.007 -4.92e-4,-0.0109 -2e-6,-0.003 1e-6,-0.007 0,-0.0103 -2.5e-5,-0.005 4.78e-4,-0.009 9.84e-4,-0.0136 l 4.91e-4,-5.4e-4 c -4.5e-5,-0.001 -2.3e-5,-0.003 0,-0.004 -5.6e-5,-0.005 5.64e-4,-0.0109 9.84e-4,-0.0163 2.07e-4,-0.003 -5.8e-5,-0.006 0,-0.009 -5.7e-5,-0.007 -3.98e-4,-0.0141 0.0015,-0.0212 6.9e-5,-7.5e-4 4.41e-4,-0.001 4.92e-4,-0.002 6.4e-5,-7.4e-4 -5.3e-5,-0.001 0,-0.002 7.5e-5,-0.002 -5.6e-5,-0.003 0,-0.005 1.23e-4,-0.004 -3e-5,-0.008 0,-0.0119 3.1e-5,-0.005 -6e-6,-0.009 0,-0.0141 5e-6,-0.004 -10e-7,-0.008 0,-0.0125 v -0.0147 -0.0141 -0.0147 -0.0141 c -4.8e-5,-0.006 2.92e-4,-0.0123 4.92e-4,-0.0185 2.8e-4,-0.005 7.88e-4,-0.009 9.83e-4,-0.0141 7e-5,-0.006 3.6e-5,-0.0107 4.92e-4,-0.0163 2.53e-4,-0.003 4.12e-4,-0.007 4.92e-4,-0.01 9.1e-5,-0.004 -2.1e-5,-0.008 0,-0.0119 2e-6,-8.4e-4 -3e-6,-0.002 0,-0.003 8e-6,-0.003 -3e-6,-0.005 0,-0.008 1e-6,-10e-4 4.78e-4,-0.002 4.91e-4,-0.003 l -4.91e-4,5.4e-4 c -3.24e-4,-0.005 -2.81e-4,-0.0101 -4.92e-4,-0.0152 -2.72e-4,-0.001 -3.93e-4,-0.002 -4.92e-4,-0.003 -3.46e-4,-0.004 -7.9e-4,-0.008 -9.83e-4,-0.0114 -2.93e-4,-0.006 -4.13e-4,-0.0123 -4.92e-4,-0.0185 -5.3e-5,-0.005 1.4e-5,-0.009 0,-0.0136 -10e-6,-0.004 2e-6,-0.008 0,-0.0125 -1.19e-4,-0.007 8.4e-5,-0.0136 4.92e-4,-0.0206 3.09e-4,-0.004 8.82e-4,-0.008 9.83e-4,-0.0125 1.4e-4,-0.004 -3.12e-4,-0.004 -4.92e-4,-0.008 -3.29e-4,-0.005 -1.94e-4,-0.0104 -4.91e-4,-0.0157 -2e-4,-0.007 -4.69e-4,-0.0137 -9.84e-4,-0.0206 -5.47e-4,-0.007 -7.49e-4,-0.0141 -9.83e-4,-0.0212 -1.13e-4,-0.004 -6.71e-4,-0.009 -9.84e-4,-0.0141 -4.56e-4,-0.007 -8.75e-4,-0.0141 -9.83e-4,-0.0212 5.8e-5,-0.005 -2.22e-4,-0.008 -4.92e-4,-0.0125 -5.4e-4,-0.007 -2.53e-4,-0.0149 0,-0.0223 1.14e-4,-0.005 5.93e-4,-0.0105 9.83e-4,-0.0152 3.23e-4,-0.004 3.62e-4,-0.008 4.92e-4,-0.0125 3.33e-4,-0.008 0.0012,-0.0152 0.002,-0.0228 3.91e-4,-0.004 3.77e-4,-0.008 4.92e-4,-0.0119 l -0.0054,-5.4e-4 c 1.87e-4,-0.002 -8.1e-5,-0.005 0,-0.007 5.7e-5,-0.005 -4.07e-4,-0.0102 0.0015,-0.0152 h 4.92e-4 c -7.68e-4,0.005 3.84e-4,-0.007 4.91e-4,-0.008 3.08e-4,-0.003 4.13e-4,-0.005 4.92e-4,-0.007 5.3e-5,-0.006 -7e-6,-0.0108 4.92e-4,-0.0163 2.99e-4,-0.004 7.84e-4,-0.008 9.83e-4,-0.0114 2.69e-4,-0.004 3.44e-4,-0.007 4.92e-4,-0.0114 1.02e-4,-0.003 -2.8e-5,-0.006 0,-0.0103 -2.8e-5,-0.002 4e-6,-0.005 0,-0.007 v -5.4e-4 -5.4e-4 -5.5e-4 -5.4e-4 l -4.92e-4,-5.4e-4 c -0.001,-0.006 -0.0017,-0.0105 -0.0025,-0.0163 -7.34e-4,-0.006 -0.0013,-0.012 -0.0015,-0.0179 -4.75e-4,-0.009 -0.001,-0.0178 0.002,-0.0266 l 4.92e-4,-5.5e-4 c 1.05e-4,-0.003 -2.9e-5,-0.005 0,-0.008 -1.1e-4,-0.002 -4.4e-5,-0.003 0,-0.004 -2.8e-5,-3.9e-4 -3.53e-4,-0.002 -4.92e-4,-0.003 -7.31e-4,-0.005 -0.0012,-0.0109 -0.0015,-0.0163 -2.98e-4,-0.006 -4.18e-4,-0.0126 -4.92e-4,-0.019 -5.2e-5,-0.005 10e-6,-0.0105 0,-0.0152 -8e-6,-0.005 2e-6,-0.01 0,-0.0147 v -0.0168 -0.0125 -0.0114 -0.0114 -0.0125 -0.009 -0.01 -0.0114 -0.0114 -0.0114 -0.0103 -0.0114 -0.0125 c -1.29e-4,-0.006 5.6e-4,-0.0129 9.84e-4,-0.019 1.49e-4,-0.003 4.4e-4,-0.006 4.92e-4,-0.009 5.9e-5,-0.004 -1.3e-5,-0.008 0,-0.0125 -6.8e-5,-0.006 6.1e-5,-0.0126 4.91e-4,-0.019 2.95e-4,-0.003 3.8e-4,-0.005 4.92e-4,-0.01 3.1e-5,-0.006 1.09e-4,-0.013 4.92e-4,-0.019 2.64e-4,-0.003 4.11e-4,-0.007 4.92e-4,-0.0103 8.1e-5,-0.004 4.71e-4,-0.008 4.91e-4,-0.0114 -1.1e-4,-0.006 6.2e-5,-0.0115 4.92e-4,-0.0174 2.41e-4,-0.004 4.34e-4,-0.008 4.92e-4,-0.0114 7.5e-5,-0.005 -2e-5,-0.01 0,-0.0152 1.5e-5,-0.004 -3e-6,-0.008 0,-0.0114 3e-6,-0.004 0,-0.008 0,-0.0114 -8.4e-5,-0.006 6.7e-5,-0.012 4.92e-4,-0.0179 3.05e-4,-0.003 3.95e-4,-0.006 4.91e-4,-0.009 1.04e-4,-0.004 4.65e-4,-0.007 4.92e-4,-0.0103 2.4e-5,-0.004 -5e-6,-0.008 0,-0.0114 5e-6,-0.004 -1e-6,-0.008 0,-0.0114 v -0.0136 -0.0152 c -1.01e-4,-0.006 5.59e-4,-0.0125 9.84e-4,-0.0185 1.53e-4,-0.004 -5e-5,-0.009 0,-0.013 5.5e-5,-0.005 4.75e-4,-0.0109 4.91e-4,-0.0163 1.2e-5,-0.004 -2e-6,-0.008 0,-0.0114 2e-6,-0.004 0,-0.008 0,-0.0125 v -0.0152 -0.0163 -0.0152 c -8e-5,-0.005 2.83e-4,-0.009 4.92e-4,-0.0136 -1.07e-4,-0.001 7.7e-5,-0.003 0,-0.005 -7.7e-5,-0.002 -4.16e-4,-0.003 -4.92e-4,-0.005 -8.9e-5,-0.005 -6.48e-4,-0.009 -9.83e-4,-0.0136 -3.86e-4,-0.006 -3.15e-4,-0.0114 -4.92e-4,-0.0168 h 0.0034 c -1.78e-4,-0.002 -3.53e-4,-0.004 -4.91e-4,-0.005 -4.09e-4,-0.006 -3.67e-4,-0.0122 -4.92e-4,-0.0179 4.9e-5,6.7e-4 3.2e-5,-0.001 0,-0.002 v -5.4e-4 c -8e-5,-9.8e-4 -4.65e-4,-0.002 -4.92e-4,-0.002 -5.95e-4,-0.004 2.75e-4,-0.008 -0.0015,-0.0125 -7.24e-4,-0.005 -0.0016,-0.0109 -0.002,-0.0163 -6.16e-4,-0.005 -6.74e-4,-0.0102 -9.84e-4,-0.0152 -3.06e-4,-0.005 -8.93e-4,-0.0105 -9.83e-4,-0.0157 -4.9e-5,-5.2e-4 4.4e-5,-0.001 0,-0.002 -2.66e-4,-0.003 -3.16e-4,-0.006 -4.92e-4,-0.009 -3.19e-4,-0.006 -4.2e-4,-0.0116 -4.92e-4,-0.0174 -6.2e-5,-0.006 10e-6,-0.0116 0,-0.0174 -8e-6,-0.005 2e-6,-0.0114 0,-0.0168 -1.25e-4,-0.006 3.2e-5,-0.0122 4.92e-4,-0.0185 1.29e-4,-0.002 4.34e-4,-0.004 4.92e-4,-0.006 -4.75e-4,-0.003 9e-5,-0.006 4.92e-4,-0.009 v -0.001 c -2e-6,-10e-4 -1.1e-5,-0.001 0,-0.002 -3.1e-4,-0.005 -3.85e-4,-0.0113 -4.92e-4,-0.0168 5.2e-5,-0.005 -1.56e-4,-0.007 -4.92e-4,-0.0114 -4.13e-4,-0.006 -8.65e-4,-0.0131 -9.83e-4,-0.0195 -3.69e-4,-0.005 -7.4e-4,-0.009 -9.84e-4,-0.0141 -2.74e-4,-0.006 -4.13e-4,-0.0113 -4.92e-4,-0.0174 -6e-5,-0.005 10e-6,-0.0105 0,-0.0152 -9.3e-5,-0.007 2.9e-5,-0.0134 4.92e-4,-0.0201 2.89e-4,-0.003 3.79e-4,-0.006 4.92e-4,-0.009 1.05e-4,-0.003 4.67e-4,-0.006 4.92e-4,-0.0103 2.6e-5,-0.005 -6e-6,-0.01 0,-0.0141 2e-6,-0.002 -10e-7,-0.004 0,-0.005 -3.82e-4,-0.004 -7.62e-4,-0.009 -9.84e-4,-0.013 -2.33e-4,-0.005 -4.5e-4,-0.009 -4.92e-4,-0.0136 -3.1e-5,-0.004 6e-6,-0.008 0,-0.0125 -4e-6,-0.004 1e-6,-0.008 0,-0.0114 6e-6,1e-4 7.1e-5,-0.001 0,-0.002 v -5.4e-4 -5.5e-4 c 0,-0.002 -7e-6,-0.002 0,-0.002 -5.09e-4,-0.006 -8.52e-4,-0.0119 -9.83e-4,-0.0179 -6.8e-5,-0.002 -5e-6,-0.004 0,-0.005 h -4.92e-4 c 3e-6,-0.004 -1.1e-5,-0.008 0,-0.0114 1.5e-5,-0.004 4.09e-4,-0.008 4.92e-4,-0.0114 1.12e-4,-0.005 1.49e-4,-0.0102 4.92e-4,-0.0152 3.38e-4,-0.005 5.14e-4,-0.009 4.91e-4,-0.0103 1.73e-4,-0.006 5.6e-4,-0.0122 9.84e-4,-0.0185 2.88e-4,-0.004 5.61e-4,-0.004 4.92e-4,-0.009 4e-6,-0.004 -2.4e-5,-0.008 0,-0.0125 3.3e-5,-0.004 -1.26e-4,-0.009 0,-0.0136 2.03e-4,-0.006 4.99e-4,-0.0127 9.83e-4,-0.019 5.15e-4,-0.006 0.0017,-0.0127 0.002,-0.019 3.77e-4,-0.006 6.1e-4,-0.013 9.84e-4,-0.019 2.35e-4,-0.004 1.21e-4,-0.005 0,-0.0103 -1.2e-5,-0.005 5.2e-5,-0.01 0,-0.0147 -5e-5,-0.004 1.67e-4,-0.008 0,-0.0119 -3.84e-4,-0.007 -0.0011,-0.0148 -4.92e-4,-0.0223 2.93e-4,-0.004 -5.96e-4,-0.009 0.0015,-0.013 3.07e-4,-0.005 4.04e-4,-0.01 4.92e-4,-0.0125 2.85e-4,-0.007 -4.19e-4,-0.0132 0.0015,-0.0201 3.84e-4,-0.005 7.25e-4,-0.009 9.84e-4,-0.0141 6.6e-5,-0.003 2.1e-5,-0.006 0,-0.01 -5e-6,-7.3e-4 5e-6,-0.001 0,-0.002 -3.4e-5,-0.004 -3.59e-4,-0.007 -4.92e-4,-0.0109 -1.62e-4,-0.005 -6.28e-4,-0.0105 -4.92e-4,-0.0152 v -0.0152 c 2e-6,-0.005 -10e-6,-0.0106 0,-0.0158 1.2e-5,-0.005 -6.6e-5,-0.01 0,-0.0147 8.3e-5,-0.005 2.1e-4,-0.0109 4.92e-4,-0.0163 2.01e-4,-0.004 5.25e-4,-0.008 4.92e-4,-0.0114 -4e-6,-0.006 2.2e-5,-0.0127 0,-0.019 -2.3e-5,-0.005 9.5e-5,-0.0101 0,-0.0152 -4.9e-5,-0.002 -2.82e-4,-0.004 -4.92e-4,-0.006 -6e-4,-0.006 -0.0011,-0.0128 -9.84e-4,-0.019 v -0.0125 -0.0136 -0.0157 c 1e-6,-0.005 -2e-6,-0.0105 0,-0.0157 3e-6,-0.005 -1.2e-5,-0.01 0,-0.0147 1.5e-5,-0.005 4.26e-4,-0.009 4.92e-4,-0.0141 8.7e-5,-0.005 -1.8e-4,-0.0105 0,-0.0157 3.2e-5,-0.001 4.58e-4,-0.002 4.92e-4,-0.003 v -5.4e-4 -5.5e-4 -5.4e-4 c -3.61e-4,-0.004 -8.86e-4,-0.008 -9.84e-4,-0.0114 -5.93e-4,-0.005 -0.0013,-0.0105 -0.0015,-0.0152 -4.75e-4,-0.007 -0.0011,-0.0136 -9.83e-4,-0.0201 3e-6,-0.004 -2.4e-5,-0.008 0,-0.0114 2.9e-5,-0.004 3.47e-4,-0.008 4.91e-4,-0.0125 2.2e-4,-0.006 2.68e-4,-0.0121 9.84e-4,-0.0179 -6.4e-5,-5.4e-4 2.8e-5,-0.002 0,-0.004 -8e-6,-4.7e-4 -2.6e-5,0.001 0,-0.002 -1.8e-4,-0.003 -8.01e-4,-0.006 -9.84e-4,-0.009 -2.9e-4,-0.004 -2.18e-4,-0.008 -4.91e-4,-0.0114 -7.71e-4,-0.007 -0.0026,-0.0145 -0.0025,-0.0217 -1.2e-5,-0.003 4.8e-5,-0.006 0,-0.009 -5.5e-5,-0.003 -3.48e-4,-0.005 -4.92e-4,-0.008 -2.92e-4,-0.005 -6.77e-4,-0.0111 -4.92e-4,-0.0163 0,-0.004 -4.9e-4,-0.008 -4.91e-4,-0.0114 -10e-7,-0.005 7e-6,-0.008 0,-0.0136 -8e-6,-0.005 3.8e-5,-0.0109 0,-0.0163 -3.1e-5,-0.004 1.35e-4,-0.007 0,-0.0114 -1.5e-4,-0.003 -6.47e-4,-0.007 -9.84e-4,-0.0103 -2.2e-4,-0.003 -2.96e-4,-0.006 -4.92e-4,-0.009 -3.7e-4,-0.004 -8.23e-4,-0.009 -9.83e-4,-0.013 -3.8e-4,-0.006 -6.7e-4,-0.0114 -4.92e-4,-0.0174 v -0.0163 c 0,-0.004 -4e-6,-0.009 0,-0.013 4e-6,-0.004 -2.6e-5,-0.008 0,-0.0125 3.2e-5,-0.004 -1.71e-4,-0.008 0,-0.0125 2e-4,-0.005 5.67e-4,-0.008 9.84e-4,-0.0125 v -5.4e-4 c -2e-6,-3.5e-4 -8e-6,0.001 0,-0.002 2.9e-5,-0.002 4.48e-4,-0.003 4.91e-4,-0.005 1.41e-4,-0.005 2e-6,-0.0108 4.92e-4,-0.0163 6.06e-4,-0.007 7.81e-4,-0.003 9.84e-4,-0.0103 2.74e-4,-0.007 5.33e-4,-0.0134 9.83e-4,-0.0201 4.95e-4,-0.007 4.06e-4,-0.0134 9.84e-4,-0.0201 8.5e-5,-0.001 8.4e-5,-0.004 0,-0.008 6e-6,-0.003 -3.1e-5,-0.006 0,-0.0103 4.6e-5,-0.005 3.24e-4,-0.009 4.91e-4,-0.0141 2.67e-4,-0.007 -6.72e-4,-0.0133 0.002,-0.0201 1.01e-4,-7.3e-4 3.76e-4,-0.001 4.92e-4,-0.002 v -5.5e-4 -5.4e-4 c 1.1e-5,-8.7e-4 1.5e-5,-0.002 0,-0.002 v -0.007 -0.008 -0.0103 -0.0103 -0.0103 -0.0141 -0.0136 c 0,-0.005 2e-6,-0.009 0,-0.0141 -3e-6,-0.005 1.5e-5,-0.01 0,-0.0152 -1.7e-5,-0.006 8.6e-5,-0.0108 0,-0.0163 -4.5e-5,-0.003 -2.98e-4,-0.006 -4.92e-4,-0.008 1.43e-4,-6.3e-4 -4.51e-4,-0.004 -4.91e-4,-0.004 -2.2e-4,-0.002 -2.88e-4,-0.003 -4.92e-4,-0.005 v -5.5e-4 c -8.36e-4,-0.007 -0.0023,-0.0132 -0.002,-0.0201 6.6e-5,-0.004 2.63e-4,-0.009 4.92e-4,-0.013 v -0.003 -5.4e-4 -5.5e-4 c -1.87e-4,-0.004 -2.83e-4,-0.01 -4.92e-4,-0.0141 -1.7e-4,-0.006 -6.02e-4,-0.0107 -4.92e-4,-0.0163 5.8e-5,-0.005 2.92e-4,-0.0105 4.92e-4,-0.0152 6.2e-5,-0.001 1.66e-4,-0.008 4.92e-4,-0.0103 6.7e-5,-0.005 1.63e-4,-0.0109 4.91e-4,-0.0163 2.06e-4,-0.003 6.91e-4,-0.006 9.84e-4,-0.009 -2.2e-5,6.3e-4 0,-0.001 0,-0.002 v -0.008 c -2e-6,-0.004 7e-6,-0.008 0,-0.0125 -8e-6,-0.004 3.7e-5,-0.009 0,-0.0136 -3.5e-5,-0.003 1.33e-4,-0.007 0,-0.0103 -2.51e-4,-0.007 -9.35e-4,-0.0134 -4.92e-4,-0.0201 1.7e-5,-2.6e-4 3.45e-4,-0.003 4.92e-4,-0.005 -9e-6,6.3e-4 0,-0.002 0,-0.002 -2e-6,-0.005 8e-6,-0.01 0,-0.0141 -10e-6,-0.005 5.1e-5,-0.009 0,-0.0136 -2.9e-5,-0.002 3.3e-5,-0.005 0,-0.007 -2.38e-4,-0.004 -0.0014,-0.007 -0.0015,-0.0109 1.51e-4,10e-4 2.23e-4,-0.002 0,-0.003 -0.0012,-0.009 -0.003,-0.0187 -0.0025,-0.0277 2.27e-4,-0.006 4.08e-4,-0.0107 9.83e-4,-0.0163 2.4e-4,-0.002 7.8e-4,-0.008 9.84e-4,-0.0114 9.7e-5,-0.002 4.1e-5,-0.005 0,-0.009 0,-0.003 2e-6,-0.006 0,-0.0103 -2e-6,-0.003 1.1e-5,-0.006 0,-0.0103 -1.1e-5,-0.003 4.8e-5,-0.006 0,-0.009 -2.6e-5,-0.001 -3.81e-4,-0.002 -4.92e-4,-0.003 -5.25e-4,-0.006 -0.0012,-0.0128 -9.83e-4,-0.019 8.8e-5,-0.005 5.39e-4,-0.008 9.83e-4,-0.0136 2.3e-4,-0.002 2.17e-4,-0.002 4.92e-4,-0.004 v -5.5e-4 -5.4e-4 -5.4e-4 -5.5e-4 c 1e-6,-0.003 -6e-6,-0.005 0,-0.008 9e-6,-0.003 -4.2e-5,-0.006 0,-0.009 7.1e-5,-0.004 1.93e-4,-0.008 4.92e-4,-0.0125 3.86e-4,-0.005 0.0016,-0.0105 0.0025,-0.0152 v -5.4e-4 l 4.92e-4,-5.4e-4 c 1.2e-5,-5.2e-4 -1.2e-5,0.001 0,-0.002 v -5.5e-4 -0.003 -0.008 -0.009 -0.009 h 0.05163 c 0.0072,-0.007 0.01398,-0.0141 0.02262,-0.0179 5.28e-4,-0.002 0.0014,-0.005 0.002,-0.007 l 0.0079,0.003 c 0.0044,-10e-4 0.0089,-0.002 0.01328,-0.003 6.44e-4,-1.1e-4 0.0013,1e-4 0.002,0 -6.34e-4,1.5e-4 -0.0013,0.001 -0.002,0.001 -0.002,6.3e-4 -0.0039,0.001 -0.0059,0.002 -0.0011,5.5e-4 -0.0024,0.001 -0.0034,0.002 l 0.111629,0.0402 c 6.23e-4,-0.002 1.25e-4,-0.001 -4.92e-4,0.002 l 0.136217,0.002 c 0.0017,-0.0766 0.0028,-0.15322 0.0059,-0.22971 0.0037,-0.0738 0.0087,-0.14758 0.01623,-0.22102 0.0051,-0.0468 0.01111,-0.0932 0.01524,-0.14011 0.0017,-0.0201 0.0026,-0.0401 0.0034,-0.0603 h -0.379143 v -0.51047 h -0.02852 c 0.0018,-0.0479 0.0016,-0.0987 0.0084,-0.14662 v -0.0342 -0.0152 -0.101 h 0.02016 V 87.581541 h 6.843273 c 2.622077,0 4.59815,0.601247 5.927133,1.804537 1.346923,1.185328 2.020624,2.955022 2.020624,5.307719 0,2.352663 -0.673701,4.140089 -2.020624,5.361483 -1.328983,1.20338 -3.305056,1.80508 -5.927133,1.80508 h -2.54041 v 5.4e-4 c 1.6e-5,0.004 -1.62e-4,0.008 -4.92e-4,0.0119 -1.4e-4,0.002 -4.46e-4,0.003 -4.92e-4,0.005 -6.6e-5,0.002 1.6e-5,0.004 0,0.005 -1.8e-5,0.002 4e-6,0.004 0,0.006 -4e-6,0.002 10e-7,0.004 0,0.007 v 0.008 5.4e-4 5.5e-4 5.4e-4 c 3.1e-5,2.5e-4 -2.9e-5,0.001 0,0.001 4e-5,0.001 9e-6,0.003 0,0.002 9.3e-5,9.7e-4 4.13e-4,0.002 4.92e-4,0.003 4.7e-5,8.4e-4 4.5e-4,0.001 4.92e-4,0.002 7e-5,6.3e-4 -6.9e-5,-0.001 0,0.002 v 5.4e-4 c 4.47e-4,0.004 8.52e-4,0.007 9.83e-4,0.0109 1.09e-4,0.004 -1.7e-5,0.008 0,0.0119 9e-5,0.004 1.73e-4,0.008 0,0.0125 -1.83e-4,0.002 -0.0012,0.007 -9.83e-4,0.005 -6.7e-5,0.004 -1.3e-5,0.008 -4.92e-4,0.0114 l -4.92e-4,5.4e-4 c -4e-5,0.001 1.2e-5,0.003 0,0.004 6.4e-5,0.004 -6.7e-5,0.009 -4.91e-4,0.0136 -7.8e-5,8e-4 -4.41e-4,0.001 -4.92e-4,0.002 v 5.5e-4 5.4e-4 5.4e-4 c 7.4e-5,4.4e-4 4.45e-4,0.001 4.92e-4,0.001 v 5.4e-4 c 7.5e-4,0.004 0.0011,0.008 0.0015,0.0125 2.81e-4,0.004 4.38e-4,0.008 4.92e-4,0.0125 3.3e-5,0.003 -8e-6,0.006 0,0.009 9e-5,0.005 -6.43e-4,0.009 -9.84e-4,0.0136 -1.02e-4,10e-4 3.3e-5,0.003 0,0.004 -3.4e-5,10e-4 9e-6,0.002 0,0.004 -9e-6,0.002 2e-6,0.005 0,0.007 v 0.008 0.0103 0.0114 c 9.3e-5,0.005 -1.07e-4,0.009 -4.92e-4,0.0147 -1.98e-4,0.002 -4.12e-4,0.005 -4.91e-4,0.007 -5.7e-5,0.002 1.4e-5,0.004 0,0.005 -10e-6,0.001 2e-6,0.002 0,0.004 v 5.4e-4 0.002 l 4.91e-4,5.5e-4 c 1.84e-4,0.002 -9.2e-5,0.004 0,0.007 v 5.4e-4 h 4.92e-4 c 2.7e-5,6.9e-4 -2.1e-5,-0.001 0,0.002 1.19e-4,10e-4 4.52e-4,0.002 4.92e-4,0.003 3.14e-4,0.004 4.36e-4,0.008 4.92e-4,0.0114 6e-6,6.3e-4 -6e-6,-0.001 0,0.002 10e-6,10e-4 -6e-6,0.002 0,0.003 3e-6,5.8e-4 -4e-6,0.002 0,0.002 2.53e-4,0.003 3.63e-4,0.006 4.91e-4,0.009 1.41e-4,0.003 4.61e-4,0.007 4.92e-4,0.0103 2.5e-5,0.003 -6e-6,0.007 0,0.0103 3e-6,0.003 -10e-7,0.006 0,0.008 v 0.008 c -4.4e-5,0.004 -7.3e-4,0.009 -9.83e-4,0.013 -8.8e-5,0.003 -3.21e-4,0.007 -4.92e-4,0.0103 -2.05e-4,0.003 -3.47e-4,0.005 -4.92e-4,0.008 -8e-5,0.002 1.8e-5,0.004 0,0.005 -1.9e-5,0.002 5e-6,0.004 0,0.006 v 5.5e-4 0.002 c 2e-5,5.1e-4 -3.4e-5,0.001 0,0.001 1.3e-4,10e-4 4.42e-4,0.003 4.92e-4,0.004 3.46e-4,0.004 8.45e-4,0.008 9.83e-4,0.0119 2e-5,5.7e-4 -2e-5,0.001 0,0.002 2.35e-4,0.002 3.5e-4,0.004 4.92e-4,0.007 2.45e-4,0.004 4.34e-4,0.008 4.92e-4,0.0125 3.9e-5,0.003 -10e-6,0.006 0,0.009 6e-6,0.003 -10e-7,0.006 0,0.008 1.05e-4,0.005 -8.5e-5,0.009 -4.92e-4,0.0136 -1.41e-4,0.002 -4.53e-4,0.003 -4.92e-4,0.005 -1.4e-4,0.004 -2.44e-4,0.008 -4.91e-4,0.0114 -10e-5,0.002 -4.64e-4,0.005 -4.92e-4,0.007 -3.4e-5,0.003 7e-6,0.006 0,0.009 -7.1e-5,0.003 -6.1e-5,0.007 0,0.008 3.04e-4,0.005 8.45e-4,0.009 9.83e-4,0.0136 1.76e-4,0.005 2.01e-4,0.0106 0,0.0157 -1.07e-4,0.002 -3.85e-4,0.004 -4.91e-4,0.007 1.1e-5,9e-4 -1.1e-5,0.003 0,0.003 v 5.4e-4 5.5e-4 c 1.55e-4,0.002 3.67e-4,0.002 4.91e-4,0.004 2.43e-4,0.004 -6.5e-5,0.008 0,0.0125 1.71e-4,0.005 -1.41e-4,0.0105 -4.91e-4,0.0152 -1.64e-4,0.002 3.5e-5,0.005 0,0.007 -5.6e-5,0.003 1.2e-5,0.006 0,0.0103 -1.3e-5,0.004 10e-7,0.008 0,0.0114 1.02e-4,0.006 -6.69e-4,0.0109 -9.84e-4,0.0163 -1.79e-4,0.003 6.6e-5,0.006 0,0.009 -8.2e-5,0.004 -7.7e-4,0.008 -9.83e-4,0.0114 -1.06e-4,0.002 3.3e-5,0.005 0,0.007 -4e-5,0.004 6e-6,0.008 0,0.0114 -1.18e-4,0.004 -1.94e-4,0.009 0,0.013 2.37e-4,0.005 4.09e-4,0.01 4.91e-4,0.0152 6.2e-5,0.005 4.76e-4,0.009 4.92e-4,0.0141 1.23e-4,0.006 -2.33e-4,0.0117 -4.92e-4,0.0174 -1.93e-4,0.004 -4.23e-4,0.008 -4.91e-4,0.0125 -5.6e-5,0.005 -2.89e-4,0.0114 -4.92e-4,0.0168 -1.91e-4,0.005 -4.37e-4,0.0101 -4.92e-4,0.0152 -3.3e-5,0.004 -2.08e-4,0.009 0,0.013 2.57e-4,0.005 1.45e-4,0.0109 4.92e-4,0.0163 5.15e-4,0.007 8.33e-4,0.0134 9.83e-4,0.0201 1.6e-5,0.006 2.54e-4,0.0123 4.92e-4,0.0185 1.63e-4,0.007 6.56e-4,0.0154 9.84e-4,0.0228 1.47e-4,0.007 6.16e-4,0.0134 9.83e-4,0.0201 3.52e-4,0.006 3.8e-4,0.0126 4.92e-4,0.019 8e-5,0.005 4.74e-4,0.008 4.92e-4,0.0136 1.8e-5,0.007 -2e-6,0.0155 0,0.0228 4.5e-5,0.009 -7.02e-4,0.0168 -9.84e-4,0.0255 -9.5e-5,0.009 1.13e-4,0.0186 -0.0015,0.0277 -4.22e-4,0.006 -8.18e-4,0.0114 -9.84e-4,0.0174 -1.28e-4,0.005 2.9e-5,0.0105 0,0.0152 -2.7e-5,0.005 4e-6,0.0105 0,0.0157 1.33e-4,0.006 -2.84e-4,0.0116 0,0.0174 3.9e-4,0.007 8.38e-4,0.0141 9.84e-4,0.0212 1.44e-4,0.008 -4.2e-5,0.0159 0,0.0239 1.55e-4,0.008 -1.75e-4,0.0172 -4.92e-4,0.0255 -2.21e-4,0.006 -4.2e-4,0.0116 -4.92e-4,0.0174 -4.3e-5,0.007 -2.55e-4,0.0134 -4.91e-4,0.0201 -1.88e-4,0.007 -6.26e-4,0.0135 -9.84e-4,0.0201 -1.33e-4,0.002 -4.01e-4,0.005 -4.92e-4,0.007 2.03e-4,0.002 -1.22e-4,0.003 0,0.005 v 5.5e-4 c 1.02e-4,0.001 4.53e-4,0.003 4.92e-4,0.004 4.1e-5,0.003 2.1e-5,0.005 0,0.008 -1.8e-5,0.003 6e-6,0.005 0,0.008 1.27e-4,0.004 -2.48e-4,0.008 -4.92e-4,0.0125 -1.54e-4,0.003 -4.52e-4,0.006 -4.91e-4,0.008 -4.4e-5,0.003 1e-5,0.007 0,0.0103 -9e-6,0.003 0,0.007 0,0.0103 -2e-6,0.003 0,0.006 0,0.009 v 0.009 0.009 c 4.3e-5,0.002 -2.3e-5,0.005 0,0.008 -7e-6,3.4e-4 8e-6,0.001 0,0.001 1.7e-4,0.003 3.31e-4,0.006 4.91e-4,0.007 4.87e-4,0.005 7.66e-4,0.009 9.84e-4,0.0141 v 5.4e-4 c 9.3e-5,0.001 4.15e-4,0.002 4.92e-4,0.003 2.57e-4,0.004 3.58e-4,0.007 4.91e-4,0.0109 1.51e-4,0.005 7.29e-4,0.0101 9.84e-4,0.0152 3.92e-4,0.006 3.56e-4,0.0119 0,0.0179 -2.1e-4,0.003 -4.36e-4,0.006 -4.92e-4,0.009 -5.9e-5,0.003 1.6e-5,0.007 0,0.0103 -1.4e-5,0.004 3e-6,0.009 0,0.013 4.7e-5,0.005 3.14e-4,0.0104 4.92e-4,0.0152 3.54e-4,0.006 1.29e-4,0.0108 4.92e-4,0.0163 3.45e-4,0.006 3.23e-4,0.0115 4.91e-4,0.0174 1.54e-4,0.005 4.51e-4,0.0113 4.92e-4,0.0168 3.2e-5,0.004 -7e-6,0.009 0,0.0136 1.9e-4,0.006 -3e-4,0.0129 -9.83e-4,0.019 -3.75e-4,0.004 -6.45e-4,0.008 -9.84e-4,0.0125 -3.37e-4,0.004 -3.64e-4,0.007 -4.92e-4,0.0114 -1.24e-4,0.005 -4.63e-4,0.0103 -4.91e-4,0.0152 -2.7e-5,0.005 5e-6,0.0108 0,0.0163 3.01e-4,0.006 3.32e-4,0.012 4.91e-4,0.0179 1.8e-4,0.007 4.44e-4,0.0134 4.92e-4,0.0201 4e-5,0.006 -8e-6,0.0128 0,0.019 1.27e-4,0.006 -2.15e-4,0.0126 -4.92e-4,0.019 -1.99e-4,0.004 -4.28e-4,0.008 -4.91e-4,0.0125 -6e-5,0.004 1.1e-5,0.008 0,0.0125 -1.2e-5,0.005 1e-6,0.0101 0,0.0152 3.28e-4,0.004 7.3e-5,0.008 4.91e-4,0.0125 3.9e-4,0.005 7.55e-4,0.0105 9.84e-4,0.0152 9.1e-5,0.005 7.17e-4,0.01 9.83e-4,0.0152 3.47e-4,0.007 3.76e-4,0.0134 4.92e-4,0.0201 1.56e-4,0.007 2.45e-4,0.0145 0,0.0217 -1.36e-4,0.004 -2.83e-4,0.008 -4.92e-4,0.0114 v 5.4e-4 c 1.59e-4,0.002 3.58e-4,0.003 4.92e-4,0.004 3.42e-4,0.004 4e-4,0.008 4.92e-4,0.0114 4.9e-5,0.002 -1.2e-5,0.005 0,0.007 1.11e-4,0.001 4.39e-4,0.004 4.92e-4,0.005 3.52e-4,0.005 4.24e-4,0.009 4.91e-4,0.0136 9e-6,0.002 -1.4e-5,0.004 0,0.006 6e-6,6.5e-4 -3e-6,0.003 0,0.002 2.62e-4,0.003 8.65e-4,0.006 9.84e-4,0.009 1.47e-4,0.004 -3.1e-5,0.008 0,0.0114 2.2e-5,0.003 -5e-6,0.007 0,0.0103 4e-6,0.003 0,0.005 0,0.008 7.6e-5,0.004 1.7e-4,0.008 0,0.0119 -2.26e-4,0.002 -3.99e-4,0.004 -4.92e-4,0.007 -8.8e-5,0.002 2.3e-5,0.004 0,0.006 -2.9e-5,0.004 -4.87e-4,0.008 -4.92e-4,0.0114 -5.4e-5,0.004 3.58e-4,0.004 4.92e-4,0.007 1.99e-4,0.004 -7.7e-5,0.007 0,0.0109 7e-5,0.004 4.79e-4,0.007 4.92e-4,0.0109 1.1e-5,0.004 -2e-6,0.007 0,0.0114 v 5.5e-4 5.4e-4 5.4e-4 c 1.43e-4,0.002 3.6e-4,0.002 4.92e-4,0.004 2.3e-4,0.003 -7.3e-5,0.007 0,0.0103 l 4.91e-4,5.4e-4 c 4.3e-5,5.2e-4 -3.6e-5,0.001 0,0.002 2.03e-4,0.003 3.58e-4,0.006 4.92e-4,0.008 4.24e-4,0.004 7.57e-4,0.008 9.84e-4,0.0114 2.51e-4,0.004 -7.4e-5,0.009 0,0.013 1.74e-4,0.005 -1.95e-4,0.01 -4.92e-4,0.0147 -1.33e-4,0.003 -3.03e-4,0.006 -4.92e-4,0.009 -2.6e-4,0.003 -3.68e-4,0.006 -4.92e-4,0.009 -9.3e-5,0.003 2.8e-5,0.006 0,0.009 7.8e-5,0.006 -3.43e-4,0.0112 -9.83e-4,0.0168 -3.87e-4,0.003 -3.4e-4,0.006 -4.92e-4,0.008 -1.24e-4,0.002 -4.54e-4,0.005 -4.92e-4,0.007 -3.4e-5,0.003 7e-6,0.005 0,0.008 5.2e-5,0.005 -2.13e-4,0.009 -4.91e-4,0.0141 -2.19e-4,0.004 -3.8e-4,0.007 -4.92e-4,0.0114 -3.9e-5,0.004 -1.8e-4,0.008 -4.92e-4,0.0125 -2.12e-4,0.003 -4.23e-4,0.006 -4.92e-4,0.009 -2.8e-5,0.002 -5e-6,0.003 0,0.004 2.26e-4,0.002 3.94e-4,0.002 4.92e-4,0.003 4.68e-4,0.003 4.7e-5,0.002 4.92e-4,0.005 6.49e-4,0.005 0.0013,0.01 0.0015,0.0147 9.7e-5,0.004 -3.86e-4,0.009 -4.92e-4,0.013 -1.07e-4,0.004 -5.7e-4,0.007 -9.83e-4,0.0109 v 5.4e-4 c 6e-6,0.004 -3e-6,0.007 0,0.0103 5.7e-5,0.005 -1.93e-4,0.0105 -4.92e-4,0.0152 -2.66e-4,0.004 -2.37e-4,0.007 -4.92e-4,0.0114 -4.05e-4,0.004 -6.03e-4,0.008 -9.83e-4,0.0125 -2.75e-4,0.003 -8.49e-4,0.006 -9.84e-4,0.009 -8.5e-5,0.002 3e-6,0.005 0,0.007 v 5.5e-4 c 2.05e-4,0.005 4.45e-4,0.01 4.92e-4,0.0147 3.4e-5,0.004 -9e-6,0.008 0,0.0114 7e-6,0.003 -10e-7,0.006 0,0.009 4e-5,0.004 -3.14e-4,0.008 -4.92e-4,0.0125 -1.64e-4,0.002 -7e-5,0.005 0,0.007 2.48e-4,0.004 3.73e-4,0.008 4.92e-4,0.0125 2.18e-4,0.005 3.05e-4,0.0102 0,0.0152 5.14e-4,0.003 1.39e-4,0.005 0.0015,0.008 10e-4,0.005 0.002,0.01 0.003,0.0152 9.51e-4,0.006 0.0015,0.0117 0.002,0.0174 3.39e-4,0.004 4.01e-4,0.009 4.92e-4,0.0136 5.9e-5,0.003 -10e-6,0.006 0,0.009 7e-6,0.004 -10e-7,0.007 0,0.0109 v 0.009 c 1.5e-4,0.004 -2.22e-4,0.008 -4.92e-4,0.0125 -3.9e-5,0.004 -7.16e-4,0.008 -9.84e-4,0.0114 -1.33e-4,0.002 5.6e-5,0.005 0,0.008 3e-6,0.005 -5.57e-4,0.009 -9.83e-4,0.0136 -1.63e-4,0.002 5.9e-5,0.004 0,0.006 -2.3e-5,0.002 -4.16e-4,0.004 -4.92e-4,0.005 h -0.0034 c 2.03e-4,0.002 4.84e-4,0.004 4.92e-4,0.007 7.4e-5,0.003 -1.91e-4,0.005 0,0.008 3.76e-4,0.005 9.35e-4,0.0103 9.83e-4,0.0152 1.29e-4,0.004 2.47e-4,0.008 4.92e-4,0.0125 1.51e-4,0.005 2.5e-5,0.0101 0,0.0152 v 0.013 0.0157 0.0136 0.0136 0.013 c 0,0.006 3e-6,0.0112 0,0.0168 -3e-6,0.005 1.7e-5,0.011 0,0.0163 -1.9e-5,0.005 1.12e-4,0.009 0,0.0141 -1.23e-4,0.005 -1.54e-4,0.009 -4.92e-4,0.0136 -2.44e-4,0.004 -5.02e-4,0.007 -4.92e-4,0.0109 -1.35e-4,0.006 -6.08e-4,0.0115 -9.83e-4,0.0174 -3.4e-4,0.005 -3.31e-4,0.0114 -4.92e-4,0.0168 -1.84e-4,0.004 -6.01e-4,0.008 -4.92e-4,0.0125 v 0.0119 0.0109 c 10e-7,0.005 -2e-6,0.009 0,0.0141 4e-6,0.004 -1.8e-5,0.009 0,0.013 1.8e-5,0.004 4.1e-4,0.008 4.92e-4,0.0125 8.4e-5,0.003 -2.01e-4,0.006 0,0.009 3.92e-4,0.005 8.61e-4,0.009 9.84e-4,0.0136 2.63e-4,0.005 8.93e-4,0.0102 9.83e-4,0.0152 8.1e-5,0.003 -2.25e-4,0.006 0,0.009 4.45e-4,0.005 8.72e-4,0.01 9.84e-4,0.0147 8.3e-5,0.004 7e-5,0.009 0,0.0136 -8.2e-5,0.005 -1.23e-4,0.0105 -4.92e-4,0.0157 -1.77e-4,0.002 -2.64e-4,0.003 -4.92e-4,0.005 -6.5e-5,6.3e-4 7.3e-5,0.001 0,0.002 v 5.5e-4 5.4e-4 c -9e-5,0.001 -3.31e-4,0.003 -4.92e-4,0.004 h 0.002 c 8.3e-5,0.004 7e-6,0.008 0,0.0125 v 0.0114 0.0125 0.0114 0.0114 0.0152 c 0,0.004 2e-6,0.009 0,0.0136 -2e-6,0.004 1.3e-5,0.009 0,0.013 -1.7e-5,0.005 7.3e-5,0.008 0,0.0136 -9.3e-5,0.005 -2.52e-4,0.0105 -4.91e-4,0.0152 -2.01e-4,0.004 -6.15e-4,0.008 -4.92e-4,0.0125 v 0.0152 0.0152 0.0141 c -10e-7,0.006 6e-6,0.0107 0,0.0163 -8e-6,0.005 4.1e-5,0.01 0,0.0152 -5e-5,0.006 1.69e-4,0.0113 0,0.0168 -1.65e-4,0.005 -7.43e-4,0.0106 -9.84e-4,0.0157 v 0.0206 0.0168 0.0152 c 0,0.005 4e-6,0.0106 0,0.0157 -3e-6,0.005 2.4e-5,0.01 0,0.0147 -3e-5,0.005 10e-5,0.009 0,0.0141 -1.33e-4,0.006 -1.86e-4,0.0113 -4.91e-4,0.0168 -1.9e-4,0.004 -4.98e-4,0.008 -4.92e-4,0.0114 -7e-6,0.005 2.6e-5,0.01 0,0.0147 -3.6e-5,0.006 1.5e-4,0.012 0,0.0179 -1.59e-4,0.006 -2.12e-4,0.0115 -4.92e-4,0.0174 -2.77e-4,0.005 -3.55e-4,0.009 -4.92e-4,0.0141 1.3e-5,0.004 4.24e-4,0.009 4.92e-4,0.0136 5.5e-5,0.003 -2.18e-4,0.007 0,0.0103 3.25e-4,0.005 9.57e-4,0.01 9.84e-4,0.0147 1.57e-4,0.005 2.74e-4,0.009 4.91e-4,0.0136 1.54e-4,0.006 1.4e-5,0.0116 0,0.0174 -2e-6,0.005 1.1e-5,0.0109 0,0.0163 -9e-6,0.005 5.7e-5,0.0106 0,0.0157 -6.2e-5,0.005 -1.44e-4,0.0101 -4.91e-4,0.0152 -6.9e-5,9.4e-4 -4.33e-4,0.006 -4.92e-4,0.006 -3e-6,0.002 1.2e-5,0.005 0,0.008 -1.9e-5,0.003 8e-5,0.006 0,0.009 -1.22e-4,0.005 -1.5e-4,0.01 -4.92e-4,0.0147 -3.15e-4,0.005 -7.59e-4,0.009 -9.83e-4,0.0136 -3.09e-4,0.004 -6e-4,0.009 -9.84e-4,0.013 -3.11e-4,0.004 -7.44e-4,0.007 -9.83e-4,0.0114 h 0.003 v 5.4e-4 c 9e-6,0.003 -4.3e-5,0.006 0,0.009 4.3e-5,0.003 -1.27e-4,0.006 0,0.008 2.73e-4,0.006 7.42e-4,0.0113 4.92e-4,0.0168 -1.71e-4,0.006 -5.35e-4,0.0115 -9.84e-4,0.0174 -3.33e-4,0.005 -1.34e-4,0.01 -4.91e-4,0.0141 -3.07e-4,0.004 -8.3e-4,0.008 -9.84e-4,0.0114 -2.5e-4,0.004 -5.34e-4,0.008 -4.92e-4,0.0119 -1.15e-4,0.005 -2.34e-4,0.009 -4.91e-4,0.0136 -9.3e-5,-0.001 -5e-6,-0.001 0,0.002 4e-6,0.002 -1.2e-5,0.004 0,0.007 3e-6,6.4e-4 -5e-6,0.001 0,0.002 3e-5,0.004 -1.12e-4,0.008 0,0.0119 1.32e-4,0.004 7.17e-4,0.008 9.83e-4,0.0125 1.56e-4,0.005 -2.7e-5,0.01 0,0.0141 4.8e-5,0.003 3.39e-4,0.006 4.92e-4,0.009 2.67e-4,0.005 4.58e-4,0.01 4.92e-4,0.0147 6.2e-5,0.003 2.74e-4,0.006 4.91e-4,0.009 3.17e-4,0.005 5.86e-4,0.0102 4.92e-4,0.0152 1e-6,0.003 -4e-6,0.006 0,0.0103 4e-6,0.004 -2e-5,0.008 0,0.0119 2.6e-5,0.004 -9.3e-5,0.009 0,0.013 8.2e-5,0.004 2.03e-4,0.007 4.92e-4,0.0109 3.01e-4,0.005 5.52e-4,0.009 4.92e-4,0.0136 v 0.013 0.013 0.0109 0.0109 0.0103 c 0,0.004 -2e-6,0.008 0,0.0114 10e-7,0.004 -9e-6,0.008 0,0.0125 7e-6,0.004 -3.9e-5,0.007 0,0.0103 4.2e-5,0.003 3.55e-4,0.007 4.91e-4,0.0103 1.96e-4,0.005 3.92e-4,0.009 4.92e-4,0.0136 1.06e-4,0.004 2.09e-4,0.008 4.92e-4,0.0114 2.89e-4,0.005 4.15e-4,0.01 4.92e-4,0.0147 1.39e-4,0.004 2.74e-4,0.008 4.91e-4,0.0125 1.33e-4,0.005 1.8e-5,0.0102 0,0.0152 v 0.0141 c 1e-6,0.005 -3e-6,0.0106 0,0.0158 5e-6,0.004 -2.1e-5,0.008 0,0.0114 2e-5,0.003 4.04e-4,0.006 4.92e-4,0.009 1.1e-4,0.003 2.91e-4,0.007 4.92e-4,0.0103 2.72e-4,0.005 5.4e-5,0.0109 0,0.0163 v 0.0114 0.0103 0.0103 0.01 c 10e-7,0.003 -2e-6,0.006 0,0.009 2e-6,0.003 -10e-6,0.006 0,0.009 10e-6,0.002 -4e-5,0.005 0,0.007 4.4e-5,0.003 4.18e-4,0.006 4.92e-4,0.008 h -0.003 v 0.004 0.009 0.0125 c -10e-7,0.005 5e-6,0.009 0,0.0141 -5e-6,0.005 3e-5,0.01 0,0.0147 -3.7e-5,0.005 -3.26e-4,0.011 -4.92e-4,0.0163 -1.34e-4,0.004 -1.93e-4,0.008 -4.91e-4,0.0114 v 5.4e-4 c -4.2e-5,0.003 8.4e-5,0.005 0,0.008 -4.4e-5,0.004 -3.11e-4,0.008 -4.92e-4,0.0114 -8.5e-5,0.002 -3.6e-4,0.004 -4.92e-4,0.005 v 5.4e-4 c 6.32e-4,0.003 0.0012,0.007 0.0015,0.0103 3.63e-4,0.004 -8.2e-5,0.002 4.92e-4,0.007 4.09e-4,0.004 6.66e-4,0.005 9.84e-4,0.008 4.32e-4,0.004 3.76e-4,0.008 4.91e-4,0.0125 1.1e-4,0.005 -3.08e-4,0.009 -4.91e-4,0.0141 -1.28e-4,0.004 3.4e-5,0.008 0,0.0119 -3.1e-5,0.004 8e-6,0.008 0,0.0114 3.7e-5,0.003 -2.6e-5,0.005 0,0.008 v 5.4e-4 c 2.74e-4,0.004 3.55e-4,0.007 4.91e-4,0.0114 8.2e-5,0.003 2.64e-4,0.006 4.92e-4,0.01 3.46e-4,0.005 9.1e-4,0.009 9.84e-4,0.0141 6.4e-5,0.004 -1.2e-5,0.009 0,0.0136 9e-6,0.005 -2e-6,0.009 0,0.0141 2.6e-5,0.005 1.15e-4,0.01 0,0.0141 -1.87e-4,0.005 -8.35e-4,0.01 -9.84e-4,0.0147 -8.1e-5,0.006 -1.79e-4,0.0119 -4.92e-4,0.0179 -2.29e-4,0.004 -3.8e-4,0.009 -4.91e-4,0.013 6.5e-5,0.001 -3.5e-5,0.002 0,0.003 2.8e-5,8.1e-4 -5.2e-5,0.002 0,0.003 v 5.5e-4 c 1.52e-4,0.002 3.04e-4,0.004 4.91e-4,0.007 2.35e-4,0.003 6.59e-4,0.006 9.84e-4,0.009 5.78e-4,0.005 9.31e-4,0.01 9.83e-4,0.0147 2.24e-4,0.004 9.73e-4,0.009 9.84e-4,0.013 1.3e-5,0.003 -5.6e-5,0.006 0,0.009 2.9e-5,10e-4 5e-6,0.002 0,0.003 1.97e-4,0.003 0.0011,0.007 9.83e-4,0.0103 2.46e-4,0.005 -1.84e-4,0.0109 -9.83e-4,0.0163 -6.99e-4,0.005 -0.0011,0.009 -0.0025,0.0136 v 5.4e-4 5.4e-4 l -4.92e-4,5.5e-4 v 5.4e-4 c -6.3e-5,8.6e-4 8.4e-5,0.002 0,0.003 v 5.5e-4 c 3.06e-4,0.003 7.08e-4,0.006 9.84e-4,0.009 h 1.620335 c 2.155126,0 3.852942,0.44005 5.092131,1.32014 1.257161,0.88005 2.550505,2.66743 3.879462,5.36148 l 5.145732,10.31839 h 5.846485 L 30.82227,112.3384 c -1.113485,-2.26251 -2.227504,-4.04134 -3.340989,-5.33432 -1.095491,-1.29318 -2.227222,-2.13762 -3.39459,-2.53276 2.244931,-0.64659 3.95181,-1.80517 5.119178,-3.47549 1.18527,-1.67013 1.777697,-3.771992 1.777697,-6.304205 0,-3.879224 -1.131757,-6.780653 -3.39459,-8.702291 C 25.326125,84.06804 21.895104,83.107395 17.29751,83.107395 Z m 57.573293,5.48801 c -0.0024,9e-5 -0.01069,0.0033 -0.01426,0.0043 -0.002,6.01e-4 -0.0051,0.002 -0.0074,0.0027 0.0023,-1.61e-4 0.003,-3.68e-4 0.0054,-5.43e-4 0.0057,-4e-4 0.01204,-0.0012 0.01623,-0.0054 9.04e-4,-9.25e-4 8.15e-4,-0.0011 0,-0.0011 z M 14.027826,104.20577 c -0.0032,0.0157 -0.0036,0.0198 9.84e-4,0 z" />
    <rect
       style="fill:#000000;stroke-width:0.491728"
       id="rect1306"
       width="4.0412059"
       height="39.505829"
       x="90.768135"
       y="78.275513" />
    <path
       id="rect1306-3"
       style="fill:#000000;stroke-width:0.541928"
       transform="matrix(0.82613399,-0.56347372,0.56612899,0.82431667,0,0)"
       d="m 33.776297,118.13957 -4.041126,3.8e-4 -3.8e-4,45.35409 c 0.0056,0.004 0.01144,0.008 0.01717,0.0124 0.01153,0.009 0.02305,0.0176 0.03461,0.0262 0.01027,0.008 0.02049,0.015 0.03094,0.0224 0.0097,0.007 0.01952,0.0133 0.02939,0.0201 l 0.02854,0.0195 c 0.0078,0.005 0.01561,0.0107 0.02386,0.0163 0.0092,0.006 0.01811,0.0124 0.02726,0.0186 0.01113,0.008 0.02207,0.0151 0.03323,0.0227 0.01265,0.009 0.02543,0.0171 0.0382,0.0255 0.0096,0.006 0.01929,0.0121 0.02899,0.0179 0.01095,0.007 0.0219,0.0137 0.03283,0.0205 0.0096,0.006 0.01924,0.0122 0.0287,0.0184 0.01032,0.007 0.02054,0.0131 0.03054,0.0202 0.01113,0.008 0.02224,0.0155 0.03336,0.0234 0.0093,0.007 0.01912,0.0131 0.02854,0.0195 0.008,0.005 0.0156,0.0107 0.02385,0.0163 0.0083,0.006 0.01641,0.0113 0.02471,0.0169 0.0084,0.006 0.01714,0.011 0.02572,0.0163 0.0087,0.005 0.01707,0.0109 0.02572,0.0163 0.0075,0.005 0.01483,0.009 0.0226,0.0136 0.0099,0.006 0.02019,0.0116 0.03,0.0174 0.01181,0.007 0.02356,0.0143 0.03496,0.022 0.0081,0.006 0.01563,0.0106 0.02386,0.0163 0.0076,0.005 0.01543,0.0109 0.02271,0.0161 0.008,0.006 0.01575,0.0114 0.0237,0.0174 0.0071,0.005 0.01408,0.011 0.02127,0.0164 0.0057,0.004 0.01159,0.008 0.01747,0.0119 0.006,0.004 0.01243,0.008 0.01818,0.0118 0.0059,0.004 0.01123,0.008 0.01688,0.0128 0.0063,0.005 0.01255,0.01 0.01872,0.0147 0.003,0.002 0.0062,0.003 0.0092,0.006 0.01207,0.008 0.02398,0.0162 0.03608,0.024 0.01641,0.0105 0.03285,0.0208 0.04901,0.0316 0.01588,0.0106 0.03157,0.0215 0.04728,0.0323 0.01072,0.007 0.02124,0.0145 0.03195,0.0218 0.0095,0.006 0.01909,0.013 0.02854,0.0195 0.0099,0.007 0.01982,0.0138 0.02953,0.0208 0.0085,0.006 0.01701,0.0123 0.0254,0.0186 0.0098,0.007 0.01993,0.0134 0.02982,0.0204 0.0121,0.008 0.02384,0.0168 0.03592,0.0252 0.01083,0.008 0.02151,0.0148 0.03208,0.0226 0.01047,0.008 0.02113,0.0154 0.03179,0.023 0.0087,0.006 0.01738,0.0131 0.02625,0.0192 0.0073,0.005 0.01496,0.0106 0.02228,0.0159 0.0094,0.006 0.01872,0.0128 0.02812,0.0192 0.01269,0.009 0.02533,0.0172 0.03791,0.0259 0.01018,0.007 0.02031,0.0142 0.03038,0.0214 0.0092,0.007 0.01835,0.0133 0.02753,0.0201 0.0085,0.006 0.01705,0.0122 0.0254,0.0186 0.0086,0.006 0.01714,0.0134 0.02567,0.0201 0.0094,0.007 0.01877,0.0144 0.02822,0.0218 0.0084,0.007 0.01731,0.0132 0.02596,0.0196 0.0082,0.006 0.01588,0.0125 0.02426,0.0185 0.0093,0.007 0.0187,0.0136 0.02825,0.0199 0.01006,0.007 0.02019,0.0138 0.03024,0.0207 0.0086,0.006 0.01734,0.0118 0.02598,0.0178 0.0064,0.004 0.01309,0.009 0.01959,0.0134 0.0078,0.006 0.015,0.0106 0.02314,0.0164 0.01067,0.008 0.02188,0.0152 0.0328,0.0224 0.0066,0.004 0.0127,0.008 0.01975,0.0122 0.0087,0.005 0.01766,0.01 0.02617,0.0148 0.0079,0.005 0.01622,0.01 0.02359,0.0149 0.0082,0.006 0.01594,0.0111 0.02399,0.017 0.0082,0.006 0.01609,0.0125 0.02396,0.0189 0.0081,0.006 0.01631,0.0129 0.02439,0.0192 0.0072,0.006 0.01446,0.0105 0.02157,0.016 0.005,0.004 0.01046,0.008 0.01547,0.0112 0.0053,0.004 0.01018,0.007 0.0159,0.0115 0.0049,0.003 0.0094,0.007 0.01419,0.0103 0.0043,0.003 0.009,0.006 0.01321,0.009 0.0045,0.003 0.0086,0.005 0.01323,0.007 0.0058,0.003 0.01191,0.007 0.01707,0.01 0.0026,0.001 0.005,0.003 0.0077,0.005 0.0053,0.002 0.0099,0.004 0.01539,0.007 0.0058,0.003 0.01174,0.006 0.01693,0.009 0.0047,0.003 0.0099,0.006 0.01392,0.009 2.86e-4,2.1e-4 5.7e-4,3.7e-4 8.52e-4,5.8e-4 l 2.93e-4,-4.2e-4 c 0.0045,0.003 0.0091,0.006 0.0132,0.009 0.0051,0.004 0.01039,0.007 0.01534,0.0105 0.0081,0.006 0.01586,0.0112 0.02399,0.017 0.01129,0.008 0.02262,0.0164 0.03363,0.0249 0.0089,0.007 0.01814,0.014 0.02753,0.0201 0.0082,0.005 0.01625,0.0115 0.02471,0.0169 0.0091,0.006 0.01836,0.0109 0.02758,0.0163 0.0104,0.006 0.02064,0.0117 0.03085,0.018 0.009,0.006 0.01812,0.0114 0.027,0.0172 0.0095,0.006 0.01891,0.0125 0.02811,0.0192 0.0114,0.008 0.02282,0.0166 0.03405,0.0252 0.01229,0.009 0.02458,0.0182 0.03703,0.0272 0.0095,0.007 0.01888,0.0139 0.02838,0.0207 0.0085,0.006 0.0177,0.0128 0.02654,0.0188 0.0108,0.008 0.0211,0.0153 0.03179,0.023 0.0081,0.006 0.01568,0.0115 0.02399,0.017 0.0083,0.006 0.01726,0.0118 0.02556,0.0175 0.0129,0.009 0.02522,0.0176 0.03805,0.0266 0.01647,0.0116 0.03293,0.023 0.04925,0.0349 0.01414,0.0103 0.02868,0.0203 0.04257,0.031 0.0014,0.001 0.0037,0.002 0.0051,0.003 0.002,9e-4 0.0037,0.002 0.0061,0.003 0.0068,0.002 0.01371,0.005 0.0201,0.008 0.0079,0.004 0.01465,0.008 0.02218,0.0133 0.0054,0.003 0.01135,0.008 0.01648,0.0106 0.0051,0.003 0.0091,0.005 0.01408,0.008 0.0043,0.003 0.0092,0.006 0.01336,0.008 0.0052,0.003 0.01013,0.007 0.01475,0.0113 0.0028,0.003 0.0071,0.005 0.01007,0.008 0.0044,0.004 0.0085,0.007 0.01318,0.0109 0.0051,0.004 0.0098,0.008 0.01531,0.0124 0.0051,0.004 0.0099,0.008 0.0156,0.0119 0.0045,0.003 0.0082,0.006 0.01321,0.009 0.0046,0.003 0.01052,0.006 0.01464,0.009 0.0047,0.003 0.0082,0.006 0.01305,0.0102 0.0063,0.005 0.01277,0.009 0.0193,0.0138 0.0056,0.004 0.01129,0.008 0.01704,0.0117 0.0052,0.004 0.01082,0.007 0.01576,0.0108 0.0047,0.003 0.0092,0.006 0.01419,0.0103 0.0045,0.003 0.009,0.006 0.01321,0.009 0.0062,0.004 0.01238,0.008 0.01818,0.0118 0.0057,0.004 0.0117,0.007 0.01762,0.0108 0.0054,0.003 0.0115,0.007 0.01648,0.0106 0.0055,0.004 0.01041,0.007 0.01619,0.0111 0.0054,0.004 0.01011,0.007 0.0159,0.0115 0.0049,0.003 0.0098,0.007 0.01491,0.0102 0.0049,0.003 0.0096,0.006 0.01478,0.009 0.0064,0.004 0.01347,0.008 0.01933,0.012 0.0015,9.1e-4 0.0032,0.002 0.0047,0.003 l 0.002,-0.003 c 0.0042,0.003 0.0087,0.007 0.01262,0.01 0.0072,0.005 0.01441,0.0105 0.02157,0.016 l 0.0078,0.006 c 0.0016,0.001 0.0032,0.002 0.0047,0.003 l 0.005,0.003 -2.92e-4,4.3e-4 c 0.0022,0.002 0.0045,0.002 0.0067,0.004 0.0079,0.006 0.0155,0.0108 0.02385,0.0163 0.0082,0.006 0.01625,0.0116 0.02471,0.0169 0.0098,0.006 0.01976,0.0111 0.02958,0.0171 0.0083,0.005 0.01618,0.0116 0.02441,0.0173 l 0.02755,0.0182 c 0.0096,0.007 0.01898,0.013 0.02854,0.0195 0.01154,0.008 0.02297,0.0157 0.0345,0.0236 0.0093,0.006 0.01889,0.0127 0.02811,0.0192 0.0073,0.005 0.01444,0.0105 0.02157,0.016 0.0075,0.006 0.01543,0.0118 0.02255,0.0173 0.0073,0.006 0.01439,0.0115 0.02141,0.0171 0.0085,0.007 0.01687,0.0136 0.02537,0.0205 0.0092,0.007 0.0185,0.0152 0.02793,0.0222 0.0091,0.007 0.01796,0.013 0.0274,0.0194 0.0088,0.006 0.01781,0.0119 0.0267,0.0176 0.0082,0.005 0.01656,0.0102 0.02516,0.0153 0.009,0.006 0.01752,0.0114 0.02657,0.0169 0.009,0.006 0.01809,0.0115 0.027,0.0172 0.0065,0.004 0.01318,0.009 0.01989,0.013 0.0071,0.005 0.01419,0.009 0.02159,0.0141 0.0065,0.004 0.01299,0.009 0.01959,0.0134 0.0083,0.006 0.01618,0.0115 0.02442,0.0173 0.0086,0.006 0.01745,0.0124 0.02582,0.0189 0.0089,0.007 0.01756,0.0138 0.02681,0.0202 0.0073,0.005 0.01515,0.0104 0.02258,0.0154 0.0072,0.005 0.01413,0.01 0.02143,0.0153 0.0066,0.005 0.01303,0.01 0.01944,0.0145 0.0079,0.006 0.01583,0.0113 0.02399,0.017 0.0086,0.006 0.0171,0.0112 0.02585,0.017 0.0068,0.004 0.01371,0.009 0.02031,0.0133 0.0032,0.002 0.007,0.004 0.01038,0.006 0.0051,0.003 0.0099,0.006 0.01507,0.009 0.0074,0.004 0.01486,0.009 0.0226,0.0136 0.005,0.003 0.01009,0.005 0.01523,0.008 0.0029,0.002 0.0055,0.003 0.0083,0.004 l 0.198228,9e-5 z m -4.040991,45.48334 1.33e-4,7.1e-4 c 0.0026,0.002 0.0051,0.004 0.0077,0.005 z m -3.89e-4,2.48978 1.38e-4,0.0108 0.01605,3.1e-4 c -0.0054,-0.004 -0.01074,-0.007 -0.01619,-0.0111 z" />
    <g
       aria-label="REFRIGERACION - ELECTRICIDAD"
       id="text1632"
       style="font-weight:300;font-size:7.05556px;font-family:Mukta;-inkscape-font-specification:'Mukta Light';text-align:center;text-anchor:middle;stroke-width:0.264583">
      <path
         d="m 20.902496,121.92223 h 1.368778 q 0.345723,0 0.606778,0.0988 0.268112,0.0917 0.444501,0.26105 0.176389,0.16934 0.268111,0.40923 0.09172,0.23283 0.09172,0.51505 0,0.254 -0.07761,0.46567 -0.07761,0.20461 -0.211667,0.35983 -0.127,0.15523 -0.296333,0.26106 -0.169334,0.10583 -0.352778,0.16933 l 1.2065,1.905 h -0.578555 l -1.100668,-1.81328 h -0.896056 v 1.81328 h -0.472722 z m 0.472722,2.2225 h 0.677334 q 0.232833,0 0.430389,-0.0494 0.204611,-0.0564 0.352778,-0.16933 0.148167,-0.11289 0.232833,-0.28222 0.08467,-0.17639 0.08467,-0.41628 0,-0.46567 -0.268111,-0.67733 -0.261056,-0.21873 -0.776112,-0.21873 h -0.733778 z"
         id="path278" />
      <path
         d="m 24.62783,121.92223 h 2.610558 v 0.41628 h -2.102557 v 1.524 h 1.919112 v 0.41628 h -1.919112 v 1.67217 h 2.123723 v 0.41627 H 24.62783 Z"
         id="path280" />
      <path
         d="m 30.653275,121.92223 v 0.41628 h -2.032001 v 1.60867 h 1.876779 v 0.40922 h -1.876779 v 2.01083 h -0.508 v -4.445 z"
         id="path282" />
      <path
         d="m 31.464654,121.92223 h 1.368779 q 0.345722,0 0.606778,0.0988 0.268111,0.0917 0.4445,0.26105 0.176389,0.16934 0.268112,0.40923 0.09172,0.23283 0.09172,0.51505 0,0.254 -0.07761,0.46567 -0.07761,0.20461 -0.211667,0.35983 -0.127,0.15523 -0.296334,0.26106 -0.169333,0.10583 -0.352778,0.16933 l 1.206501,1.905 H 33.9341 l -1.100667,-1.81328 h -0.896056 v 1.81328 h -0.472723 z m 0.472723,2.2225 h 0.677333 q 0.232834,0 0.43039,-0.0494 0.204611,-0.0564 0.352778,-0.16933 0.148166,-0.11289 0.232833,-0.28222 0.08467,-0.17639 0.08467,-0.41628 0,-0.46567 -0.268112,-0.67733 -0.261055,-0.21873 -0.776111,-0.21873 H 31.93738 Z"
         id="path284" />
      <path
         d="m 35.697989,121.92223 v 4.445 h -0.508001 v -4.445 z"
         id="path286" />
      <path
         d="m 38.731873,121.86579 q 0.381,0 0.677333,0.0564 0.296334,0.0564 0.564445,0.19756 l -0.127,0.40216 q -0.246945,-0.11994 -0.508,-0.18344 -0.254,-0.0635 -0.529167,-0.0635 -0.338667,0 -0.649112,0.0988 -0.303389,0.0988 -0.536222,0.32455 -0.232834,0.21872 -0.373945,0.57856 -0.141111,0.35983 -0.141111,0.87489 0,0.4445 0.119944,0.79728 0.119945,0.34572 0.338667,0.58561 0.225778,0.23283 0.529167,0.35983 0.303389,0.11995 0.677334,0.11995 0.268111,0 0.465667,-0.0353 0.204611,-0.0353 0.345722,-0.0917 v -1.41112 h -0.896056 v -0.39511 h 1.38289 v 2.10961 q -0.261056,0.10584 -0.5715,0.17639 -0.303389,0.0635 -0.74789,0.0635 -0.451556,0 -0.846667,-0.14816 -0.395111,-0.14817 -0.691445,-0.43745 -0.296333,-0.28928 -0.472722,-0.71261 -0.169334,-0.42333 -0.169334,-0.98072 0,-0.55739 0.162278,-0.98778 0.162278,-0.43039 0.451556,-0.71261 0.289278,-0.28928 0.684389,-0.43745 0.395112,-0.14816 0.860779,-0.14816 z"
         id="path288" />
      <path
         d="m 41.04609,121.92223 h 2.610558 v 0.41628 h -2.102557 v 1.524 h 1.919112 v 0.41628 h -1.919112 v 1.67217 h 2.123723 v 0.41627 H 41.04609 Z"
         id="path290" />
      <path
         d="m 44.531533,121.92223 h 1.368779 q 0.345722,0 0.606778,0.0988 0.268111,0.0917 0.4445,0.26105 0.176389,0.16934 0.268112,0.40923 0.09172,0.23283 0.09172,0.51505 0,0.254 -0.07761,0.46567 -0.07761,0.20461 -0.211667,0.35983 -0.127,0.15523 -0.296333,0.26106 -0.169334,0.10583 -0.352778,0.16933 l 1.2065,1.905 h -0.578556 l -1.100667,-1.81328 h -0.896056 v 1.81328 h -0.472723 z m 0.472723,2.2225 h 0.677334 q 0.232833,0 0.430389,-0.0494 0.204611,-0.0564 0.352778,-0.16933 0.148167,-0.11289 0.232833,-0.28222 0.08467,-0.17639 0.08467,-0.41628 0,-0.46567 -0.268111,-0.67733 -0.261056,-0.21873 -0.776112,-0.21873 h -0.733778 z"
         id="path292" />
      <path
         d="m 48.934201,124.68801 h 1.608668 l -0.352778,-0.9525 q -0.09878,-0.24695 -0.204611,-0.55739 -0.105834,-0.3175 -0.225778,-0.69144 h -0.01411 q -0.05644,0.18344 -0.112889,0.34572 -0.05645,0.16228 -0.112889,0.31044 -0.04939,0.14817 -0.105834,0.29634 -0.04939,0.14111 -0.112889,0.29633 z m 0.592667,-2.76578 h 0.472723 l 1.721557,4.445 h -0.536223 l -0.486834,-1.27 H 48.79309 l -0.486834,1.27 h -0.529167 z"
         id="path294" />
      <path
         d="m 54.120023,126.01446 q 0.345722,0 0.5715,-0.0635 0.232834,-0.0635 0.437445,-0.16228 l 0.119945,0.40922 q -0.232834,0.11289 -0.515056,0.16933 -0.275167,0.0635 -0.677334,0.0635 -0.437445,0 -0.825501,-0.14816 -0.381,-0.14817 -0.670278,-0.43745 -0.282222,-0.28928 -0.451556,-0.71261 -0.162278,-0.42333 -0.162278,-0.98072 0,-0.54328 0.155223,-0.96661 0.162278,-0.43039 0.4445,-0.71967 0.289278,-0.29633 0.677334,-0.4445 0.388056,-0.15522 0.846667,-0.15522 0.416278,0 0.691445,0.0705 0.275167,0.0635 0.508,0.18345 l -0.119944,0.39511 q -0.246945,-0.11995 -0.479778,-0.17639 -0.225778,-0.0564 -0.522112,-0.0564 -0.331611,0 -0.635,0.10584 -0.296334,0.10583 -0.522112,0.33161 -0.225778,0.22578 -0.366889,0.58561 -0.134055,0.35278 -0.134055,0.85372 0,0.51506 0.134055,0.86784 0.141111,0.35277 0.366889,0.5715 0.232834,0.21872 0.522112,0.3175 0.296333,0.0988 0.606778,0.0988 z"
         id="path296" />
      <path
         d="m 56.575348,121.92223 v 4.445 h -0.508 v -4.445 z"
         id="path298" />
      <path
         d="m 59.496345,121.86579 q 0.423334,0 0.790223,0.14111 0.373944,0.14111 0.642056,0.43039 0.268111,0.28222 0.423333,0.71261 0.155223,0.42333 0.155223,0.99483 0,0.55739 -0.162278,0.98778 -0.155223,0.42333 -0.43039,0.71261 -0.275166,0.28928 -0.649111,0.43745 -0.373945,0.14816 -0.797278,0.14816 -0.423334,0 -0.797279,-0.14111 -0.366889,-0.14816 -0.635,-0.43039 -0.268111,-0.28928 -0.423334,-0.71261 -0.155222,-0.43039 -0.155222,-1.00189 0,-0.55739 0.155222,-0.98072 0.162278,-0.42333 0.437445,-0.71261 0.275167,-0.28928 0.642056,-0.43745 0.373945,-0.14816 0.804334,-0.14816 z m -1.495779,2.27894 q 0,0.47978 0.119945,0.83256 0.119944,0.35278 0.324555,0.58561 0.204612,0.23283 0.472723,0.34572 0.275167,0.11289 0.578556,0.11289 0.303389,0 0.564445,-0.11289 0.268111,-0.11289 0.465667,-0.34572 0.204611,-0.23283 0.3175,-0.58561 0.119944,-0.35278 0.119944,-0.83256 0,-0.48683 -0.119944,-0.83961 -0.119945,-0.35983 -0.324556,-0.58561 -0.204611,-0.22578 -0.479778,-0.33161 -0.268111,-0.11289 -0.5715,-0.11289 -0.303389,0 -0.571501,0.11289 -0.261055,0.11289 -0.465667,0.34572 -0.197555,0.23283 -0.3175,0.58561 -0.112889,0.35278 -0.112889,0.8255 z"
         id="path300" />
      <path
         d="m 62.396167,121.92223 h 0.458611 l 1.982613,2.87161 q 0.134055,0.19756 0.261055,0.39511 0.134056,0.19756 0.254001,0.39512 h 0.01411 q -0.01411,-0.26106 -0.02117,-0.51506 0,-0.26106 0,-0.52211 v -2.62467 h 0.493889 v 4.445 h -0.458611 l -1.940279,-2.78694 q -0.148167,-0.21167 -0.296334,-0.45156 -0.141111,-0.24694 -0.268111,-0.48683 h -0.01411 q 0.01411,0.3175 0.02117,0.62794 0.0071,0.30339 0.0071,0.62089 v 2.4765 h -0.493889 z"
         id="path302" />
      <path
         d="m 69.691605,124.08829 v 0.43744 h -1.552223 v -0.43744 z"
         id="path304" />
      <path
         d="m 71.998759,121.92223 h 2.610558 v 0.41628 H 72.50676 v 1.524 h 1.919112 v 0.41628 H 72.50676 v 1.67217 h 2.123723 v 0.41627 h -2.631724 z"
         id="path306" />
      <path
         d="m 75.484203,121.92223 h 0.508 v 4.02167 h 1.968501 v 0.42333 h -2.476501 z"
         id="path308" />
      <path
         d="m 78.630977,121.92223 h 2.610557 v 0.41628 h -2.102557 v 1.524 h 1.919112 v 0.41628 h -1.919112 v 1.67217 h 2.123724 v 0.41627 h -2.631724 z"
         id="path310" />
      <path
         d="m 83.972024,126.01446 q 0.345723,0 0.5715,-0.0635 0.232834,-0.0635 0.437445,-0.16228 l 0.119945,0.40922 q -0.232834,0.11289 -0.515056,0.16933 -0.275167,0.0635 -0.677334,0.0635 -0.437445,0 -0.8255,-0.14816 -0.381001,-0.14817 -0.670279,-0.43745 -0.282222,-0.28928 -0.451556,-0.71261 -0.162277,-0.42333 -0.162277,-0.98072 0,-0.54328 0.155222,-0.96661 0.162278,-0.43039 0.4445,-0.71967 0.289278,-0.29633 0.677334,-0.4445 0.388056,-0.15522 0.846667,-0.15522 0.416278,0 0.691445,0.0705 0.275167,0.0635 0.508,0.18345 l -0.119944,0.39511 q -0.246945,-0.11995 -0.479778,-0.17639 -0.225778,-0.0564 -0.522112,-0.0564 -0.331611,0 -0.635,0.10584 -0.296334,0.10583 -0.522112,0.33161 -0.225777,0.22578 -0.366889,0.58561 -0.134055,0.35278 -0.134055,0.85372 0,0.51506 0.134055,0.86784 0.141112,0.35277 0.366889,0.5715 0.232834,0.21872 0.522112,0.3175 0.296333,0.0988 0.606778,0.0988 z"
         id="path312" />
      <path
         d="m 88.82624,121.92223 v 0.42333 h -1.460501 v 4.02167 h -0.508001 v -4.02167 H 85.42546 v -0.42333 z"
         id="path314" />
      <path
         d="m 89.454177,121.92223 h 1.368779 q 0.345722,0 0.606778,0.0988 0.268111,0.0917 0.4445,0.26105 0.176389,0.16934 0.268111,0.40923 0.09172,0.23283 0.09172,0.51505 0,0.254 -0.07761,0.46567 -0.07761,0.20461 -0.211667,0.35983 -0.127,0.15523 -0.296334,0.26106 -0.169333,0.10583 -0.352778,0.16933 l 1.206501,1.905 h -0.578556 l -1.100667,-1.81328 H 89.9269 v 1.81328 h -0.472723 z m 0.472723,2.2225 h 0.677333 q 0.232834,0 0.43039,-0.0494 0.204611,-0.0564 0.352778,-0.16933 0.148166,-0.11289 0.232833,-0.28222 0.08467,-0.17639 0.08467,-0.41628 0,-0.46567 -0.268112,-0.67733 -0.261055,-0.21873 -0.776111,-0.21873 H 89.9269 Z"
         id="path316" />
      <path
         d="m 93.687519,121.92223 v 4.445 h -0.508 v -4.445 z"
         id="path318" />
      <path
         d="m 96.700231,126.01446 q 0.345722,0 0.5715,-0.0635 0.232834,-0.0635 0.437445,-0.16228 l 0.119944,0.40922 q -0.232833,0.11289 -0.515056,0.16933 -0.275166,0.0635 -0.677333,0.0635 -0.437445,0 -0.825501,-0.14816 -0.381,-0.14817 -0.670278,-0.43745 -0.282222,-0.28928 -0.451556,-0.71261 -0.162278,-0.42333 -0.162278,-0.98072 0,-0.54328 0.155223,-0.96661 0.162277,-0.43039 0.4445,-0.71967 0.289278,-0.29633 0.677334,-0.4445 0.388055,-0.15522 0.846667,-0.15522 0.416278,0 0.691445,0.0705 0.275167,0.0635 0.508,0.18345 l -0.119944,0.39511 q -0.246945,-0.11995 -0.479779,-0.17639 -0.225778,-0.0564 -0.522111,-0.0564 -0.331611,0 -0.635,0.10584 -0.296334,0.10583 -0.522112,0.33161 -0.225778,0.22578 -0.366889,0.58561 -0.134056,0.35278 -0.134056,0.85372 0,0.51506 0.134056,0.86784 0.141111,0.35277 0.366889,0.5715 0.232834,0.21872 0.522112,0.3175 0.296333,0.0988 0.606778,0.0988 z"
         id="path320" />
      <path
         d="m 99.15556,121.92223 v 4.445 h -0.508001 v -4.445 z"
         id="path322" />
      <path
         d="m 101.65322,121.92223 q 0.45156,0 0.83961,0.13406 0.39512,0.13405 0.67734,0.40216 0.28222,0.26106 0.4445,0.66323 0.16228,0.39511 0.16228,0.92427 0,0.64206 -0.1905,1.08656 -0.1905,0.4445 -0.51506,0.71967 -0.32456,0.27516 -0.75494,0.39511 -0.43039,0.11994 -0.91017,0.11994 h -1.12889 v -4.445 z m -0.86783,4.02873 h 0.55739 q 0.35278,0 0.69144,-0.0776 0.33867,-0.0847 0.60678,-0.29633 0.26811,-0.21872 0.43039,-0.58561 0.16228,-0.37395 0.16228,-0.94545 0,-0.40922 -0.127,-0.72672 -0.11995,-0.3175 -0.34572,-0.53622 -0.21873,-0.21872 -0.53623,-0.33161 -0.3175,-0.11289 -0.6985,-0.11289 h -0.74083 z"
         id="path324" />
      <path
         d="m 105.20216,124.68801 h 1.60867 l -0.35278,-0.9525 q -0.0988,-0.24695 -0.20461,-0.55739 -0.10584,-0.3175 -0.22578,-0.69144 h -0.0141 q -0.0564,0.18344 -0.11289,0.34572 -0.0564,0.16228 -0.11289,0.31044 -0.0494,0.14817 -0.10583,0.29634 -0.0494,0.14111 -0.11289,0.29633 z m 0.59267,-2.76578 h 0.47272 l 1.72156,4.445 h -0.53623 l -0.48683,-1.27 h -1.905 l -0.48684,1.27 h -0.52916 z"
         id="path326" />
      <path
         d="m 110.01404,121.92223 q 0.45156,0 0.83961,0.13406 0.39511,0.13405 0.67734,0.40216 0.28222,0.26106 0.4445,0.66323 0.16227,0.39511 0.16227,0.92427 0,0.64206 -0.1905,1.08656 -0.1905,0.4445 -0.51505,0.71967 -0.32456,0.27516 -0.75495,0.39511 -0.43039,0.11994 -0.91016,0.11994 h -1.12889 v -4.445 z m -0.86783,4.02873 h 0.55739 q 0.35277,0 0.69144,-0.0776 0.33867,-0.0847 0.60678,-0.29633 0.26811,-0.21872 0.43039,-0.58561 0.16228,-0.37395 0.16228,-0.94545 0,-0.40922 -0.127,-0.72672 -0.11995,-0.3175 -0.34573,-0.53622 -0.21872,-0.21872 -0.53622,-0.33161 -0.3175,-0.11289 -0.6985,-0.11289 h -0.74083 z"
         id="path328" />
    </g>
    <g
       aria-label="STEEL FRAMING"
       id="text1632-9"
       style="font-weight:300;font-size:7.05556px;font-family:Mukta;-inkscape-font-specification:'Mukta Light';text-align:center;text-anchor:middle;stroke-width:0.264583">
      <path
         d="m 165.46281,121.91841 q 0.3175,0 0.60677,0.0565 0.29634,0.0564 0.58562,0.1905 l -0.127,0.41628 q -0.30339,-0.14112 -0.55034,-0.19756 -0.23989,-0.0564 -0.49389,-0.0564 -0.43039,0 -0.69144,0.19755 -0.26106,0.1905 -0.26106,0.54328 0,0.31044 0.19756,0.49389 0.19755,0.17639 0.61383,0.31044 l 0.47272,0.15523 q 0.54328,0.18344 0.79023,0.50094 0.254,0.31045 0.254,0.71261 0,0.28928 -0.11289,0.52211 -0.10583,0.22578 -0.30339,0.38806 -0.19756,0.15522 -0.47272,0.24694 -0.27517,0.0847 -0.60678,0.0847 -0.33867,0 -0.67733,-0.0635 -0.33162,-0.0635 -0.67028,-0.21872 l 0.13405,-0.41628 q 0.29634,0.14817 0.57856,0.21872 0.28928,0.0635 0.60678,0.0635 0.43039,0 0.71261,-0.1905 0.28928,-0.1905 0.28928,-0.58561 0,-0.14111 -0.0423,-0.26105 -0.0353,-0.127 -0.13405,-0.23284 -0.0988,-0.10583 -0.26811,-0.19755 -0.16934,-0.0988 -0.43039,-0.18345 l -0.45861,-0.14816 q -0.44451,-0.14112 -0.71967,-0.40923 -0.27517,-0.27516 -0.27517,-0.72672 0,-0.55739 0.37395,-0.88195 0.37394,-0.33161 1.0795,-0.33161 z"
         id="path253" />
      <path
         d="m 170.5428,121.97486 v 0.42333 h -1.4605 v 4.02167 h -0.508 v -4.02167 h -1.43228 v -0.42333 z"
         id="path255" />
      <path
         d="m 171.17074,121.97486 h 2.61056 v 0.41628 h -2.10256 v 1.524 h 1.91911 v 0.41628 h -1.91911 v 1.67216 h 2.12372 v 0.41628 h -2.63172 z"
         id="path257" />
      <path
         d="m 174.65618,121.97486 h 2.61056 v 0.41628 h -2.10256 v 1.524 h 1.91911 v 0.41628 h -1.91911 v 1.67216 h 2.12373 v 0.41628 h -2.63173 z"
         id="path259" />
      <path
         d="m 178.14162,121.97486 h 0.508 v 4.02167 h 1.96851 v 0.42333 h -2.47651 z"
         id="path261" />
      <path
         d="m 185.35945,121.97486 v 0.41628 h -2.032 v 1.60866 h 1.87678 v 0.40923 h -1.87678 v 2.01083 h -0.508 v -4.445 z"
         id="path263" />
      <path
         d="m 186.17083,121.97486 h 1.36878 q 0.34572,0 0.60677,0.0988 0.26812,0.0917 0.44451,0.26105 0.17638,0.16933 0.26811,0.40922 0.0917,0.23284 0.0917,0.51506 0,0.254 -0.0776,0.46567 -0.0776,0.20461 -0.21167,0.35983 -0.127,0.15522 -0.29633,0.26106 -0.16934,0.10583 -0.35278,0.16933 l 1.2065,1.905 h -0.57856 l -1.10066,-1.81328 h -0.89606 v 1.81328 h -0.47272 z m 0.47272,2.2225 h 0.67733 q 0.23284,0 0.43039,-0.0494 0.20461,-0.0564 0.35278,-0.16933 0.14817,-0.11289 0.23283,-0.28223 0.0847,-0.17638 0.0847,-0.41627 0,-0.46567 -0.26811,-0.67734 -0.26106,-0.21872 -0.77611,-0.21872 h -0.73378 z"
         id="path265" />
      <path
         d="m 190.5735,124.74064 h 1.60867 l -0.35278,-0.9525 q -0.0988,-0.24695 -0.20461,-0.55739 -0.10584,-0.3175 -0.22578,-0.69145 h -0.0141 q -0.0565,0.18345 -0.11289,0.34573 -0.0564,0.16227 -0.11289,0.31044 -0.0494,0.14817 -0.10583,0.29633 -0.0494,0.14111 -0.11289,0.29634 z m 0.59266,-2.76578 h 0.47273 l 1.72155,4.445 h -0.53622 l -0.48683,-1.27 h -1.905 l -0.48684,1.27 h -0.52916 z"
         id="path267" />
      <path
         d="m 194.31293,121.97486 h 0.66322 l 1.03012,3.05506 q 0.0564,0.16227 0.11994,0.36688 0.0706,0.20462 0.127,0.39512 h 0.0141 q 0.0564,-0.18345 0.11995,-0.381 0.0635,-0.20462 0.11994,-0.381 l 1.00895,-3.05506 h 0.67027 l 0.42334,4.445 h -0.508 l -0.21872,-2.44828 q -0.0353,-0.37394 -0.0635,-0.73378 -0.0212,-0.36689 -0.0353,-0.74083 h -0.0141 q -0.0988,0.33867 -0.21873,0.72672 -0.11289,0.381 -0.23283,0.74789 l -0.83961,2.44828 h -0.45861 l -0.83961,-2.45533 q -0.127,-0.37395 -0.23989,-0.72673 -0.11289,-0.35983 -0.21167,-0.74083 h -0.0141 q -0.0212,0.33867 -0.0494,0.71967 -0.0282,0.381 -0.0635,0.75494 l -0.21167,2.44828 h -0.49389 z"
         id="path269" />
      <path
         d="m 200.13377,121.97486 v 4.445 h -0.508 v -4.445 z"
         id="path271" />
      <path
         d="m 201.25559,121.97486 h 0.45861 l 1.98262,2.87161 q 0.13405,0.19756 0.26105,0.39511 0.13406,0.19756 0.254,0.39511 h 0.0141 q -0.0141,-0.26105 -0.0212,-0.51505 0,-0.26106 0,-0.52211 v -2.62467 h 0.49389 v 4.445 h -0.45862 l -1.94027,-2.78695 q -0.14817,-0.21166 -0.29634,-0.45155 -0.14111,-0.24695 -0.26811,-0.48683 h -0.0141 q 0.0141,0.3175 0.0212,0.62794 0.007,0.30339 0.007,0.62089 v 2.4765 h -0.49389 z"
         id="path273" />
      <path
         d="m 207.73259,121.91841 q 0.381,0 0.67733,0.0565 0.29634,0.0564 0.56445,0.19755 l -0.127,0.40217 q -0.24695,-0.11994 -0.508,-0.18344 -0.254,-0.0635 -0.52917,-0.0635 -0.33867,0 -0.64911,0.0988 -0.30339,0.0988 -0.53622,0.32456 -0.23284,0.21872 -0.37395,0.57856 -0.14111,0.35983 -0.14111,0.87488 0,0.44451 0.11995,0.79728 0.11994,0.34573 0.33866,0.58561 0.22578,0.23284 0.52917,0.35984 0.30339,0.11994 0.67733,0.11994 0.26812,0 0.46567,-0.0353 0.20461,-0.0353 0.34572,-0.0917 v -1.41111 h -0.89605 v -0.39511 h 1.38289 v 2.10961 q -0.26106,0.10584 -0.5715,0.17639 -0.30339,0.0635 -0.74789,0.0635 -0.45156,0 -0.84667,-0.14817 -0.39511,-0.14816 -0.69144,-0.43744 -0.29634,-0.28928 -0.47273,-0.71261 -0.16933,-0.42334 -0.16933,-0.98073 0,-0.55738 0.16228,-0.98777 0.16228,-0.43039 0.45155,-0.71262 0.28928,-0.28927 0.68439,-0.43744 0.39511,-0.14817 0.86078,-0.14817 z"
         id="path275" />
    </g>
  </g>
</svg>
